<?xml version="1.0" encoding="utf-8"?>
<!-- Generator: Adobe Illustrator 26.5.0, SVG Export Plug-In . SVG Version: 6.00 Build 0)  -->
<svg version="1.1" id="Capa_1" xmlns="http://www.w3.org/2000/svg" xmlns:xlink="http://www.w3.org/1999/xlink" x="0px" y="0px"
	 viewBox="0 0 400 400" style="enable-background:new 0 0 400 400;" xml:space="preserve">
<style type="text/css">
	.st0{fill:#BC1E64;}
</style>
<path class="st0" d="M353.8,43.9H46.2c-12.2,0-24,4.9-32.7,13.5C4.9,66.1,0,77.9,0,90.1v219.8c0,12.2,4.9,24,13.5,32.7
	c8.7,8.7,20.4,13.5,32.7,13.5h225.9c2.7-2.6,5.3-5.3,7.7-8c3-3.4,5.8-7.1,8.4-10.9c2.1-3.1,4-6.3,5.5-9.7c1.2-2.4,1.8-5.1,2-7.7
	c0-1.5-0.7-3-1.8-4c-1.4-1.5-2.8-2.9-4.3-4.2c-3.3-2.8-6.4-5.8-9.2-9.1c-2.7-3.3-4.1-7.4-4-11.7c0-3.8,0.7-7.5,2.2-11
	c1.4-3.4,3.5-6.4,6.1-8.9c2.7-2.6,5.8-4.7,9.3-6.1c3.8-1.6,7.9-2.3,12-2.3c4.3,0,8.5,0.9,12.4,2.8c4,1.8,7.6,4.4,10.7,7.6
	c3.2,3.4,5.7,7.3,7.5,11.7c1.9,4.8,2.8,9.9,2.7,15c0,10.6-3.9,22.5-11.8,35.5c-4.4,7.3-9.3,14.3-14.7,21h41.1
	c12.2,0,24-4.9,32.7-13.5c8.7-8.7,13.5-20.4,13.5-32.7V90.1c0-12.2-4.9-24-13.5-32.7C377.8,48.8,366.1,43.9,353.8,43.9L353.8,43.9z
	 M333.7,174.8c-3.4,6.7-9.1,12-16.1,14.7c-3.7,1.4-7.6,2.2-11.6,2.1c-3.9,0-7.7-0.7-11.3-2.1c-3.5-1.4-6.8-3.4-9.6-6
	c-2.6-2.5-4.8-5.4-6.4-8.7c-1.6-3.3-2.5-6.9-2.5-10.5c0-3.7,0.8-7.3,2.5-10.5c1.6-3.3,3.7-6.2,6.4-8.7c2.8-2.5,6-4.5,9.6-5.9
	c3.6-1.4,7.4-2.2,11.3-2.1c7.5,0,14.8,2.7,20.5,7.5c2.9,2.4,5.2,5.3,7,8.6c1.7,3.3,2.6,7,2.6,10.8
	C336.2,167.7,335.4,171.4,333.7,174.8z"/>
</svg>
