<?xml version="1.0" encoding="utf-8"?>
<!-- Generator: Adobe Illustrator 26.5.0, SVG Export Plug-In . SVG Version: 6.00 Build 0)  -->
<svg version="1.1" id="Capa_1" xmlns="http://www.w3.org/2000/svg" xmlns:xlink="http://www.w3.org/1999/xlink" x="0px" y="0px"
	 viewBox="0 0 300 100" style="enable-background:new 0 0 300 100;" xml:space="preserve">
<style type="text/css">
	.st0{fill:#FFFFFF;stroke:#D8D8D8;stroke-miterlimit:10;}
	.st1{fill:#3597FC;}
	.st2{fill:#9C9C9C;}
</style>
<path class="st0" d="M283.7,96.7H16.3c-5.5,0-9.9-4.4-9.9-9.9V13.2c0-5.5,4.4-9.9,9.9-9.9h267.5c5.5,0,9.9,4.4,9.9,9.9v73.7
	C293.6,92.3,289.2,96.7,283.7,96.7z"/>
<g>
	<path class="st1" d="M33,55.4V49h4.5c1,0,1.7-0.2,2.3-0.5s1-0.7,1.3-1.3s0.4-1.2,0.4-1.9c0-0.8-0.1-1.5-0.4-2.2
		c-0.3-0.7-0.7-1.2-1.3-1.6c-0.6-0.4-1.4-0.6-2.3-0.6H33v24.7h-8V34.4h12.5c2.5,0,4.6,0.5,6.5,1.4c1.8,0.9,3.2,2.2,4.2,3.9
		c1,1.6,1.5,3.5,1.5,5.6c0,2-0.5,3.8-1.5,5.3s-2.4,2.7-4.2,3.6c-1.8,0.9-4,1.3-6.5,1.3L33,55.4L33,55.4z"/>
	<path class="st1" d="M79.4,65.6h-7.9l-10.2-18v18h-7.9V34.4h7.9l10.2,18v-18h7.9V65.6z"/>
	<path class="st2" d="M109.1,54.9c-0.1,2.2-0.7,4.1-1.7,5.8c-1.1,1.7-2.6,3-4.5,3.9c-1.9,0.9-4.1,1.4-6.7,1.4
		c-2.8,0-5.2-0.6-7.1-1.8c-2-1.2-3.5-3-4.5-5.3s-1.5-5-1.5-8.2v-1.3c0-3.2,0.5-5.9,1.6-8.2s2.6-4.1,4.5-5.3c2-1.2,4.3-1.9,6.9-1.9
		c2.7,0,5,0.5,6.9,1.5s3.3,2.4,4.3,4.1c1,1.7,1.6,3.7,1.8,5.8h-7.9c0-1.6-0.4-2.8-1.2-3.6c-0.7-0.8-2.1-1.2-4-1.2
		c-1.1,0-2.1,0.3-2.8,0.8c-0.7,0.5-1.3,1.5-1.6,2.7c-0.4,1.3-0.5,3-0.5,5.2v1.3c0,2.2,0.2,4,0.5,5.2c0.3,1.3,0.9,2.2,1.6,2.7
		c0.8,0.5,1.8,0.8,3.1,0.8c1.1,0,2-0.2,2.7-0.5s1.3-0.8,1.7-1.5c0.4-0.7,0.6-1.5,0.6-2.6h7.8V54.9z"/>
	<path class="st2" d="M138.7,50.5c0,3.2-0.6,6-1.8,8.3s-2.8,4.1-4.8,5.4c-2,1.2-4.4,1.9-7,1.9c-2.7,0-5-0.6-7.1-1.9
		c-2.1-1.3-3.7-3-4.8-5.4c-1.2-2.3-1.7-5.1-1.7-8.3v-0.9c0-3.2,0.6-6,1.7-8.3c1.2-2.3,2.8-4.1,4.8-5.4c2.1-1.3,4.4-1.9,7.1-1.9
		c2.6,0,5,0.6,7,1.9c2.1,1.3,3.7,3,4.8,5.4c1.2,2.3,1.8,5.1,1.8,8.3V50.5z M130.6,49.5c0-2-0.2-3.6-0.7-4.9c-0.4-1.3-1.1-2.3-1.9-3
		c-0.8-0.7-1.8-1-3-1s-2.3,0.3-3.1,1c-0.8,0.7-1.4,1.7-1.8,3s-0.6,3-0.6,4.9v1c0,1.9,0.2,3.6,0.6,4.9c0.4,1.3,1,2.4,1.9,3.1
		c0.8,0.7,1.9,1,3.1,1s2.2-0.3,3-1c0.8-0.7,1.5-1.7,1.9-3.1c0.4-1.3,0.6-3,0.6-4.9V49.5z"/>
	<path class="st2" d="M168.3,65.6h-7.9l-10.2-18v18h-7.9V34.4h7.9l10.2,18v-18h7.9V65.6z"/>
	<path class="st2" d="M188.4,57.2c0-0.6-0.1-1-0.4-1.5c-0.2-0.4-0.7-0.8-1.4-1.3c-0.7-0.4-1.8-0.9-3.3-1.4c-1.3-0.5-2.6-1-3.9-1.6
		c-1.3-0.6-2.4-1.3-3.4-2.1s-1.8-1.7-2.4-2.8c-0.6-1.1-0.9-2.3-0.9-3.8c0-1.8,0.5-3.4,1.6-4.7c1-1.3,2.5-2.3,4.3-3.1
		c1.8-0.7,3.9-1.1,6.2-1.1s4.3,0.4,6,1.2s3.1,1.9,4.1,3.3c1,1.5,1.5,3.2,1.5,5.2h-7.9c0-0.7-0.1-1.3-0.4-1.8
		c-0.3-0.5-0.7-0.9-1.3-1.2s-1.3-0.4-2.2-0.4s-1.6,0.1-2.2,0.4c-0.6,0.2-1,0.6-1.3,1s-0.4,0.8-0.4,1.3c0,0.6,0.2,1,0.7,1.5
		s1.1,0.8,1.9,1.2c0.8,0.4,1.7,0.7,2.8,1.1c2.2,0.7,4.1,1.5,5.6,2.5c1.5,0.9,2.7,2.1,3.5,3.4c0.8,1.3,1.2,2.8,1.2,4.6
		c0,1.9-0.5,3.5-1.4,4.8s-2.3,2.3-4,3c-1.7,0.7-3.7,1-6.1,1c-1.6,0-3.2-0.2-4.7-0.6s-2.9-1.1-4.2-1.9c-1.2-0.9-2.2-2-3-3.3
		c-0.7-1.4-1.1-3-1.1-4.9h8c0,0.9,0.1,1.6,0.3,2.1c0.2,0.6,0.5,1,1,1.4c0.4,0.3,1,0.6,1.6,0.7c0.6,0.1,1.4,0.2,2.2,0.2
		c0.9,0,1.6-0.1,2.1-0.4c0.5-0.2,0.9-0.6,1.1-0.9C188.2,58,188.4,57.6,188.4,57.2z"/>
	<path class="st2" d="M226.4,50.5c0,3.2-0.6,6-1.8,8.3s-2.8,4.1-4.8,5.4c-2,1.2-4.4,1.9-7,1.9c-2.7,0-5-0.6-7.1-1.9
		c-2.1-1.3-3.7-3-4.8-5.4c-1.2-2.3-1.7-5.1-1.7-8.3v-0.9c0-3.2,0.6-6,1.7-8.3c1.2-2.3,2.8-4.1,4.8-5.4c2.1-1.3,4.4-1.9,7.1-1.9
		c2.6,0,5,0.6,7,1.9c2.1,1.3,3.7,3,4.8,5.4c1.2,2.3,1.8,5.1,1.8,8.3V50.5z M218.3,49.5c0-2-0.2-3.6-0.7-4.9c-0.4-1.3-1.1-2.3-1.9-3
		c-0.8-0.7-1.8-1-3-1s-2.3,0.3-3.1,1s-1.4,1.7-1.8,3c-0.4,1.3-0.6,3-0.6,4.9v1c0,1.9,0.2,3.6,0.6,4.9c0.4,1.3,1,2.4,1.9,3.1
		c0.8,0.7,1.9,1,3.1,1c1.2,0,2.2-0.3,3-1s1.5-1.7,1.9-3.1c0.4-1.3,0.6-3,0.6-4.9V49.5z"/>
	<path class="st2" d="M250.6,65.6h-12.7v-6.5h12.7V65.6z M237.9,65.6H230V34.4h7.9V65.6z"/>
	<path class="st2" d="M274.9,65.6h-13.5v-6.5h13.5V65.6z M261.5,65.6h-8V34.4h8V65.6z M272.8,52.7h-11.4v-6.2h11.4V52.7z M275,40.9
		h-13.5v-6.5H275V40.9z"/>
</g>
</svg>
