<?xml version="1.0" encoding="utf-8"?>
<!-- Generator: Adobe Illustrator 26.5.0, SVG Export Plug-In . SVG Version: 6.00 Build 0)  -->
<svg version="1.1" id="Capa_1" xmlns="http://www.w3.org/2000/svg" xmlns:xlink="http://www.w3.org/1999/xlink" x="0px" y="0px"
	 viewBox="0 0 300 100" style="enable-background:new 0 0 300 100;" xml:space="preserve">
<style type="text/css">
	.st0{fill:#FFFFFF;stroke:#D8D8D8;stroke-miterlimit:10;}
	.st1{fill:#B0D59C;}
	.st2{fill:#F2AB88;}
	.st3{fill:#ECE984;}
	.st4{fill:#A7CC55;}
	.st5{fill:#E8A44B;}
	.st6{fill:#928346;}
	.st7{fill:#9CC8E4;}
	.st8{fill:#73AE8E;}
	.st9{fill:#998A80;}
	.st10{fill:#707E55;}
	.st11{fill:#6FA74A;}
	.st12{fill:#6C7833;}
</style>
<path class="st0" d="M283.7,96.7H16.3c-5.5,0-9.9-4.4-9.9-9.9V13.2c0-5.5,4.4-9.9,9.9-9.9h267.5c5.5,0,9.9,4.4,9.9,9.9v73.7
	C293.6,92.3,289.2,96.7,283.7,96.7z"/>
<g>
	<path class="st1" d="M56,21.4l4.8,4.8l4.8-4.8c2.1-2.1,5.1-2.6,7.7-1.6c-0.9-0.3-1.8-0.6-2.7-0.6H51.1c-1,0-1.9,0.2-2.7,0.6
		C51,18.8,54,19.4,56,21.4L56,21.4z"/>
	<path class="st1" d="M65.8,78.6L61,73.8l-4.9,4.8c-2.1,2.1-5.1,2.6-7.7,1.6c0.9,0.3,1.8,0.6,2.7,0.6h19.4c1,0,1.9-0.2,2.7-0.6
		C70.9,81.2,67.8,80.6,65.8,78.6L65.8,78.6z"/>
	<path class="st2" d="M89.5,45.1L84.7,50l4.8,4.8c2.1,2.1,2.6,5.1,1.6,7.7c0.3-0.9,0.6-1.8,0.6-2.7V40.3c0-1-0.2-1.9-0.6-2.7
		C92.2,40.1,91.6,43,89.5,45.1L89.5,45.1z"/>
	<path class="st2" d="M32.3,54.8l4.8-4.8l-4.8-4.8c-2.1-2.1-2.6-5.1-1.6-7.7c-0.3,0.9-0.6,1.8-0.6,2.7v19.4c0,1,0.2,1.9,0.6,2.7
		C29.8,59.9,30.2,56.9,32.3,54.8L32.3,54.8z"/>
	<path class="st3" d="M84.6,66.8h-6.9v6.9c0,2.7-1.6,5.3-4,6.4c0.8-0.3,1.5-0.8,2.1-1.4L89.5,65c0.6-0.6,1-1.4,1.4-2.1
		C89.8,65.2,87.4,66.8,84.6,66.8L84.6,66.8z"/>
	<path class="st3" d="M37.3,33.2h6.9v-6.9c0-2.7,1.6-5.3,4-6.4c-0.8,0.3-1.5,0.8-2.1,1.4L32.4,35c-0.6,0.6-1,1.4-1.4,2.1
		C32,34.8,34.4,33.2,37.3,33.2L37.3,33.2z"/>
	<path class="st4" d="M77.8,73.7v-6.9H68l-7,7l4.8,4.8c2.1,2.1,5.1,2.6,7.7,1.6c0.1,0,0.1,0,0.2-0.1h0.1
		C76,78.9,77.8,76.4,77.8,73.7z"/>
	<path class="st4" d="M44.2,26.3v6.9H54l7-7l-4.9-4.8c-2.1-2.1-5.1-2.6-7.7-1.6c-0.1,0-0.1,0-0.2,0.1h-0.1
		C45.8,21.1,44.2,23.5,44.2,26.3L44.2,26.3z"/>
	<path class="st5" d="M32.3,45.1l4.8,4.8l7-7v-9.8h-6.9c-2.7,0-5.3,1.6-6.4,4v0.1c0,0.1,0,0.1-0.1,0.2C29.8,40.1,30.2,43,32.3,45.1z
		"/>
	<path class="st5" d="M91.1,62.5c1-2.5,0.5-5.6-1.6-7.7L84.7,50l-7,7v9.8h6.9c2.7,0,5.3-1.6,6.4-4v-0.1C91,62.6,91,62.6,91.1,62.5
		L91.1,62.5z"/>
	<path class="st6" d="M77.8,66.8V57L68,66.8C67.9,66.8,77.8,66.8,77.8,66.8z"/>
	<path class="st6" d="M44.2,33.2V43l9.8-9.8H44.2z"/>
	<path class="st7" d="M77.8,26.3v6.9h6.9c2.7,0,5.3,1.6,6.4,4c-0.3-0.8-0.8-1.5-1.4-2.1L75.9,21.4c-0.6-0.6-1.4-1-2.1-1.4
		C76,21.1,77.8,23.5,77.8,26.3L77.8,26.3z"/>
	<path class="st7" d="M44.2,73.7v-6.9h-6.9c-2.7,0-5.3-1.6-6.4-4c0.3,0.8,0.8,1.5,1.4,2.1L46,78.6c0.6,0.6,1.4,1,2.1,1.4
		C45.8,78.9,44.2,76.4,44.2,73.7z"/>
	<path class="st8" d="M65.8,21.4L61,26.2l7,7h9.8v-6.9c0-2.7-1.6-5.3-4-6.4h-0.1c-0.1,0-0.1,0-0.2-0.1
		C70.9,18.8,67.8,19.4,65.8,21.4L65.8,21.4z"/>
	<path class="st8" d="M56,78.6l4.8-4.8l-7-7h-9.7v6.9c0,2.7,1.6,5.3,4,6.4h0.1c0.1,0,0.1,0,0.2,0.1C51,81.2,54,80.6,56,78.6L56,78.6
		z"/>
	<path class="st9" d="M84.6,33.2h-6.9V43l7,7l4.8-4.8c2.1-2.1,2.6-5.1,1.6-7.7c0-0.1,0-0.1-0.1-0.2v-0.1
		C89.8,34.8,87.4,33.2,84.6,33.2L84.6,33.2z"/>
	<path class="st9" d="M37.3,66.8h6.9V57l-7-7l-4.8,4.8c-2.1,2.1-2.6,5.1-1.6,7.7c0,0.1,0,0.1,0.1,0.2v0.1
		C32,65.2,34.4,66.8,37.3,66.8L37.3,66.8z"/>
	<path class="st10" d="M77.8,33.2H68l9.8,9.8V33.2z"/>
	<path class="st10" d="M44.2,66.8H54L44.2,57V66.8z"/>
	<path class="st11" d="M61,73.8l7-7H54L61,73.8z"/>
	<path class="st11" d="M61,26.2l-7,7h13.9L61,26.2z"/>
	<path class="st6" d="M77.8,57l7-7l-7-7V57z"/>
	<path class="st6" d="M37.2,50l7,7V43L37.2,50z"/>
	<path class="st12" d="M67.9,33.2H54L44.2,43v14l9.8,9.8h13.9l9.8-9.8V43L67.9,33.2z"/>
	<path d="M104.4,57.8v-5.3h23.2v5.3h-8.5v23.1h-6.2V57.8H104.4z"/>
	<path d="M130.6,61c0.7-1.8,1.6-3.4,2.7-4.7c1.1-1.4,2.6-2.4,4.3-3.2s3.7-1.1,5.8-1.1c2.2,0,4.1,0.3,5.8,1.1s3.2,1.8,4.3,3.2
		s2.1,3,2.7,4.7c0.7,1.8,0.9,3.8,0.9,5.8c0,2.1-0.3,4-0.9,5.7c-0.7,1.8-1.6,3.3-2.7,4.7c-1.1,1.4-2.6,2.4-4.3,3.1
		c-1.7,0.8-3.7,1.1-5.8,1.1c-2.2,0-4.1-0.3-5.8-1.1c-1.7-0.8-3.2-1.8-4.3-3.1c-1.1-1.4-2.1-2.9-2.7-4.7c-0.7-1.8-0.9-3.7-0.9-5.7
		C129.5,64.7,129.9,62.8,130.6,61z M136.2,70.3c0.2,1.1,0.7,2.2,1.4,3c0.6,0.9,1.4,1.6,2.4,2.2s2.2,0.8,3.5,0.8
		c1.4,0,2.6-0.2,3.5-0.8c0.9-0.6,1.7-1.3,2.4-2.2c0.6-0.9,1-1.9,1.4-3c0.2-1.1,0.5-2.3,0.5-3.4s-0.1-2.4-0.5-3.7
		c-0.2-1.1-0.7-2.2-1.4-3.1c-0.6-0.9-1.4-1.6-2.4-2.2c-1-0.6-2.2-0.8-3.5-0.8c-1.4,0-2.6,0.2-3.5,0.8c-1,0.6-1.7,1.3-2.4,2.2
		c-0.6,0.9-1,1.9-1.4,3.1c-0.2,1.1-0.5,2.4-0.5,3.7C135.8,68.1,135.9,69.2,136.2,70.3z"/>
	<path d="M174.3,52.6c1.7,0,3.3,0.2,4.5,0.8c1.3,0.5,2.3,1.1,3,2.1c0.8,0.8,1.4,1.8,1.7,2.9c0.3,1,0.6,2.2,0.6,3.3s-0.2,2.3-0.6,3.3
		c-0.3,1.1-0.9,2.1-1.7,2.9s-1.8,1.5-3,2.1c-1.3,0.5-2.7,0.8-4.5,0.8h-6.5V81h-6.2V52.6H174.3L174.3,52.6z M172.6,65.9
		c0.7,0,1.4,0,2.1-0.1s1.3-0.3,1.7-0.6c0.5-0.3,0.9-0.7,1.3-1.3c0.3-0.6,0.5-1.3,0.5-2.2s-0.1-1.6-0.5-2.2c-0.3-0.6-0.7-1-1.3-1.3
		c-0.5-0.3-1-0.5-1.7-0.6s-1.4-0.1-2.1-0.1h-4.8V66L172.6,65.9L172.6,65.9z"/>
	<path d="M208.7,78.7c-2.2,1.8-5.1,2.7-8.9,2.7c-3.8,0-6.7-0.9-8.9-2.7c-2.1-1.8-3.2-4.7-3.2-8.6V52.6h6.2v17.6
		c0,0.8,0.1,1.5,0.2,2.3c0.1,0.7,0.5,1.4,0.8,1.9c0.5,0.6,1,1,1.7,1.4c0.8,0.3,1.7,0.6,3,0.6c2.2,0,3.8-0.5,4.6-1.5s1.3-2.5,1.3-4.7
		V52.6h6.2v17.6C211.9,74,210.9,76.9,208.7,78.7L208.7,78.7z"/>
	<path d="M230,52.6c1.7,0,3.3,0.2,4.5,0.8c1.3,0.5,2.3,1.1,3,2.1c0.8,0.8,1.4,1.8,1.7,2.9c0.3,1,0.6,2.2,0.6,3.3s-0.2,2.3-0.6,3.3
		c-0.3,1.1-0.9,2.1-1.7,2.9s-1.8,1.5-3,2.1c-1.3,0.5-2.7,0.8-4.5,0.8h-6.5V81h-6.2V52.6H230L230,52.6z M228.3,65.9
		c0.7,0,1.4,0,2.1-0.1c0.7-0.1,1.3-0.3,1.7-0.6c0.5-0.3,0.9-0.7,1.3-1.3c0.3-0.6,0.5-1.3,0.5-2.2s-0.1-1.6-0.5-2.2
		c-0.3-0.6-0.7-1-1.3-1.3c-0.5-0.3-1-0.5-1.7-0.6s-1.4-0.1-2.1-0.1h-4.8V66L228.3,65.9L228.3,65.9z"/>
	<path d="M117.2,19.1c1.7,0,3.3,0.2,4.5,0.8c1.3,0.5,2.3,1.1,3,2.1c0.8,0.8,1.4,1.8,1.7,2.9c0.3,1,0.6,2.2,0.6,3.3
		c0,1.1-0.2,2.3-0.6,3.3c-0.3,1.1-0.9,2.1-1.7,2.9s-1.8,1.5-3,2.1c-1.3,0.5-2.7,0.8-4.5,0.8h-6.5v10.2h-6.2V19.1H117.2L117.2,19.1z
		 M115.5,32.5c0.7,0,1.4,0,2.1-0.1s1.3-0.3,1.7-0.6c0.5-0.3,0.9-0.7,1.3-1.3c0.3-0.6,0.5-1.3,0.5-2.2s-0.1-1.6-0.5-2.2
		c-0.3-0.6-0.7-1-1.3-1.3c-0.5-0.3-1-0.5-1.7-0.6s-1.4-0.1-2.1-0.1h-4.8v8.5L115.5,32.5L115.5,32.5z"/>
	<path d="M146.1,19.1c1.3,0,2.4,0.2,3.4,0.6c1,0.5,1.8,0.9,2.6,1.7c0.7,0.7,1.3,1.5,1.7,2.5c0.3,0.9,0.6,1.9,0.6,3
		c0,1.7-0.3,3.1-1,4.3c-0.7,1.3-1.8,2.2-3.4,2.7V34c0.8,0.2,1.4,0.6,1.9,0.9c0.5,0.5,0.9,0.9,1.3,1.6c0.3,0.6,0.6,1.3,0.7,1.9
		c0.1,0.7,0.2,1.4,0.3,2.2c0,0.5,0,1,0.1,1.6c0,0.6,0.1,1.3,0.1,1.8c0.1,0.7,0.2,1.3,0.3,1.8c0.1,0.6,0.3,1,0.7,1.5h-6.2
		c-0.3-0.9-0.6-1.9-0.7-3.2c-0.1-1.3-0.2-2.4-0.3-3.5c-0.2-1.5-0.7-2.5-1.4-3.2s-1.8-1-3.3-1h-6.1v11.1h-6.2V19.1H146.1L146.1,19.1z
		 M143.8,31.9c1.4,0,2.5-0.3,3.2-0.9c0.7-0.7,1-1.7,1-3.1s-0.3-2.4-1-3s-1.8-0.9-3.2-0.9h-6.9v8L143.8,31.9L143.8,31.9z"/>
	<path d="M159.1,27.6c0.7-1.8,1.6-3.4,2.7-4.7c1.1-1.4,2.6-2.4,4.3-3.2s3.7-1.1,5.8-1.1c2.2,0,4.1,0.3,5.8,1.1
		c1.7,0.8,3.2,1.8,4.3,3.2c1.1,1.4,2.1,3,2.7,4.7c0.7,1.8,0.9,3.8,0.9,5.8s-0.3,4-0.9,5.7c-0.7,1.8-1.6,3.3-2.7,4.7
		c-1.1,1.4-2.6,2.4-4.3,3.1c-1.7,0.8-3.7,1.1-5.8,1.1c-2.2,0-4.1-0.3-5.8-1.1s-3.2-1.8-4.3-3.1c-1.1-1.4-2.1-2.9-2.7-4.7
		c-0.7-1.8-0.9-3.7-0.9-5.7S158.4,29.3,159.1,27.6z M164.8,36.9c0.2,1.1,0.7,2.2,1.4,3c0.6,0.9,1.4,1.6,2.4,2.2
		c1,0.6,2.2,0.8,3.5,0.8c1.4,0,2.6-0.2,3.5-0.8c1-0.6,1.7-1.3,2.4-2.2c0.6-0.9,1-1.9,1.4-3c0.2-1.1,0.5-2.3,0.5-3.4
		s-0.1-2.4-0.5-3.7c-0.2-1.1-0.7-2.2-1.4-3.1c-0.6-0.9-1.4-1.6-2.4-2.2s-2.2-0.8-3.5-0.8c-1.4,0-2.6,0.2-3.5,0.8
		c-1,0.6-1.7,1.3-2.4,2.2c-0.6,0.9-1,1.9-1.4,3.1c-0.2,1.1-0.5,2.4-0.5,3.7C164.4,34.7,164.5,35.8,164.8,36.9z"/>
	<path d="M196.4,19.1l11.8,19h0.1v-19h5.8v28.2h-6.2l-11.8-18.9H196v18.9h-5.8V19.1H196.4L196.4,19.1z"/>
	<path d="M217.3,24.4v-5.3h23.1v5.3h-8.5v23h-6.2v-23C225.7,24.4,217.3,24.4,217.3,24.4z"/>
	<path d="M243.4,27.6c0.7-1.8,1.6-3.4,2.7-4.7c1.1-1.4,2.6-2.4,4.3-3.2s3.7-1.1,5.8-1.1c2.2,0,4.1,0.3,5.8,1.1
		c1.7,0.8,3.2,1.8,4.3,3.2c1.1,1.4,2.1,3,2.7,4.7c0.7,1.8,0.9,3.8,0.9,5.8s-0.3,4-0.9,5.7c-0.7,1.8-1.6,3.3-2.7,4.7
		s-2.6,2.4-4.3,3.1c-1.7,0.8-3.7,1.1-5.8,1.1c-2.2,0-4.1-0.3-5.8-1.1s-3.2-1.8-4.3-3.1c-1.1-1.4-2.1-2.9-2.7-4.7
		c-0.7-1.8-0.9-3.7-0.9-5.7S242.8,29.3,243.4,27.6z M249.1,36.9c0.2,1.1,0.7,2.2,1.4,3c0.6,0.9,1.4,1.6,2.4,2.2
		c1,0.6,2.2,0.8,3.5,0.8c1.4,0,2.6-0.2,3.5-0.8c1-0.6,1.7-1.3,2.4-2.2c0.6-0.9,1-1.9,1.4-3c0.2-1.1,0.5-2.3,0.5-3.4
		s-0.1-2.4-0.5-3.7c-0.2-1.1-0.7-2.2-1.4-3.1c-0.6-0.9-1.4-1.6-2.4-2.2s-2.2-0.8-3.5-0.8s-2.6,0.2-3.5,0.8c-1,0.6-1.7,1.3-2.4,2.2
		c-0.6,0.9-1,1.9-1.4,3.1c-0.2,1.1-0.5,2.4-0.5,3.7C248.6,34.7,248.7,35.8,249.1,36.9z"/>
</g>
</svg>
