<svg width="104" height="26" viewBox="0 0 104 26" fill="none" xmlns="http://www.w3.org/2000/svg">
<g clip-path="url(#clip0_424_171)">
<path d="M29.4702 0H3.84694C2.82667 0 1.84818 0.405301 1.12674 1.12674C0.405301 1.84818 0 2.82667 0 3.84694L0 22.1531C0 23.1733 0.405301 24.1518 1.12674 24.8733C1.84818 25.5947 2.82667 26 3.84694 26H22.6624C22.8853 25.7798 23.1002 25.5596 23.3018 25.3314C23.5545 25.0443 23.7885 24.7412 24.0022 24.4241C24.1791 24.1681 24.3318 23.8964 24.4586 23.6122C24.5544 23.4099 24.6103 23.191 24.6231 22.9676C24.6194 22.8415 24.5671 22.7217 24.4771 22.6333C24.3632 22.5111 24.2427 22.395 24.1163 22.2857C23.8391 22.0558 23.5817 21.8028 23.3469 21.5296C23.122 21.2569 23.0032 20.912 23.0127 20.5586C23.0104 20.2453 23.0718 19.9348 23.1931 19.6459C23.3091 19.3661 23.4816 19.1132 23.6998 18.9031C23.9228 18.6856 24.1859 18.5135 24.4745 18.3963C24.7928 18.2671 25.1338 18.203 25.4773 18.208C25.835 18.2078 26.1883 18.2866 26.512 18.4388C26.8459 18.5917 27.1475 18.8069 27.4008 19.0729C27.6683 19.3536 27.8791 19.6833 28.0216 20.0439C28.1772 20.4419 28.2547 20.8661 28.2498 21.2935C28.2498 22.1778 27.9235 23.1648 27.2708 24.2543C26.9046 24.8642 26.4959 25.4475 26.0478 26H29.4702C30.4905 26 31.469 25.5947 32.1904 24.8733C32.9118 24.1518 33.3171 23.1733 33.3171 22.1531V3.84694C33.3171 2.82667 32.9118 1.84818 32.1904 1.12674C31.469 0.405301 30.4905 0 29.4702 0V0ZM27.7961 10.9014C27.5141 11.4612 27.035 11.8968 26.451 12.1245C26.144 12.2438 25.8173 12.3041 25.488 12.3022C25.1664 12.3036 24.8476 12.2432 24.5488 12.1245C24.2535 12.0118 23.9831 11.8423 23.7529 11.6257C23.5354 11.4168 23.3558 11.1718 23.2222 10.9014C23.0879 10.6287 23.018 10.3287 23.018 10.0246C23.018 9.72053 23.0879 9.42053 23.2222 9.14775C23.3524 8.87458 23.5324 8.62806 23.7529 8.42082C23.9855 8.20939 24.2554 8.04297 24.5488 7.93C24.8476 7.81126 25.1664 7.75092 25.488 7.75224C26.1144 7.75494 26.72 7.97747 27.1992 8.38102C27.4376 8.57977 27.6349 8.82308 27.7802 9.09735C27.9222 9.37635 27.9975 9.68448 28.0003 9.99752C28.003 10.3106 27.9331 10.62 27.7961 10.9014Z" fill="#BC1E64"/>
<path d="M41.4779 11.4082C40.7895 11.2289 40.1401 10.924 39.5624 10.5088L40.4088 8.6304C40.9097 8.98925 41.4651 9.26516 42.0537 9.44754C42.6696 9.64906 43.3132 9.7529 43.9612 9.7553C44.5035 9.79133 45.0456 9.68236 45.5318 9.43958C45.6841 9.35862 45.8116 9.23792 45.9009 9.09031C45.9901 8.94271 46.0377 8.77369 46.0386 8.60122C46.0416 8.47831 46.0161 8.35639 45.964 8.24499C45.912 8.1336 45.8349 8.03577 45.7388 7.95918C45.5111 7.77461 45.2498 7.63587 44.9694 7.5506C44.6563 7.44979 44.2345 7.33571 43.7012 7.21367C43.0183 7.05851 42.3451 6.86362 41.6849 6.62999C41.1646 6.43523 40.7019 6.11218 40.3398 5.69081C39.9455 5.20533 39.7451 4.59093 39.7773 3.96632C39.7716 3.36225 39.9482 2.7705 40.2841 2.26836C40.6669 1.7264 41.1986 1.30708 41.8149 1.06122C42.6055 0.740775 43.4533 0.585482 44.3061 0.60489C44.9849 0.60388 45.6613 0.686753 46.3198 0.851625C46.9282 0.995973 47.5101 1.23501 48.0443 1.55999L47.2855 3.44897C46.3834 2.91173 45.356 2.6208 44.3061 2.6053C43.6092 2.6053 43.0937 2.7185 42.7594 2.94489C42.6059 3.03723 42.4791 3.16803 42.3916 3.32437C42.3041 3.48071 42.259 3.65718 42.2606 3.83632C42.2599 4.01608 42.3148 4.19167 42.4179 4.33893C42.521 4.4862 42.6672 4.59793 42.8363 4.65877C43.4035 4.89637 43.9939 5.07421 44.5979 5.18938C45.2811 5.34476 45.9544 5.54055 46.6143 5.77571C47.132 5.9664 47.5942 6.28274 47.9594 6.69632C48.3538 7.17554 48.5544 7.78509 48.5218 8.40489C48.5232 9.00778 48.3378 9.59631 47.9912 10.0896C47.6041 10.6328 47.0677 11.0521 46.4471 11.2967C45.6498 11.6154 44.7957 11.768 43.9373 11.7451C43.1057 11.7497 42.2777 11.6363 41.4779 11.4082Z" fill="white"/>
<path d="M58.561 9.551V11.5514H50.2225V0.795898H58.3674V2.79631H52.7004V5.13365H57.6988V7.07304H52.7004V9.551H58.561Z" fill="white"/>
<path d="M62.6919 11.0288C61.8259 10.5709 61.102 9.88459 60.5986 9.04431C60.0855 8.17574 59.822 7.18241 59.8372 6.1737C59.8221 5.16584 60.0855 4.17337 60.5986 3.30574C61.1027 2.46741 61.8266 1.78298 62.6919 1.32656C63.5431 0.896518 64.4766 0.654095 65.4295 0.61565C66.3824 0.577204 67.3325 0.743632 68.2155 1.1037C68.952 1.41753 69.6032 1.90226 70.1151 2.51778L68.5233 3.99554C68.194 3.59191 67.7775 3.26813 67.3051 3.04849C66.8328 2.82885 66.3168 2.71906 65.7959 2.72737C65.1734 2.71612 64.5588 2.86795 64.0131 3.16778C63.4976 3.45112 63.0734 3.87533 62.79 4.39084C62.4913 4.93698 62.3396 5.55131 62.3496 6.1737C62.3425 6.79792 62.4979 7.41325 62.8006 7.95921C63.0848 8.4741 63.5088 8.89811 64.0237 9.18227C64.5669 9.47825 65.1774 9.62903 65.7959 9.62002C66.3146 9.62651 66.828 9.515 67.2973 9.29392C67.7666 9.07284 68.1794 8.74799 68.5047 8.3439L70.0965 9.82166C69.5858 10.4457 68.9312 10.9364 68.189 11.2517C67.3857 11.5894 66.5213 11.7574 65.65 11.7451C64.6197 11.7566 63.6028 11.5104 62.6919 11.0288Z" fill="white"/>
<path d="M72.8929 10.4663C72.035 9.61556 71.607 8.40046 71.6088 6.821V0.795898H74.1V6.72814C74.1 8.6578 74.9003 9.62175 76.501 9.61998C76.8315 9.64199 77.1627 9.59061 77.4709 9.46952C77.7792 9.34842 78.0568 9.16062 78.2839 8.91957C78.6951 8.45529 78.8994 7.72304 78.8994 6.72814V0.795898H81.3614V6.821C81.3614 8.39869 80.9334 9.61379 80.0774 10.4663C79.2213 11.3188 78.0239 11.7451 76.4851 11.7451C74.9463 11.7451 73.7489 11.3188 72.8929 10.4663Z" fill="white"/>
<path d="M90.6843 11.5594L88.6122 8.55876H86.32V11.5594H83.8367V0.7959H88.4982C89.3502 0.776305 90.1967 0.938187 90.9814 1.2708C91.6379 1.55507 92.1975 2.02429 92.5918 2.62121C92.983 3.2421 93.1815 3.96496 93.1622 4.69855C93.1806 5.43065 92.9791 6.15145 92.5839 6.76794C92.1803 7.36128 91.611 7.82265 90.9469 8.09447L93.3612 11.5567L90.6843 11.5594ZM90.0529 3.3057C89.662 2.98202 89.0933 2.82019 88.3469 2.82019H86.3147V6.57427H88.3469C89.0951 6.57427 89.6637 6.41066 90.0529 6.08345C90.2494 5.91238 90.4044 5.69873 90.506 5.45875C90.6076 5.21877 90.6532 4.95878 90.6392 4.69855C90.6548 4.43697 90.6101 4.1753 90.5084 3.93378C90.4067 3.69225 90.2509 3.47735 90.0529 3.3057Z" fill="white"/>
<path d="M103.469 9.551V11.5514H95.1308V0.795898H103.27V2.79631H97.6088V5.13365H102.607V7.07304H97.6088V9.551H103.469Z" fill="white"/>
<path d="M40.4088 14.4407H42.9V25.2041H40.4088V14.4407Z" fill="white"/>
<path d="M52.5996 14.9181C53.2719 15.1971 53.8425 15.6755 54.2344 16.289C54.6263 16.9024 54.8205 17.6212 54.791 18.3485C54.8082 19.079 54.6108 19.7985 54.2233 20.4179C53.8283 21.02 53.2631 21.491 52.5996 21.771C51.814 22.1002 50.9679 22.2602 50.1163 22.2406H47.9461V25.204H45.4549V14.4406H50.1163C50.9687 14.4208 51.8154 14.5836 52.5996 14.9181ZM51.6843 19.7255C51.8809 19.5563 52.0358 19.344 52.137 19.1052C52.2382 18.8664 52.283 18.6075 52.268 18.3485C52.2841 18.0871 52.2399 17.8255 52.1386 17.584C52.0374 17.3425 51.882 17.1275 51.6843 16.9557C51.2943 16.632 50.7265 16.4728 49.9757 16.4728H47.9461V20.211H49.9757C50.7265 20.211 51.2943 20.0492 51.6843 19.7255Z" fill="white"/>
<path d="M64.7347 16.4729H61.2857V14.4407H70.6722V16.4729H67.2233V25.2041H64.7347V16.4729Z" fill="white"/>
<path d="M80.3612 23.209V25.2041H72.0226V14.4407H80.1622V16.449H74.5006V18.7864H79.499V20.7258H74.5006V23.217L80.3612 23.209Z" fill="white"/>
<path d="M84.492 24.6735C83.6261 24.2156 82.9022 23.5293 82.3988 22.689C81.8997 21.8151 81.6373 20.8261 81.6373 19.8197C81.6373 18.8133 81.8997 17.8244 82.3988 16.9504C82.9022 16.1101 83.6261 15.4238 84.492 14.9659C85.3438 14.5376 86.2772 14.2961 87.2298 14.2576C88.1824 14.2192 89.1322 14.3847 90.0157 14.7431C90.7518 15.0588 91.4028 15.5443 91.9153 16.1598L90.3235 17.6349C89.9953 17.2352 89.5815 16.9144 89.1126 16.6963C88.6437 16.4782 88.1318 16.3683 87.6147 16.3747C86.9925 16.3639 86.3782 16.5147 85.8318 16.8125C85.3133 17.0969 84.8863 17.5229 84.6008 18.0408C84.3115 18.5911 84.1603 19.2034 84.1603 19.825C84.1603 20.4467 84.3115 21.059 84.6008 21.6092C84.8842 22.1247 85.3084 22.5489 85.8239 22.8323C86.3696 23.1321 86.9842 23.2839 87.6067 23.2727C88.1256 23.2784 88.639 23.1663 89.1082 22.9448C89.5774 22.7233 89.9902 22.3982 90.3155 21.9939L91.9074 23.4716C91.3973 24.0964 90.7425 24.5873 89.9998 24.9016C89.1965 25.2394 88.3321 25.4074 87.4608 25.3951C86.4264 25.4071 85.4055 25.159 84.492 24.6735Z" fill="white"/>
<path d="M103.469 14.4407V25.2041H100.978V20.7948H96.0859V25.2041H93.592V14.4407H96.0859V18.6856H100.978V14.4407H103.469Z" fill="white"/>
</g>
<defs>
<clipPath id="clip0_424_171">
<rect width="103.469" height="26" fill="white"/>
</clipPath>
</defs>
</svg>
