<?xml version="1.0" encoding="utf-8"?>
<!-- Generator: Adobe Illustrator 26.5.0, SVG Export Plug-In . SVG Version: 6.00 Build 0)  -->
<svg version="1.1" id="Capa_1" xmlns="http://www.w3.org/2000/svg" xmlns:xlink="http://www.w3.org/1999/xlink" x="0px" y="0px"
	 viewBox="0 0 448 512" style="enable-background:new 0 0 448 512;" xml:space="preserve">
<style type="text/css">
	.st0{fill:#FFFFFF;}
</style>
<path class="st0" d="M365.1,157.2c11.7-11.7,11.7-30.7,0-42.5s-30.7-11.7-42.5,0L224,213.5l-98.8-98.6c-11.7-11.7-30.7-11.7-42.5,0
	s-11.7,30.7,0,42.5l98.8,98.6l-98.6,98.8c-11.7,11.7-11.7,30.7,0,42.5s30.7,11.7,42.5,0l98.6-98.8l98.8,98.7
	c11.7,11.7,30.7,11.7,42.5,0s11.7-30.7,0-42.5L266.5,256L365.1,157.2z"/>
</svg>
