<?xml version="1.0" encoding="utf-8"?>
<!-- Generator: Adobe Illustrator 26.5.0, SVG Export Plug-In . SVG Version: 6.00 Build 0)  -->
<svg version="1.1" id="Capa_1" xmlns="http://www.w3.org/2000/svg" xmlns:xlink="http://www.w3.org/1999/xlink" x="0px" y="0px"
	 viewBox="0 0 300 100" style="enable-background:new 0 0 300 100;" xml:space="preserve">
<style type="text/css">
	.st0{fill:#FFFFFF;stroke:#D8D8D8;stroke-miterlimit:10;}
	.st1{clip-path:url(#SVGID_00000026153567856207678220000016644506924468306830_);}
	.st2{fill:#261313;}
	.st3{fill:#004BC4;}
</style>
<path class="st0" d="M283.7,96.7H16.3c-5.5,0-9.9-4.4-9.9-9.9V13.2c0-5.5,4.4-9.9,9.9-9.9h267.5c5.5,0,9.9,4.4,9.9,9.9v73.7
	C293.6,92.3,289.2,96.7,283.7,96.7z"/>
<g>
	<g>
		<g>
			<g>
				<g>
					<defs>
						<rect id="SVGID_1_" x="35" y="18.6" width="230" height="62.7"/>
					</defs>
					<clipPath id="SVGID_00000097478123916160978370000000396045878405578401_">
						<use xlink:href="#SVGID_1_"  style="overflow:visible;"/>
					</clipPath>
					<g style="clip-path:url(#SVGID_00000097478123916160978370000000396045878405578401_);">
						<path class="st2" d="M99.2,25h6.5v17.6h11v5.1H99.2V25z"/>
						<path class="st2" d="M123.9,46.6c-1.9-0.9-3.5-2.4-4.6-4.2s-1.7-3.9-1.7-6s0.6-4.3,1.7-6c1.1-1.8,2.7-3.3,4.6-4.2
							c2-1,4.3-1.5,6.6-1.5s4.5,0.5,6.6,1.5c1.9,0.9,3.5,2.4,4.6,4.2c1.1,1.8,1.7,3.9,1.7,6s-0.5,4.2-1.7,6
							c-1.1,1.8-2.7,3.3-4.6,4.3c-2,1-4.3,1.5-6.6,1.5C128.2,48.2,126,47.6,123.9,46.6L123.9,46.6z M133.7,42
							c0.9-0.5,1.8-1.3,2.3-2.3c0.6-1,0.8-2.2,0.8-3.3c0-1.2-0.3-2.3-0.8-3.3c-0.5-0.9-1.3-1.8-2.3-2.3s-2.1-0.8-3.2-0.8
							s-2.2,0.3-3.2,0.8c-0.9,0.5-1.8,1.3-2.3,2.3c-0.6,1-0.8,2.2-0.8,3.3c0,1.2,0.3,2.3,0.8,3.3c0.5,0.9,1.3,1.8,2.3,2.3
							s2.1,0.8,3.2,0.8S132.7,42.6,133.7,42L133.7,42z"/>
						<path class="st2" d="M151.6,46.6c-1.8-0.9-3.4-2.4-4.5-4.2s-1.7-3.9-1.7-6.1s0.5-4.3,1.7-6.1c1.1-1.8,2.7-3.3,4.5-4.2
							c2-1,4.3-1.5,6.5-1.5c1.9,0,3.9,0.3,5.7,1.1c1.7,0.7,3.1,1.8,4.3,3.2l-4.2,3.7c-0.7-0.8-1.5-1.5-2.4-1.9s-2-0.7-3-0.7
							c-1.2,0-2.3,0.3-3.3,0.8s-1.8,1.3-2.3,2.3c-0.6,1-0.8,2.2-0.8,3.3s0.3,2.3,0.8,3.3c0.5,0.9,1.3,1.8,2.3,2.3
							c1,0.6,2.2,0.8,3.3,0.8s2.1-0.3,3-0.7s1.8-1.1,2.4-1.9l4.2,3.7c-1.1,1.4-2.6,2.5-4.3,3.2c-1.8,0.8-3.8,1.2-5.7,1.1
							C155.8,48.2,153.6,47.8,151.6,46.6L151.6,46.6z"/>
						<path class="st2" d="M179.5,39.5l-2.4,2.6v5.7h-6.4V25h6.4v9.4L186,25h7.2l-9.5,10l10,12.6h-7.5L179.5,39.5z"/>
						<path class="st2" d="M103.5,74.8c-1.5-0.3-3-1-4.3-1.8l2.2-4.7c2.3,1.4,4.9,2.2,7.6,2.2c2.5,0,3.8-0.6,3.8-1.8
							c0-0.3-0.1-0.7-0.3-0.9c-0.2-0.3-0.5-0.4-0.8-0.5c-1.1-0.4-2.3-0.8-3.4-1c-1.5-0.3-2.9-0.7-4.3-1.2c-1.2-0.4-2.2-1.1-3-2
							c-0.8-1.1-1.3-2.4-1.3-3.8c0-1.3,0.4-2.7,1.2-3.8c0.8-1.2,2.1-2.1,3.4-2.7c1.8-0.7,3.7-1,5.6-0.9c1.5,0,3,0.2,4.5,0.5
							c1.3,0.3,2.7,0.8,3.9,1.5l-2,4.8c-1.9-1.1-4.2-1.7-6.4-1.8c-1.3,0-2.3,0.2-2.8,0.6c-0.3,0.2-0.5,0.3-0.7,0.6s-0.3,0.6-0.3,0.8
							c0,0.3,0.1,0.6,0.3,0.8c0.2,0.3,0.4,0.4,0.8,0.5c1.1,0.4,2.3,0.8,3.4,0.9c1.5,0.3,2.9,0.7,4.3,1.2c1.2,0.4,2.2,1.1,3,2
							c0.9,1,1.3,2.3,1.3,3.8c0,1.3-0.4,2.6-1.2,3.7c-0.9,1.2-2.1,2.1-3.4,2.6c-1.8,0.7-3.7,1-5.6,1
							C107.2,75.4,105.3,75.2,103.5,74.8L103.5,74.8z"/>
						<path class="st2" d="M126.8,57.5h-7.1v-5h20.7v5h-7V75h-6.5L126.8,57.5L126.8,57.5z"/>
						<path class="st2" d="M147.6,73.9c-1.9-0.9-3.5-2.4-4.6-4.2c-1.1-1.8-1.7-3.9-1.7-6s0.6-4.2,1.7-6c1.1-1.8,2.7-3.3,4.6-4.2
							c2-1,4.3-1.5,6.6-1.5s4.5,0.5,6.6,1.5c1.9,0.9,3.5,2.4,4.6,4.2s1.7,3.9,1.7,6s-0.6,4.2-1.7,6c-1.1,1.8-2.7,3.3-4.6,4.2
							c-2,1-4.3,1.5-6.6,1.5C151.9,75.4,149.7,74.9,147.6,73.9L147.6,73.9z M157.4,69.3c0.9-0.5,1.8-1.3,2.3-2.3s0.8-2.2,0.8-3.3
							c0-1.1-0.3-2.3-0.8-3.3c-0.5-0.9-1.3-1.8-2.3-2.3s-2.1-0.8-3.2-0.8c-1.1,0-2.2,0.3-3.2,0.8c-0.9,0.5-1.8,1.3-2.3,2.3
							s-0.8,2.2-0.8,3.3c0,1.1,0.3,2.3,0.8,3.3c0.5,0.9,1.3,1.8,2.3,2.3s2.1,0.8,3.2,0.8C155.3,70.2,156.4,69.8,157.4,69.3
							L157.4,69.3z"/>
						<path class="st2" d="M180.5,69h-3.6v6h-6.5V52.5h10.5c1.8,0,3.8,0.3,5.4,1c1.5,0.6,2.7,1.6,3.6,2.9c0.8,1.3,1.3,2.8,1.3,4.4
							c0.1,1.5-0.3,3-1.2,4.3c-0.8,1.3-2,2.3-3.3,2.8l5,7.1h-7L180.5,69z M183.6,58.3c-0.7-0.6-1.7-0.8-3-0.8H177v6.7h3.6
							c1.3,0,2.3-0.3,3-0.8c0.3-0.3,0.6-0.7,0.8-1.1c0.2-0.4,0.3-0.9,0.3-1.3c0-0.5-0.1-0.9-0.3-1.3C184.3,59,184,58.6,183.6,58.3
							L183.6,58.3z"/>
						<path class="st2" d="M210.4,70.6h-9.8l-1.8,4.4h-6.7l10.2-22.6h6.4l10.2,22.7h-6.8L210.4,70.6z M208.5,65.9l-2.9-7.3l-2.9,7.3
							H208.5z"/>
						<path class="st2" d="M236,63.2h5.8v9.4c-1.4,0.9-2.9,1.7-4.5,2.1c-1.7,0.5-3.4,0.8-5.2,0.8c-2.3,0-4.5-0.5-6.5-1.5
							c-1.8-0.9-3.4-2.4-4.5-4.2c-1.1-1.8-1.7-3.9-1.7-6.1c0-2.2,0.6-4.3,1.7-6.1c1.1-1.8,2.7-3.3,4.6-4.2c2.1-1,4.3-1.5,6.7-1.5
							c2,0,3.9,0.3,5.8,1.1c1.7,0.7,3.1,1.8,4.3,3.1l-4.2,3.7c-0.7-0.8-1.6-1.4-2.5-1.8c-1-0.4-2-0.7-3.1-0.7
							c-0.8,0-1.8,0.1-2.6,0.4c-0.8,0.3-1.6,0.8-2.2,1.3c-0.6,0.6-1.1,1.3-1.4,2.2c-0.3,0.8-0.4,1.7-0.4,2.5c0,1.2,0.3,2.3,0.8,3.3
							s1.3,1.8,2.3,2.3c1,0.6,2.2,0.8,3.4,0.8s2.4-0.3,3.5-0.8L236,63.2L236,63.2z"/>
						<path class="st2" d="M264.5,70.1V75h-18.6V52.5H264v4.9h-11.6v3.8h10.3V66h-10.3v4.2L264.5,70.1L264.5,70.1z"/>
						<path class="st3" d="M73.4,47.2h-0.7v-14c0-1.9-0.4-3.8-1.2-5.6c-1.3-2.9-3.6-5.4-6.5-6.9s-6.2-1.9-9.5-1.3
							c-3.2,0.7-6.1,2.4-8.1,4.9s-3.2,5.6-3.2,8.9v11.2h-0.7c-2.1,0-4.1,0.8-5.5,2.3c-1.5,1.4-2.3,3.4-2.3,5.4v21.1
							c0,1,0.2,2,0.6,2.9s1,1.8,1.7,2.5c0.8,0.8,1.6,1.3,2.5,1.7c0.9,0.4,1.9,0.6,3,0.6h29.9c2.1,0,4.1-0.8,5.5-2.3
							c1.5-1.4,2.3-3.4,2.3-5.4V55c0-2-0.8-4-2.3-5.4C77.4,48,75.4,47.2,73.4,47.2L73.4,47.2z M49.9,33.2c0-1.1,0.3-2.2,0.7-3.3
							c0.4-1,1.1-1.9,1.8-2.8c0.8-0.8,1.8-1.4,2.8-1.8s2.2-0.7,3.3-0.7s2.3,0.3,3.3,0.7c1,0.4,2,1,2.8,1.8c0.8,0.8,1.4,1.7,1.8,2.8
							c0.4,1,0.7,2.1,0.7,3.3v14.1h-4.6c-0.8-0.8-1.7-1.6-2.7-2.1s-2.2-0.8-3.3-0.8H50L49.9,33.2L49.9,33.2z M72.6,68.7
							c0,1-0.4,2-1.2,2.8c-0.8,0.8-1.8,1.2-2.8,1.2H48.1c-1,0-2-0.4-2.8-1.2c-0.8-0.8-1.2-1.7-1.2-2.8v-13c0-0.3,0.1-0.8,0.3-1.1
							s0.3-0.7,0.6-0.9c0.3-0.3,0.6-0.5,0.9-0.6c0.3-0.2,0.8-0.3,1.1-0.3h5.7c0.8,0,1.5,0.3,2,0.8s0.8,1.3,0.8,2h13.1
							c1,0,2,0.4,2.8,1.2s1.2,1.7,1.2,2.8C72.6,59.5,72.6,68.7,72.6,68.7z"/>
					</g>
				</g>
			</g>
		</g>
	</g>
</g>
</svg>
