<?xml version="1.0" encoding="utf-8"?>
<!-- Generator: Adobe Illustrator 26.5.2, SVG Export Plug-In . SVG Version: 6.00 Build 0)  -->
<svg version="1.1" id="_x2014_ÎÓÈ_x5F_1" xmlns="http://www.w3.org/2000/svg" xmlns:xlink="http://www.w3.org/1999/xlink"
	 x="0px" y="0px" viewBox="0 0 2000 2000" style="enable-background:new 0 0 2000 2000;" xml:space="preserve">
<style type="text/css">
	.st0{fill:#EFEEFE;}
	.st1{fill:#6868E0;}
	.st2{fill:#C5C2F9;}
	.st3{fill:#8A8AFF;}
	.st4{fill:none;stroke:#C5C2F9;stroke-width:29.7442;stroke-linecap:round;stroke-linejoin:round;stroke-miterlimit:10;}
	.st5{fill:none;stroke:#6868E0;stroke-width:12.8274;stroke-miterlimit:10;}
	.st6{fill:#45B4AD;}
	.st7{fill:#F95F6A;}
	.st8{fill:none;stroke:#FFFFFF;stroke-width:20.5287;stroke-linecap:round;stroke-linejoin:round;stroke-miterlimit:10;}
	.st9{fill:#F9E0D2;}
	.st10{fill:#FFC5AE;}
	.st11{fill:#F6A19E;}
	.st12{fill:#F26D6D;}
	.st13{fill:#FB9C98;}
	.st14{fill:#191245;}
	.st15{fill:#653087;}
	.st16{fill:#8754AF;}
	.st17{fill:#D3D5FC;}
	.st18{fill:#BBB4F8;}
	.st19{fill:#EDA79B;}
	.st20{fill:#FFFFFF;}
	.st21{fill:none;stroke:#D3D5FC;stroke-width:28.8018;stroke-linecap:round;stroke-miterlimit:10;}
	.st22{fill:#F89F4F;}
	.st23{fill:#FDC854;}
	.st24{fill:none;stroke:#D3D5FC;stroke-width:35.5333;stroke-linecap:round;stroke-linejoin:round;stroke-miterlimit:10;}
	.st25{opacity:0.8;fill:#FFFFFF;enable-background:new    ;}
</style>
<g>
	<path class="st0" d="M1905.7,685c79.6,170.6,84.2,413-29.8,598.9C1536.1,1838.2,240.3,1730.8,59,1242.5
		c-89.5-241.2,103-547.7,256-700C771.7,88.1,1682.2,206.1,1905.7,685z"/>
	<g>
		<rect x="1145" y="1015.9" class="st1" width="687.9" height="707.2"/>
		<path class="st2" d="M1849.3,1382.7h-714.4c-14.9,0-27,14.5-27,32.2v120.2c0,17.8,12.1,32.2,27,32.2h714.4c14.9,0,27-14.5,27-32.2
			v-120.2C1876.3,1397.2,1864.2,1382.7,1849.3,1382.7z"/>
		<path class="st3" d="M1767.6,1551.8h-631.4c-8.4,0-15.2-6.8-15.2-15.2v-123c0-8.4,6.8-15.2,15.2-15.2h631.4
			c8.4,0,15.2,6.8,15.2,15.2v123C1782.8,1545,1776,1551.8,1767.6,1551.8z"/>
		<ellipse class="st1" cx="1816.1" cy="1515.9" rx="13.5" ry="13.5"/>
		<ellipse class="st1" cx="1815.1" cy="1437.4" rx="13.5" ry="13.5"/>
		<path class="st2" d="M1849.3,940.6h-714.4c-14.9,0-27,14.5-27,32.2V1093c0,17.8,12.1,32.2,27,32.2h714.4c14.9,0,27-14.5,27-32.2
			V972.9C1876.3,955.1,1864.2,940.6,1849.3,940.6z"/>
		<path class="st3" d="M1767.6,1109.7h-631.4c-8.4,0-15.2-6.8-15.2-15.2v-123c0-8.4,6.8-15.2,15.2-15.2h631.4
			c8.4,0,15.2,6.8,15.2,15.2v123C1782.8,1102.9,1776,1109.7,1767.6,1109.7z"/>
		<line class="st4" x1="1145" y1="1035" x2="1306.1" y2="1035"/>
		<line class="st4" x1="1370.7" y1="1035" x2="1531.9" y2="1035"/>
		<line class="st4" x1="1598.4" y1="1035" x2="1759.6" y2="1035"/>
		<ellipse class="st1" cx="1816.1" cy="1073.9" rx="13.5" ry="13.5"/>
		<circle class="st1" cx="1815.2" cy="995.5" r="13.5"/>
		<path class="st2" d="M1849.3,1161.6h-714.4c-14.9,0-27,14.5-27,32.2V1314c0,17.8,12.1,32.2,27,32.2h714.4c14.9,0,27-14.5,27-32.2
			v-120.2C1876.3,1176.1,1864.2,1161.6,1849.3,1161.6z"/>
		<path class="st3" d="M1767.6,1330.7h-631.4c-8.4,0-15.2-6.8-15.2-15.2v-123c0-8.4,6.8-15.2,15.2-15.2h631.4
			c8.4,0,15.2,6.8,15.2,15.2v123C1782.8,1323.9,1776,1330.7,1767.6,1330.7z"/>
		<ellipse class="st1" cx="1816.1" cy="1294.9" rx="13.5" ry="13.5"/>
		<circle class="st1" cx="1815.2" cy="1216.4" r="13.5"/>
		<path class="st5" d="M1815.2,1073.8h16.9c39.1,0,70.8,31.7,70.8,70.8l0,0c0,39.1-31.7,70.8-70.8,70.8h-16.9"/>
		<path class="st5" d="M1815.2,1295.9h16.9c39.1,0,70.8,31.7,70.8,70.8l0,0c0,39.1-31.7,70.8-70.8,70.8h-16.9"/>
		<ellipse class="st6" cx="1338.3" cy="1476.9" rx="15.4" ry="15.4"/>
		<circle class="st6" cx="1338.3" cy="1254" r="15.4"/>
		<circle class="st6" cx="1338.3" cy="1033" r="15.4"/>
		<ellipse class="st7" cx="1565.2" cy="1477" rx="15.4" ry="15.4"/>
		<circle class="st6" cx="1565.1" cy="1254" r="15.4"/>
		<circle class="st6" cx="1565.1" cy="1033" r="15.4"/>
		<line class="st4" x1="1145" y1="1254.1" x2="1306.1" y2="1254.1"/>
		<line class="st4" x1="1370.7" y1="1254.1" x2="1531.9" y2="1254.1"/>
		<line class="st4" x1="1598.4" y1="1254.1" x2="1759.6" y2="1254.1"/>
		<line class="st4" x1="1145" y1="1477" x2="1306.1" y2="1477"/>
		<line class="st4" x1="1370.7" y1="1477" x2="1531.9" y2="1477"/>
		<line class="st4" x1="1598.4" y1="1477" x2="1759.6" y2="1477"/>
	</g>
	<path class="st3" d="M900.8,659.7v-0.2c0-56.5-45.8-102.2-102.2-102.2l0,0c-23.5,0-45.1,7.9-62.3,21.2
		c-16.2-59.3-70.5-102.9-135-102.9H592c-70,0-127.9,51.3-138.3,118.4c-68,7.3-120.9,64.8-120.9,134.7l0,0
		c0,74.8,60.7,135.5,135.5,135.5h272.6v-0.4h149.8c56.5,0,102.2-45.8,102.2-102.2l0,0C992.8,708.4,952.5,664.8,900.8,659.7z"/>
	<polyline class="st8" points="734.8,740.9 734.8,770 590.4,770 590.4,740.9 	"/>
	<polyline class="st8" points="623.7,688 662.8,717 704.2,688 	"/>
	<line class="st8" x1="662.6" y1="714.6" x2="662.6" y2="622.8"/>
	<g>
		<path class="st9" d="M1245.2,1353.7c8.7-111.3,9.1-241.6-9-385.6c-6.7-53.1-15.3-103.3-25.2-150.5c-1.4-6.5-6.1-11.8-12.4-13.9
			c-57.4-19-114.7-37.9-172.1-56.9l-150,41.8c-18.9,81.4-35.7,173.8-46.8,275.9c-10.6,97.9-14.1,188.2-13.4,269
			c51.3,14.1,114.3,26.9,186.9,32.3C1099.2,1372.9,1181.9,1364.8,1245.2,1353.7z"/>
		<path class="st10" d="M1245.2,1353.7c8.7-111.3,9.1-241.6-9-385.6c-6.8-53.7-15.5-104.5-25.5-152.2c-1.1-5.4-0.9-25.5-6.1-27.2
			c-36.1-11.9-76.5-8.2-112.6-20.2c-23.1,17.6-31.2,41.7-12.5,74.6c55.1,96.7,26,373.8,4.7,525.3
			C1146.1,1367.8,1200.5,1361.5,1245.2,1353.7z"/>
		<path class="st11" d="M1203.7,788.5c0,0,171.5,102.5,183.4,472.2c0.5,14.7-11.5,26.7-26.2,26.4c-32.1-0.7-97.6-8.9-220.5-47.7
			l5.5-38.6l137.6-22.2c-15.8-43.4-30.8-91.6-43.6-144.5C1217.9,943.1,1207.7,859.8,1203.7,788.5z"/>
		<path class="st11" d="M874.1,788.6c0,0-174.2,104.1-183.7,481c-0.2,9.4,7.2,17.3,16.6,17.6c27.5,0.9,93.2-4.4,230.3-47.6
			l-5.5-38.6l-137.6-22.2c17.5-39.7,34.8-86.1,48.7-138.9C868.6,942.9,874.8,856.1,874.1,788.6z"/>
		<path class="st9" d="M860.8,1053.5c1.6-6.4,3.3-12.8,4.8-19.4c22.1-91.1,7-174.3,11-245.7c0,0-105.7,57-159.1,241.2L860.8,1053.5z
			"/>
		<path class="st10" d="M1219.7,1053.5c-1.6-6.4-3.3-12.8-4.8-19.4c-22.1-91.1-7-174.3-11-245.7c0,0,105.7,57,159.1,241.2
			L1219.7,1053.5z"/>
		<path class="st12" d="M1339.9,1172.6c-21.9-2.1-53.1,5.9-53.4,6s-0.6,0.1-1,0.1c-0.8,0-1.5-0.3-2.1-0.7c-0.5-1.4-1-2.8-1.5-4.2
			c0.4-1.2,1.3-2.2,2.7-2.6c1.3-0.3,32.8-8.5,56-6.2c2.1,0.2,3.6,2,3.4,4.1C1343.8,1171.3,1342,1172.8,1339.9,1172.6z"/>
		<path class="st12" d="M739.4,1165.1c23.3-2.2,54.7,5.9,56,6.2c0.6,0.2,1.2,0.5,1.7,0.9c-0.9,2.2-1.9,4.3-2.8,6.5
			c-0.2,0-0.5,0-0.7-0.1c-0.3-0.1-31.5-8.1-53.4-6c-2.1,0.2-3.9-1.3-4.1-3.4C735.8,1167.1,737.3,1165.3,739.4,1165.1z"/>
		<ellipse class="st13" cx="940.1" cy="588.2" rx="25.5" ry="25.5"/>
		<ellipse class="st12" cx="935.7" cy="588.2" rx="10" ry="14.3"/>
		<path class="st14" d="M985.2,465.5c-47.1,12.4-74.2,48.8-83.5,61.6c-58.8,81.1-34.9,187.6-31.5,201.6c95.3,0.2,190.7,0.4,286,0.7
			c31-69.1,23.3-150.9-19.2-206.1C1100.8,475.9,1041.1,450.7,985.2,465.5z"/>
		
			<ellipse transform="matrix(0.9225 -0.3859 0.3859 0.9225 -80.8498 470.2691)" class="st14" cx="1131" cy="436.5" rx="73" ry="65.2"/>
		<path class="st13" d="M974.7,724.2l-1-99.5l98.8-4.8l1.3,111.1c2.2,20.1,26.7,36,45.9,42.4l34.7,5.8c-3.6,30.7-35,106.4-65.1,111
			c-56.9,8.6-127.5-87.6-159.6-117.3l0,0C950.8,767,973.3,746.2,974.7,724.2z"/>
		<path class="st12" d="M1072.9,664.4l-0.5-44.4l-98.8,4.8l0.7,69.1c8.1,5.6,17.3,9.4,27.3,10.5
			C1029.4,707.5,1055.9,689.7,1072.9,664.4z"/>
		<path class="st13" d="M972.7,518.2c-3.6,2.6-30.6,22.7-37.4,57.6c-9,46.3,19.6,108.6,66.3,113.9c44.8,5,86.3-44.5,89.8-91.5
			c3.2-41.7-22.8-90.2-60.9-97.4C1003.7,495.8,980,512.9,972.7,518.2z"/>
		<ellipse class="st13" cx="1088.3" cy="588.2" rx="25.5" ry="25.5"/>
		<ellipse class="st12" cx="1097.7" cy="588.2" rx="10" ry="14.3"/>
		<path class="st14" d="M947,508.6c-10.9,27.6,52.1,74.2,58.4,78.8c53.8,39.1,136.8,58.8,157.4,30.5c15.2-20.8-5.2-64.8-28.8-89.7
			C1076.8,467.4,960,476.1,947,508.6z"/>
		<path class="st11" d="M900.3,1196.8c2.5,6.3,21.8,52.6,60.9,58.9c4.8,0.8,31.9,5.2,42.6-10.3c3.8-5.5,4.4-11.9,4.2-16.4
			c-6.1,0.1-14.8,0-25.2-1c-11.8-1.1-18.5-1.8-25.7-4.3c-6.2-2.2-17.9-7.7-28.9-22.6C918.9,1199.6,909.6,1198.2,900.3,1196.8z"/>
		<circle class="st11" cx="911.6" cy="1196.8" r="11.2"/>
		<path class="st11" d="M1193.8,1197.2c0,0,3.6,42.6-69.9,58.9s-42.8-23.2-42.8-23.2s16.1,2.7,80.7-31.5L1193.8,1197.2z"/>
		<circle class="st11" cx="1168.4" cy="1197.4" r="11.2"/>
		<path class="st11" d="M1084.8,1258.9c0,0-24-6.7-12.8-20.4c11.3-13.8,43.1-7.4,43.1-7.4l8.4,12.1l-5.1,7.8L1084.8,1258.9z"/>
		<rect x="593.1" y="1615" class="st15" width="728.7" height="106.5"/>
		<polygon class="st16" points="839.9,1505.4 534.4,1505.4 543.7,1402.3 839.9,1439.4 		"/>
		<path class="st15" d="M1387,1605.8c-46-85-105.9-192.3-152-277.3l-156.1,10c-0.2-2.8-0.3-5.7-0.5-8.5
			c-44.7,0.1-89.4,0.6-134.1,1.3c-41.8,0.7-83.6,1.6-125.4,2.9c-20.2,30.2-41.1,66.5-59.8,109c-37.1,84-52,161.2-58,219.3v0.3
			c-1.4,22.5,13.4,41.7,32.2,41.7c204.7-17,409.5-34.1,614.2-51.1C1360.6,1637.5,1373.8,1621.6,1387,1605.8z"/>
		<path class="st16" d="M1223.3,1617.4c-6.3-46-39.3-85.4-85.6-103.5c5.5-32.4,2.3-57.2-1.9-74.5c-7-28.4-19.3-45.3-12.8-67.2
			c4.4-14.9,15.3-25,24.2-31.4l-36.1-2.4c-0.2-2.8-0.3-5.7-0.6-8.5c-66,4.9-229.7-2.3-295.6,2.6c0,0-110.3,184.9-120.3,329.8
			c0,0.1,0,0.2,0,0.3c-1.5,22.5,14.9,41.7,35.6,41.7h472.2C1208.9,1694.5,1229.3,1661,1223.3,1617.4z"/>
		<path class="st9" d="M554.4,1729.8c20.9-3.6,31.3-10.8,34.6-13.3c7.6-5.6,17.5-13,18.5-23.3c2-21-34.1-38.6-42.7-42.8
			c-11.5-5.6-29.4-14.3-52.6-11.3c-18.1,2.4-52.1,13.6-55.4,37.5c-3.1,22.9,24.1,42.5,39.5,49.7
			C517.5,1736.1,537.8,1732.7,554.4,1729.8z"/>
		<g>
			<g>
				<g>
					<g>
						<polygon class="st17" points="1306.9,1487.7 759.2,1487.7 744.3,1106.6 1321.8,1106.6 						"/>
					</g>
					<ellipse class="st0" cx="1033.1" cy="1297.2" rx="45.9" ry="45.9"/>
				</g>
			</g>
			<rect x="758.3" y="1463.7" class="st18" width="548.6" height="24.1"/>
		</g>
		<path class="st19" d="M621.3,1678.4c-15.5-1-30.9-2-46.4-3c-1,0.6-8,4.7-9.7,13.5c-1.7,9.1,3.6,15.6,4.3,16.5
			c15.1,0.8,30.2,1.5,45.3,2.3C616.9,1698,619.1,1688.2,621.3,1678.4z"/>
		<path class="st15" d="M588.6,1670.3c-3,5.7-4.7,8.9-7.7,14.6c4.2,14.9,6.2,21.8,10.4,36.6c0,0,457-25.1,879.2-59.1
			c49.5-29.4,78.2-84.8,73.6-142.2c-0.2-2.1-0.4-4.2-0.6-6.3c-9.5-78.5-89.4-127.5-163.8-103.1
			C1116,1497.3,852.3,1583.8,588.6,1670.3z"/>
		<path class="st9" d="M1405.9,1738.9c-20.8-4.3-30.9-11.9-34.2-14.5c-7.4-5.9-17-13.6-17.6-24c-1.2-21,35.4-37.3,44.2-41.3
			c11.7-5.2,29.8-13.3,53-9.4c18,3,51.6,15.4,54,39.5c2.3,23-25.6,41.6-41.2,48.3C1442.5,1746.6,1422.4,1742.4,1405.9,1738.9z"/>
		<path class="st19" d="M1340.8,1685.2c15.5-0.4,31-0.9,46.4-1.3c1,0.6,7.8,4.9,9.2,13.8c1.4,9.1-4.1,15.5-4.8,16.3
			c-15.1,0.2-30.2,0.4-45.3,0.7C1344.5,1704.9,1342.7,1695,1340.8,1685.2z"/>
		<path class="st15" d="M1112.3,1692.4c-95.7-11.6-212.7-35.7-339.6-85.2c-61.4,17-122.8,34-184.1,51c-3.2,5.5-5.1,8.7-8.4,14.2
			c3.5,15,7,30.1,10.5,45.1c0,0,230.4-6,515.7-14.5C1108.5,1699.4,1110.5,1695.9,1112.3,1692.4z"/>
		<path class="st15" d="M1361.1,1681c0.4-5.4,0.5-10.6,0.4-15.6c-49.1-18.1-110-40-181.4-64.5c-63.2-21.7-124.2-41.2-243.6-79.4
			c-188.5-60.3-282.9-90.1-291.6-76.8c-9.1,14,9.6,55.1,151.5,182.8c176.4,31.3,368.2,65.1,556.8,98.1
			C1357.1,1712.4,1360,1697.5,1361.1,1681z"/>
		<path class="st16" d="M1369.7,1670.5L555.4,1405c-15-5.1-31.5-4.2-45.7,2.8c-40.9,20.2-69.8,60-75.2,106.1
			c-5.2,44,11.7,87.6,44.1,117.1c9.6,8.7,21.6,14.1,34.4,15.5c191.1,20.1,364.5,50.4,556,64.7c168.2,12.6,293.4,12.4,293.4,12.4
			L1369.7,1670.5z"/>
		<path class="st20" d="M1036.9,631.2c0,17.2-13.9,31.1-31.1,31.1c-17.2,0-31.1-13.9-31.1-31.1"/>
	</g>
	<line class="st21" x1="139.6" y1="1732" x2="1855.4" y2="1732"/>
	<g>
		<path class="st17" d="M338.2,1438.5c3.5-7.7,7.1-19.1,5.7-32.2c-2.2-20.3-14.7-27.8-18.3-44.8c-2.4-11.3-1.2-27.9,15.1-51.1
			c-5,11.9-10.1,29.5-3.8,46.7c5,13.5,13.4,17,17,29C357.1,1396.3,356.8,1412.8,338.2,1438.5z"/>
		<path class="st17" d="M287.1,1416.6c10.4,12.9,14.2,24.8,14.6,35.1c0.7,18.4-9.5,27.1-10.3,47c-0.5,14.1,4,26.9,10.3,37.8
			c-0.7-10.7-0.5-26.2,4.3-43.8c5.4-20,12.6-27.3,11.1-39.9C316,1443.4,309.9,1430.5,287.1,1416.6z"/>
		<path class="st17" d="M379.9,1546.5c1.5-14.3-8.2-21.7-10.8-38.5c-1.3-8.3-1.2-21,7.1-38c-18.2,13.3-22,24.3-22.1,31.8
			c-0.2,13.1,10.5,19.2,14.1,37.1c2.7,13.3,0,25-2.6,32.7C371.2,1566.5,378.7,1557.9,379.9,1546.5z"/>
		<g>
			<path class="st7" d="M272.6,1701.4c-23.8,0-43.2-19.4-43.2-43.2c0-23.8,19.4-43.2,43.2-43.2s43.2,19.4,43.2,43.2
				C315.8,1682,296.4,1701.4,272.6,1701.4z M272.6,1629.1c-16,0-29.1,13-29.1,29.1c0,16,13,29.1,29.1,29.1c16,0,29.1-13,29.1-29.1
				C301.7,1642.2,288.7,1629.1,272.6,1629.1z"/>
		</g>
		<g>
			<rect x="272.6" y="1594" class="st7" width="121.4" height="128.4"/>
		</g>
	</g>
	<g>
		<rect x="304.4" y="1030" class="st22" width="351.3" height="40.5"/>
		<path class="st22" d="M417.4,1065.9h-160v-54.5c0-3.4,2.8-6.2,6.2-6.2h147.5c3.4,0,6.2,2.8,6.2,6.2L417.4,1065.9L417.4,1065.9z"/>
		<rect x="270.9" y="1045.2" class="st0" width="371.8" height="20.7"/>
		<rect x="279.6" y="1054.4" class="st20" width="371.8" height="11.5"/>
		<polygon class="st23" points="655.7,1316.6 257.4,1316.6 250.1,1065.9 663,1065.9 		"/>
	</g>
	<g>
		<path class="st22" d="M459.1,1227.5c0.9-4.5,1.2-9,1-13.5l16.2-7.6l-7.7-22.9l-17.5,3.7c-2.5-3.7-5.4-7.1-8.8-10.2l6.1-16.8
			l-21.6-10.8l-9.8,14.9c-4.5-0.9-9-1.2-13.4-1l-7.6-16.2l-22.9,7.7l3.6,17.5c-3.7,2.5-7.2,5.5-10.2,8.9l-16.8-6.1l-10.8,21.6
			l14.9,9.8c-0.9,4.3-1.2,8.6-1,12.9l-16.3,7.6l7.7,22.9l17.3-3.6c2.5,3.9,5.6,7.5,9.2,10.7l-6.1,16.8l21.6,10.8l9.8-14.9
			c4.5,0.9,9,1.2,13.4,1l7.6,16.2l22.9-7.7l-3.6-17.5c3.7-2.5,7.2-5.4,10.2-8.9l16.8,6.1l10.8-21.6L459.1,1227.5z M420.4,1227.2
			c-5.6,7.8-16.5,9.6-24.3,3.9c-7.8-5.6-9.6-16.5-3.9-24.3c5.6-7.8,16.5-9.6,24.3-3.9C424.3,1208.5,426.1,1219.4,420.4,1227.2z"/>
		<path class="st22" d="M561.7,1163.7c1-3.6,1.5-7.2,1.5-10.8l13.5-5.2l-4.9-19l-14.4,2c-1.8-3.1-4-6.1-6.6-8.7l5.8-13.2l-16.9-9.9
			l-8.7,11.5c-3.6-1-7.2-1.5-10.8-1.5l-5.2-13.5l-19,4.9l2,14.3c-3.2,1.8-6.1,4-8.8,6.6l-13.2-5.8l-9.9,16.9l11.5,8.7
			c-0.9,3.4-1.4,6.9-1.5,10.3l-13.6,5.3l4.9,19l14.2-2c1.8,3.3,4.1,6.4,6.8,9.2l-5.8,13.2l16.9,9.9l8.7-11.5c3.6,1,7.2,1.5,10.8,1.5
			l5.2,13.5l19-4.9l-2-14.4c3.1-1.8,6.1-4,8.7-6.6l13.2,5.8l9.9-16.9L561.7,1163.7z M530.5,1161.3c-5,6-13.8,6.8-19.8,1.8
			s-6.8-13.8-1.8-19.8s13.8-6.8,19.8-1.8C534.7,1146.4,535.5,1155.3,530.5,1161.3z"/>
	</g>
	<g>
		<g>
			<path class="st24" d="M1561,807c-16-20.3-40.9-33.4-68.8-33.4s-52.8,13.1-68.8,33.4"/>
			<path class="st24" d="M1608.9,758c-28.6-32.3-70.3-52.6-116.8-52.6s-88.2,20.4-116.8,52.6"/>
			<path class="st24" d="M1657.1,708.7c-41.1-44.4-99.8-72.2-165-72.2s-124,27.8-165,72.2"/>
		</g>
	</g>
	<circle class="st17" cx="1492.1" cy="856" r="28"/>
</g>
<polygon class="st25" points="2009.4,2007.7 -9.4,2007.3 -9.4,-7.7 2009.4,-7.7 "/>
</svg>
