<?xml version="1.0" encoding="utf-8"?>
<!-- Generator: Adobe Illustrator 26.5.2, SVG Export Plug-In . SVG Version: 6.00 Build 0)  -->
<svg version="1.1" id="_x2014_ÎÓÈ_x5F_1" xmlns="http://www.w3.org/2000/svg" xmlns:xlink="http://www.w3.org/1999/xlink"
	 x="0px" y="0px" viewBox="0 0 2000 2000" style="enable-background:new 0 0 2000 2000;" xml:space="preserve">
<style type="text/css">
	.st0{fill:#BBB4F8;}
	.st1{fill:#D3D5FC;}
	.st2{fill:#FFFFFF;}
	.st3{fill:#9087F4;}
	.st4{fill:#4463CD;}
	.st5{fill:#EFEEFE;}
	.st6{fill:none;stroke:#8754AF;stroke-width:3.531;stroke-miterlimit:10;}
	.st7{fill:none;stroke:#8754AF;stroke-width:10;stroke-linecap:round;stroke-miterlimit:10;}
	.st8{fill:#F6A19E;}
	.st9{fill:#2E3192;}
	.st10{fill:#FB9C98;}
	.st11{fill:none;stroke:#E1EEF7;stroke-width:4.0825;stroke-miterlimit:10;}
	.st12{fill:#F95F6A;}
	.st13{fill:#F26D6D;}
	.st14{opacity:0.8;fill:#FFFFFF;enable-background:new    ;}
</style>
<g>
	<path class="st0" d="M330.4,1642.7c-161.5-200.2-166.2-304.8-139.3-363.6c27-58.9,79.9-59.1,113.3-134.6
		c42.5-96-19.2-149.8-4.7-271.5c12.4-104.3,78.5-239.3,184.1-278.6c126.1-46.9,204,81.7,325.8,35.4
		c118.8-45.1,88.5-184.3,224.3-250.2c100.1-48.6,242.5-34.3,309.3,37.8c49.5,53.4,25.6,104.1,75.5,181.8
		c63.9,99.3,155,64.7,191.2,134.6c52.7,101.7-107.3,199.8-73.2,349.4c25.3,110.9,126.8,116.3,179.4,240.8
		c47.3,111.9,18.2,232.6-16.5,321.1C1243.2,1644.3,786.8,1643.5,330.4,1642.7z"/>
	<path class="st1" d="M1472.6,1305.5H468.4c-41.6,0-75.4-33.8-75.4-75.4V540.6h1155v689.5C1548,1271.7,1514.3,1305.5,1472.6,1305.5z
		"/>
	<path class="st2" d="M710.9,1216h541c6.2,0,11.2-5,11.2-11.2v-102.7c0-6.2-5-11.2-11.2-11.2h-541c-6.2,0-11.2,5-11.2,11.2v102.7
		C699.7,1210.9,704.7,1216,710.9,1216z"/>
	<path class="st2" d="M710.9,1063.7h541c6.2,0,11.2-5,11.2-11.2V949.8c0-6.2-5-11.2-11.2-11.2h-541c-6.2,0-11.2,5-11.2,11.2v102.7
		C699.7,1058.7,704.7,1063.7,710.9,1063.7z"/>
	<circle class="st3" cx="1009.1" cy="1153.4" r="17.6"/>
	<circle class="st3" cx="948.1" cy="1153.4" r="17.6"/>
	<circle class="st3" cx="887.2" cy="1153.4" r="17.6"/>
	<circle class="st3" cx="826.2" cy="1153.4" r="17.6"/>
	<circle class="st3" cx="765.3" cy="1153.4" r="17.6"/>
	<path class="st3" d="M1146.9,983.6H753.7c-3.3,0-6,2.7-6,6v23c0,3.3,2.7,6,6,6h393.2c3.3,0,6-2.7,6-6v-23
		C1152.9,986.3,1150.2,983.6,1146.9,983.6z"/>
	<path class="st4" d="M1494.6,454.3H446.5c-29.5,0-53.4,23.9-53.4,53.4v33.2h1155v-33.2C1548,478.2,1524.1,454.3,1494.6,454.3z"/>
	
		<ellipse transform="matrix(0.999 -4.363827e-02 4.363827e-02 0.999 -20.299 65.2543)" class="st5" cx="1484.5" cy="497.6" rx="15.1" ry="15.1"/>
	
		<ellipse transform="matrix(0.9994 -3.459947e-02 3.459947e-02 0.9994 -16.3645 49.4846)" class="st5" cx="1421.6" cy="497.6" rx="15.1" ry="15.1"/>
	
		<ellipse transform="matrix(0.9993 -3.716625e-02 3.716625e-02 0.9993 -17.5541 50.8422)" class="st5" cx="1358.7" cy="497.6" rx="15.1" ry="15.1"/>
	<path class="st6" d="M1444,1542.9c-3.9-11.7-20.9-66.9,9.3-114.1c18.1-28.3,54.7-56.2,73.5-46.1c18.3,9.8,15.3,53.4,4.7,81.8
		C1511.6,1517.7,1457.2,1538.3,1444,1542.9z"/>
	<path class="st6" d="M1343.4,1646.8c0,0,58.5-43.2,100.5-103.9c42-60.7,63.3-119.1,63.3-119.1"/>
	<path class="st6" d="M1471.3,1499.6c10-4.2,19.9-8.4,29.9-12.6"/>
	<path class="st6" d="M1492.9,1456.4c-2.3-9.1-4.7-18.1-7-27.2"/>
	<path class="st5" d="M1384,1452.4c13.9-11.5,77.4-66.3,76.6-147.7c-0.5-48.8-24-111.5-54.9-113.6c-30.1-2.1-60.2,54-69,97.1
		C1320,1369,1371.2,1436.5,1384,1452.4z"/>
	<path class="st6" d="M1404.9,1251.3c0,0-2.8,102.5-20.9,201.1c-18.1,98.5-38.2,194-38.2,194"/>
	<path class="st6" d="M1396.6,1363c-8.3-18.3-16.6-36.7-24.9-55"/>
	<path class="st6" d="M1402,1305.6c1.6-6.1,6.2-11,10.6-15.6c4.8-4.9,9.5-9.9,14.3-14.8"/>
	<line class="st7" x1="526.7" y1="1643.8" x2="195.7" y2="1643.8"/>
	<line class="st7" x1="1816.3" y1="1643.8" x2="580" y2="1643.8"/>
	
		<ellipse transform="matrix(1 -4.555985e-03 4.555985e-03 1 -3.3321 4.4062)" class="st5" cx="965.4" cy="733.6" rx="144.6" ry="144.6"/>
	
		<ellipse transform="matrix(1 -4.555985e-03 4.555985e-03 1 -3.3321 4.4062)" class="st2" cx="965.4" cy="733.6" rx="144.6" ry="144.6"/>
	<path class="st3" d="M965.4,878.2c50.4,0,94.8-25.8,120.7-65c-23.2-42.9-68.5-72.1-120.7-72.1c-52.2,0-97.6,29.2-120.7,72.1
		C870.6,852.3,915,878.2,965.4,878.2z"/>
	
		<ellipse transform="matrix(0.9999 -1.182223e-02 1.182223e-02 0.9999 -7.8678 11.4607)" class="st3" cx="965.4" cy="671.2" rx="55.7" ry="55.7"/>
	<path class="st4" d="M422.7,975.1c3.4,0.1,13.2,36.1,14.4,40c5.4,17.4,12.2,48.4,13.4,55.2c6.6,36-11,247.5-59.9,534.7l-16.5-0.9
		c-10.9-163-21.8-326-32.8-489c2-47.5,4-94.9,6-142.4C347.3,972.7,422.7,975.1,422.7,975.1z"/>
	
		<rect x="371" y="1614.4" transform="matrix(-1 -1.224647e-16 1.224647e-16 -1 763.0119 3233.8391)" class="st8" width="21" height="5.1"/>
	<path class="st9" d="M371.1,1614.4c0,0-9.1,8.8,0,17.9h54.3c0.3-1.1,1.4-6.3-1.7-11.6c0,0-0.1-0.1-0.1-0.1c-2.4-4-6.9-6.2-11.6-6.2
		h-22C390,1614.4,380.6,1619.9,371.1,1614.4z"/>
	<rect x="369.5" y="1632.3" class="st1" width="57.4" height="5.8"/>
	<polygon class="st10" points="389.7,1604.8 389.1,1614.4 374.5,1614.4 374.5,1604.2 	"/>
	<path class="st11" d="M402,1614.9c0.9,1.4,1.8,2.8,2.7,4.3"/>
	<path class="st11" d="M396.8,1615.3c0.8,1.5,1.5,3,2.3,4.5"/>
	<path class="st12" d="M215.3,925c-18.1-20.9-32.4-55.4-18.6-77.2c13.3-21,41-12.1,53.5-33c12.6-21.2-10.3-39.6-6.9-68.6
		c5.4-46.7,75.6-89.9,119.8-70c23.6,10.6,42.1,40.2,38.7,63.2c-4.1,27.5-36.8,27-42.7,56.7c-5.7,28.6,21.8,43,13.1,64
		c-10.5,25.3-54.1,14-68.1,41c-12.6,24.4,14.5,49.8,2,60.5C292.2,973.4,242.5,956.3,215.3,925z"/>
	<path class="st4" d="M268.8,1000.1c0,0-60.8,68.7-36.5,218.5c24.2,149.8,59.4,386.4,59.4,386.4l16.5-0.9l33.9-481.7
		c0,0,21.3-41.7,22.6-126.6L268.8,1000.1z"/>
	<path class="st13" d="M600.5,972.6c1.3-0.1,2.7-0.2,4-0.3c1.5-0.1,3-0.2,4.4-0.2c3.7,3.8,9.6,5.6,14.9,5.1c2.2-0.2,4.2-0.8,6.3-1.4
		c0.8-0.2,1.6-0.6,2.8-1c2.2-0.9,4.1-1.7,4.7-1.9c3.4-1.5,10.2-4.6,11.1-9.8c0.1-0.5,1.1-2.9-0.2-3.2c-8.7-1.8-20.3-2.7-27.9-2.4
		c-0.4-2-0.2-3.9,1.2-5.4c0.9-0.9,1.9-1.5,2.9-2.2c1-0.7,2-1.6,2.3-2.8c0.4-1.2-0.1-2.7-1.2-3.2c-1.3-0.5-2.7,0.4-3.7,1.2
		c-1.8,1.4-3.7,2.9-5.5,4.3c-1.6,1.3-3.3,2.6-4.5,4.4c-0.6,0.9-1.1,1.8-1.9,2.4c-0.8,0.5-1.7,0.5-2.6,0.5c-2.4,0.1-4.8,0.2-7.1,0.2
		C600.4,962.1,600.5,967.4,600.5,972.6z"/>
	<path class="st0" d="M372.2,832.7c0,0,18.7,82.5,48.7,124c28.6,39.6,180.7,16.4,180.7,16.4l-0.1-16.8c0,0-69.6-19.6-139.2-22.3
		c0,0-19.2-64.7-46-119c-4.9-9.9-18.2-11.7-25.5-3.4L372.2,832.7z"/>
	<path class="st1" d="M431.6,1013.9c-10.3-67.6-5.6-118.4-2-148.9c0.8-6.6-1.8-21.2-4.3-39.7c-1.9-14.3-11.5-26.4-25-31.5
		c-16.1-6.1-32.1-12.3-48.2-18.4l-38.4,8.8c-9,2.1-17.1,6.9-23,14c0,0-0.1,0.1-0.1,0.2c-13.7,16.5-9.3,114.6-9.3,114.6
		c0.9,19.9-0.5,49-12.2,85.3c16.7,6.5,38,13.1,63.1,17C367.8,1020.8,409.4,1017.1,431.6,1013.9z"/>
	<path class="st10" d="M333.5,767.9l1.2-32.8l32.6-0.1l-1.3,36.7c0.4,6.7,8.3,12.3,14.5,14.7l11.3,4.3c3.1,19.2,5.7,43.8-2.2,47
		c-4.7,1.9-11.1-4.5-20.8-13.3c-11.4-10.3-28.2-24.7-50.9-41.1l0,0C325,781.6,332.7,775.1,333.5,767.9z"/>
	<path class="st13" d="M361.6,766c1.6-0.1,3.1-0.4,4.6-0.9l1-30.1l-32.6,0.1l-0.2,6.5C337.8,754.7,349,766.8,361.6,766z"/>
	<path class="st10" d="M368.9,701.4c1.1,0.9,9.7,8,11.5,19.6c2.3,15.4-8.1,35.5-23.6,36.6c-14.8,1-27.8-16-28.3-31.5
		c-0.4-13.8,8.9-29.4,21.6-31.2C359,693.5,366.6,699.5,368.9,701.4z"/>
	<path class="st12" d="M369.4,684.9c3.8,5.8-0.6,15.7-5.2,21.2c-11.4,13.5-36.1,14.5-41.3,6.1c-3.8-6.1,2.3-17.1,8.6-23
		C343,678.1,364,676.7,369.4,684.9z"/>
	<path class="st0" d="M332,1015.6c35.8,5.5,77.3,1.5,99.5-1.7c-1-19.3-3.6-23.8-9.3-37.3c-14.3-6.4-76.7-20.5-87.2-24.3
		c-12.5-4.5-2.5-54.8-12.4-60.9c-7.7-4.7-24.4-33.7-42.1-25.4c-0.4,25,0.6,47.2,0.6,47.2c0.9,19.9-0.5,49-12.2,85.3
		C285.6,1005.1,306.9,1011.7,332,1015.6z"/>
	<path class="st10" d="M320.7,722.8c-0.2-4,2.9-7.3,6.9-7.5c4-0.2,7.3,2.9,7.5,6.9c0.2,4-2.9,7.3-6.9,7.5
		C324.2,729.9,320.8,726.8,320.7,722.8z"/>
	
		<ellipse transform="matrix(3.708105e-02 -0.9993 0.9993 3.708105e-02 -416.2962 1024.4999)" class="st5" cx="323.5" cy="728.3" rx="2.9" ry="2.9"/>
	<path class="st4" d="M358.8,1001.8l87.1,0.2l164.4-163.5c1.7-1.7,4.1-2.7,6.5-2.7l140.3,0.4c8.1,0,12.2,9.7,6.6,15.5l-159.2,164.7
		l-245.6-0.6L358.8,1001.8z"/>
	<path class="st4" d="M604.4,1016.3l-245.6-0.6l0-13.9l87.1,0.2l164.4-163.5c1.7-1.7,4.1-2.7,6.5-2.7l7.7,0l-2.5,162.3L604.4,1016.3
		z"/>
	<path class="st2" d="M610.1,923.1c8.2-11.5,21.2-16.2,29-10.7c7.8,5.6,7.4,19.4-0.9,30.8c-8.2,11.5-21.2,16.2-29,10.7
		C601.5,948.3,601.9,934.5,610.1,923.1z"/>
	<path class="st10" d="M481.8,1011c-2.3-2.1-2.6-6.7,0.5-10.1c0.7-0.2,1.4-0.5,2.3-0.8c0,0,3.4-1,6.9-1.6c7.6-1.1,16.2,0.3,16.2,0.3
		c8.6,1.4,15.5,2.6,16.3,6.1c0.9,4-6.1,9.6-12.6,11.6c-11.2,3.6-21.6-3.4-23.6-4.7C487.5,1012,484,1013,481.8,1011z"/>
	<rect x="289.8" y="1614.4" class="st8" width="21" height="5.1"/>
	<path class="st9" d="M310.7,1614.4c0,0,9.1,8.8,0,17.9h-54.3c-0.3-1.1-1.4-6.3,1.7-11.6c0,0,0.1-0.1,0.1-0.1
		c2.4-4,6.9-6.2,11.6-6.2h22C291.8,1614.4,301.2,1619.9,310.7,1614.4z"/>
	
		<rect x="254.9" y="1632.3" transform="matrix(-1 -1.224647e-16 1.224647e-16 -1 567.2688 3270.3513)" class="st1" width="57.4" height="5.8"/>
	<polygon class="st10" points="292.1,1604.8 292.7,1614.4 307.3,1614.4 307.3,1604.2 	"/>
	<path class="st11" d="M279.9,1614.9c-0.9,1.4-1.8,2.8-2.7,4.3"/>
	<path class="st11" d="M285,1615.3c-0.8,1.5-1.5,3-2.3,4.5"/>
	<path class="st0" d="M322.1,793.9c-17.3-6.3-35.8-5.6-36.4,12.9c-1.5,41.1-2.1,115.7,13.4,142.6c21.4,37.4,175.5,57.1,175.5,57.1
		l5.3-5l-134.4-69.4c0,0-3.2-130.7-22.7-137.9C322.4,794.1,322.2,794,322.1,793.9z"/>
	<path class="st1" d="M317.3,789.2c-17.3-6.3-35.8,6.2-36.4,24.7c-1.5,41.1-2.1,118.1,13.4,145c21.4,37.4,187.7,51.5,187.7,51.5
		l1.4-10l-146.6-60.7c0,0,0.7-142.9-18.8-150.2C317.7,789.4,317.5,789.3,317.3,789.2z"/>
</g>
<polygon class="st14" points="2009.4,2007.7 -9.4,2007.3 -9.4,-7.7 2009.4,-7.7 "/>
</svg>
