<svg width="492" height="492" viewBox="0 0 492 492" fill="none" xmlns="http://www.w3.org/2000/svg">
<mask id="mask0_424_136" style="mask-type:alpha" maskUnits="userSpaceOnUse" x="0" y="0" width="493" height="492">
<path d="M0.000183105 0L492 4.395e-05L492 492L1.47293e-05 492L0.000183105 0Z" fill="white"/>
</mask>
<g mask="url(#mask0_424_136)">
<path d="M0.000183105 -187L492 -187L492 492L-4.92674e-05 492L0.000183105 -187Z" fill="white"/>
<path d="M-216 -0.725708L492 -0.725645L492 492L276 492C4.27608 492 -216 270.998 -216 -0.725708Z" fill="#4B4E6F"/>
<path d="M-108 -0.725708L492 -0.725654L492 492L384 492C112.276 492 -108 270.998 -108 -0.725708Z" fill="#363A57"/>
<path d="M0.000366211 -187L492.001 -187L492 492C220.276 492 0.000209223 271.724 0.000302214 -3.05176e-05L0.000366211 -187Z" fill="#31344E"/>
</g>
</svg>
