<?xml version="1.0" encoding="utf-8"?>
<!-- Generator: Adobe Illustrator 26.5.1, SVG Export Plug-In . SVG Version: 6.00 Build 0)  -->
<svg version="1.1" id="Capa_1" xmlns="http://www.w3.org/2000/svg" xmlns:xlink="http://www.w3.org/1999/xlink" x="0px" y="0px"
	 viewBox="0 0 711 585" style="enable-background:new 0 0 711 585;" xml:space="preserve">
<style type="text/css">
	.st0{clip-path:url(#SVGID_00000052809501163973955100000010434603040973555854_);}
	.st1{fill:#F8F7FE;}
	.st2{fill:#EDEDF9;}
	.st3{fill:#E2E2F7;}
	.st4{fill:#B2B2ED;}
	.st5{fill:#A0A0EA;}
	.st6{fill:#8C8CDD;}
	.st7{fill:#FFFFFF;}
	.st8{fill:#6F6FD8;}
	.st9{fill:#3D5586;}
	.st10{fill:#A4D6FF;}
	.st11{fill:#88CEFC;}
	.st12{fill:#F4F4F9;}
	.st13{fill:#3845B8;}
	.st14{fill:#0F2251;}
	.st15{fill:#283AA3;}
	.st16{fill:#FCB81F;}
	.st17{fill:#081C5E;}
	.st18{fill:#FFC83E;}
	.st19{fill:#F4A811;}
	.st20{fill:#EB8E6C;}
	.st21{fill:#FFD147;}
	.st22{fill:#C36252;}
	.st23{fill:#071849;}
	.st24{fill:#0E2C77;}
	.st25{fill:#0E1647;}
	.st26{fill:#15328C;}
	.st27{fill:#0B2B7C;}
	.st28{fill:#23479E;}
	.st29{fill:#49302A;}
	.st30{fill:#DD8064;}
	.st31{fill:#253956;}
	.st32{fill:#1B3396;}
	.st33{fill:#7E7EE0;}
	.st34{fill:#4B4B82;}
	.st35{fill:#DD8266;}
	.st36{fill:#0C8787;}
	.st37{fill:#F9EFEF;}
	.st38{fill:#8989E5;}
	.st39{fill:#17A1A4;}
	.st40{fill:#D0C4C4;}
	.st41{fill:#9494ED;}
	.st42{fill:#1C2546;}
	.st43{fill:#6363C6;}
	.st44{fill:#090951;}
	.st45{fill:#257493;}
	.st46{fill:#4A4096;}
	.st47{fill:#5353D3;}
	.st48{fill:#0E0E8C;}
	.st49{fill:#0F0F59;}
	.st50{fill:#060647;}
	.st51{fill:#1C1C70;}
	.st52{fill:#6BA3DB;}
	.st53{fill:#538DD3;}
	.st54{fill:#2D2D91;}
	.st55{fill:#D1D1F2;}
	.st56{fill:#FCFCFC;}
	.st57{fill:#8D8DE0;}
	.st58{fill:#AACCE8;}
	.st59{fill:#8EB7E8;}
	.st60{fill:#A4A3FE;}
	.st61{fill:#B0DFFF;}
	.st62{fill:#9191F2;}
	.st63{fill:#FFE529;}
	.st64{fill:#F7BF41;}
	.st65{fill:#EAAD34;}
	.st66{fill:#98C2E5;}
	.st67{fill:#DF7C5D;}
	.st68{fill:#73AAE0;}
	.st69{fill:#474B4C;}
	.st70{fill:#092226;}
	.st71{fill:#5994CE;}
	.st72{fill:#7CB5E5;}
	.st73{fill:#E89F1F;}
	.st74{fill:#EFB135;}
	.st75{fill:#2F40A5;}
	.st76{fill:#7193D8;}
	.st77{fill:#1F2B54;}
	.st78{fill:#0C0C60;}
	.st79{fill:#7575D3;}
	.st80{fill:#2F2F7C;}
	.st81{fill:#090949;}
	.st82{fill:#1D5E82;}
	.st83{opacity:0.5;fill:#FFFFFF;enable-background:new    ;}
</style>
<g>
	<g>
		<g>
			<defs>
				<rect id="SVGID_1_" width="711" height="585"/>
			</defs>
			<clipPath id="SVGID_00000176044715326594300220000017430148987804777891_">
				<use xlink:href="#SVGID_1_"  style="overflow:visible;"/>
			</clipPath>
			<g style="clip-path:url(#SVGID_00000176044715326594300220000017430148987804777891_);">
				<path class="st1" d="M844.3,282.1C844.3,282.1,844.2,282.1,844.3,282.1c-9.4-33.3-28.7-124.7-154.5-165.8
					c-25.4-8.3-134.7-41-253.7,25c-18.2,10.1-53.7,38.7-83.7,81.7c-23.6-7.7-49.1-11.9-75.6-11.9c-125.4,0-227.1,94.3-227.1,210.6
					c0,55.9,23.5,106.7,61.8,144.4h286c1.2,0.5,2.4,1,3.6,1.5c9,3.4,610.6,1.9,614.9,0C1252.4,464.5,1041.8,90.4,844.3,282.1z"/>
				<path class="st2" d="M123.5,181.5c5.3-0.7,13.2,0.6,17.1,5.2c7.5,8.9-6.9,22.6-13.7,43.4c-12.3,37.7,9.2,71.7,4,72.6
					c-5.5,0.9-33.2-37.4-31.2-77C100,221.3,102.3,184.2,123.5,181.5L123.5,181.5z"/>
				<path class="st3" d="M123.5,181.5c0.7-0.1,1.4-0.1,2.1-0.2c-3.8,2.4-7.9,5.7-11.6,10.3c-11.7,14.5-10.8,31.3-10.3,39.1
					c0.2,3.8,1.7,23.1,16.5,44.2c2.2,3.2,4.6,6.1,6.9,8.8c3,11.3,6.1,18.5,3.8,18.9c-5.5,0.9-33.2-37.4-31.2-77
					C100,221.3,102.3,184.2,123.5,181.5L123.5,181.5z"/>
				<path class="st3" d="M122.6,201.5c0.3-0.1,0.5-0.1,0.8-0.1c0.3,0.2,0.4,0.5,0.3,0.8c-4.9,8.5-8.1,17.7-9.7,27.4
					c-3.3,20.4,1.5,38.8,6.3,50.7c0.1,0.3,0,0.6-0.3,0.7s-0.7-0.1-0.8-0.4c-4.8-12.1-9.7-30.6-6.4-51.3
					C114.4,219.4,117.7,210,122.6,201.5L122.6,201.5z"/>
				<path class="st2" d="M75.8,294.8c102.1,112.4,25.5,242,11.5,263.7c-0.3,0.5-1,0.2-0.8-0.3c6.2-16.7,29.9-91.3-7.2-169.8
					C61.1,349.9,22.1,310,15,297.7C1.4,274.2,24.9,238.8,75.8,294.8L75.8,294.8z"/>
				<path class="st3" d="M75.8,294.8C177.7,407,96.5,549,87.3,558.3c-0.4,0.4-1,0.2-0.8-0.3c2.9-8,9.6-28.5,12.1-56.1
					c11.1-22.6,19.7-48.8,20.1-76.1c0.3-18-2.9-46.1-14.2-74.1c-6.1-15-12.4-24.7-20.8-37.7c-11.9-18.4-23-30.9-37.2-39.1
					c-5.6-3.2-11.5-5.6-19.2-5.1c-5.3,0.4-10,2-13.7,3.8C20.6,260.7,42.2,257.8,75.8,294.8L75.8,294.8z"/>
				<path class="st3" d="M56.3,311.7c0.4-0.4,0.9-0.4,1.2-0.1c12.6,13.3,23.2,28.5,31.6,45.3c10.8,21.4,18,45.6,20.8,69.9
					c4,33.7-0.3,63-4.6,81.6c-1.4,6-3,12-4.8,17.9c-0.2,0.5-0.6,0.8-1.1,0.7c-0.4-0.1-0.7-0.5-0.5-1c1.8-5.8,3.4-11.8,4.8-17.7
					c4.2-18.5,8.5-47.5,4.5-81c-2.8-24.1-10-48.1-20.7-69.4c-8.4-16.6-18.9-31.7-31.4-45C55.9,312.6,56,312,56.3,311.7L56.3,311.7z"
					/>
				<path class="st2" d="M21,388.9c30.5-9.6,56.9,39.5,59.9,45.3c27.5,52.7,13.8,122.1,5.7,124.3c-0.2,0-0.3,0.1-0.5,0l-1.8-2
					c-4.1-10.5-2.3-61.2-37.6-99.4C24.5,433-3.6,423.4,1,406.6C3.5,398,13.4,391.3,21,388.9z"/>
				<path class="st3" d="M81,434.2c27.5,52.7,13.8,122.1,5.7,124.3c-0.2,0-0.3,0.1-0.5,0l-1.8-2c-1.6-4-2.3-13.6-4.4-26.1
					c1.5-5.2,2.9-10.6,4-16.3c7-38.1-3.1-65.2-5.1-70.5c-4.3-10.9-13.5-34.5-38.5-46.9c-7.9-3.9-15.6-5.8-22.3-6.7
					c1-0.4,2-0.8,3-1.1C51.6,379.3,78,428.5,81,434.2L81,434.2z"/>
				<path class="st3" d="M34.7,415.6c12.1,8.6,22.4,19.3,30.7,31.7c17.5,26,22.4,54.4,23.4,73.8c0,0.5-0.3,0.9-0.8,1
					s-0.9-0.2-0.9-0.7c-1-19.3-5.8-47.3-23.1-73c-8.2-12.2-18.4-22.8-30.3-31.3c-0.4-0.3-0.4-0.8-0.1-1.2
					C34,415.8,34.2,415.7,34.7,415.6L34.7,415.6z"/>
				<path class="st2" d="M583.2,584.9c290.1,0,525.3-12.6,525.3-28.2c0-15.5-235.2-28.2-525.3-28.2S57.9,541.2,57.9,556.8
					C57.9,572.3,293.1,584.9,583.2,584.9z"/>
				<path class="st2" d="M266.9,88.3l1-5c2.1-0.2,4.4-0.6,6.5-1.3l2.9,4.2c0.9,1.4,2.9,1.8,4.3,0.8l5.8-4c1.4-0.9,1.8-2.9,0.8-4.3
					l-2.9-4.3c1.4-1.6,2.6-3.6,3.6-5.5l5,1c1.7,0.3,2.8-0.7,3.1-2.3l1.3-6.9c0.3-1.7-0.3-3.5-2-3.8l-5-1c-0.2-2.1-0.6-4.2-1.4-6.2
					l4.2-2.8c1.4-0.9,1.7-2.8,0.8-4.2l-4-5.8c-0.9-1.4-2.9-1.7-4.3-0.8l-4.3,2.9c-1.6-1.4-3.7-2.6-5.5-3.6l1-5
					c0.3-1.7-0.5-3.6-2.1-3.9l-6.9-1.3c-1.7-0.3-3.7,1.1-4,2.7l-1,5c-2.1,0.2-4.1,0.7-6.2,1.4l-2.8-4.2c-0.9-1.4-2.8-1.7-4.2-0.8
					l-5.8,4c-1.4,0.9-1.7,2.9-0.8,4.3l2.9,4.1c-1.4,1.6-2.6,3.4-3.5,5.3l-5-1c-1.7-0.3-3.7,1-4,2.7l-1.3,6.9
					c-0.3,1.7,1.2,3.2,2.9,3.5l5,1c0.2,2.1,0.6,4.4,1.3,6.4l-4.2,2.9c-1.4,0.9-1.8,2.9-0.8,4.3l4,5.8c0.9,1.4,2.9,1.8,4.3,0.8l4-2.9
					c1.6,1.4,3.3,2.6,5.2,3.5l-1,5c-0.3,1.7,1.2,3,2.9,3.3l6.9,1.3C265.3,90.7,266.6,90,266.9,88.3L266.9,88.3z M252,55.5
					c1.5-7.8,9-12.9,16.8-11.4s12.9,9,11.4,16.8s-9,12.9-16.8,11.4C255.7,70.8,250.5,63.3,252,55.5z"/>
				<path class="st3" d="M386.9,79.1l-8,3.4c-2.2-2.8-5-5.7-8-7.9l3.2-8.1c1.1-2.7-0.2-5.7-2.9-6.8l-11.1-4.5
					c-2.7-1.1-5.7,0.2-6.8,2.9l-3.4,8.1c-3.6-0.4-7.6-0.3-11.2,0.2l-3.4-8c-1.1-2.6-3.6-3.3-6.3-2.2l-11,4.7
					c-2.6,1.1-4.7,3.8-3.6,6.4l3.4,8c-2.8,2.2-5.3,4.8-7.5,7.8l-7.9-3.3c-2.7-1.1-5.6,0.2-6.7,2.9l-4.4,11.1
					c-1.1,2.7,0.2,5.7,2.9,6.8l8.1,3.4c-0.4,3.6-0.3,7.6,0.2,11.2l-8,3.4c-2.6,1.1-4.6,4.1-3.5,6.7l4.7,11c1.1,2.6,5,4.2,7.7,3.1
					l8-3.4c2.2,2.8,4.8,5.2,7.8,7.4l-3.3,7.9c-1.1,2.7,0.2,5.6,2.9,6.7l11.1,4.4c2.7,1.1,5.7-0.2,6.8-2.9l3-7.9
					c3.6,0.4,7.2,0.5,10.8,0l3.4,8c1.1,2.6,5,4.3,7.6,3.2l11-4.7c2.6-1.1,3.3-4.7,2.2-7.4l-3.4-8c2.8-2.2,5.7-5,7.9-7.9l8.1,3.2
					c2.7,1.1,5.7-0.2,6.8-2.9l4.5-11.1c1.1-2.7-0.2-5.7-2.9-6.8l-7.9-2.9c0.4-3.6,0.5-7.2,0-10.7l8-3.4c2.6-1.1,3-4.5,1.9-7.2
					L393,82C391.8,79.1,389.5,78,386.9,79.1L386.9,79.1z M354.5,131.2c-12.4,5.3-26.8-0.5-32.1-12.9c-5.3-12.4,0.5-26.8,12.9-32.1
					s26.8,0.5,32.1,12.9C372.7,111.6,367,125.9,354.5,131.2z"/>
				<path class="st4" d="M313.3,453.9H106.4c-4.5,0-8.2,3.7-8.2,8.2v31.4c0,4.5,3.7,8.2,8.2,8.2h206.9c4.5,0,8.2-3.7,8.2-8.2V462
					C321.5,457.5,317.8,453.9,313.3,453.9z"/>
				<path class="st5" d="M314.9,453.9h-12.3c0,4.6-0.9,9.8-3.4,15.2c-5.4,11.4-15,16.4-17.6,17.6c-21.4,9.8-136.9,9.7-183.2,9.2
					c0.4,3.2,3.2,5.6,6.5,5.6h210.2c3.6,0,6.5-2.9,6.5-6.5v-34.7C321.5,456.8,318.5,453.9,314.9,453.9z"/>
				<path class="st6" d="M180.9,494c-1.2,0-2.1-0.9-2.1-2.1v-28.4c0-1.2,0.9-2.1,2.1-2.1c1.2,0,2.1,0.9,2.1,2.1v28.4
					C183,493.1,182.1,494,180.9,494z"/>
				<path class="st6" d="M189.8,494c-1.2,0-2.1-0.9-2.1-2.1v-28.4c0-1.2,0.9-2.1,2.1-2.1s2.1,0.9,2.1,2.1v28.4
					C192,493.1,191,494,189.8,494z"/>
				<path class="st6" d="M198.8,494c-1.2,0-2.1-0.9-2.1-2.1v-28.4c0-1.2,0.9-2.1,2.1-2.1s2.1,0.9,2.1,2.1v28.4
					C200.9,493.1,200,494,198.8,494z"/>
				<path class="st6" d="M207.7,494c-1.2,0-2.1-0.9-2.1-2.1v-28.4c0-1.2,0.9-2.1,2.1-2.1c1.2,0,2.1,0.9,2.1,2.1v28.4
					C209.9,493.1,208.9,494,207.7,494z"/>
				<path class="st6" d="M216.7,494c-1.2,0-2.1-0.9-2.1-2.1v-28.4c0-1.2,0.9-2.1,2.1-2.1c1.2,0,2.1,0.9,2.1,2.1v28.4
					C218.8,493.1,217.9,494,216.7,494z"/>
				<path class="st6" d="M227.8,463.5c0-1.2-0.9-2.1-2.1-2.1c-1.2,0-2.1,0.9-2.1,2.1v28.4c0,1.2,0.9,2.1,2.1,2.1
					c1.2,0,2.1-0.9,2.1-2.1V463.5z"/>
				<path class="st6" d="M236.7,463.5c0-1.2-0.9-2.1-2.1-2.1c-1.2,0-2.1,0.9-2.1,2.1v28.4c0,1.2,0.9,2.1,2.1,2.1
					c1.2,0,2.1-0.9,2.1-2.1V463.5z"/>
				<path class="st6" d="M243.5,494c-1.2,0-2.1-0.9-2.1-2.1v-28.4c0-1.2,0.9-2.1,2.1-2.1s2.1,0.9,2.1,2.1v28.4
					C245.6,493.1,244.7,494,243.5,494z"/>
				<path class="st6" d="M252.5,494c-1.2,0-2.1-0.9-2.1-2.1v-28.4c0-1.2,0.9-2.1,2.1-2.1c1.2,0,2.1,0.9,2.1,2.1v28.4
					C254.6,493.1,253.7,494,252.5,494z"/>
				<path class="st6" d="M261.4,494c-1.2,0-2.1-0.9-2.1-2.1v-28.4c0-1.2,0.9-2.1,2.1-2.1s2.1,0.9,2.1,2.1v28.4
					C263.5,493.1,262.6,494,261.4,494z"/>
				<path class="st6" d="M270.4,494c-1.2,0-2.1-0.9-2.1-2.1v-28.4c0-1.2,0.9-2.1,2.1-2.1s2.1,0.9,2.1,2.1v28.4
					C272.5,493.1,271.6,494,270.4,494z"/>
				<path class="st6" d="M279.3,494c-1.2,0-2.1-0.9-2.1-2.1v-28.4c0-1.2,0.9-2.1,2.1-2.1s2.1,0.9,2.1,2.1v28.4
					C281.4,493.1,280.5,494,279.3,494z"/>
				<path class="st6" d="M288.3,494c-1.2,0-2.1-0.9-2.1-2.1v-28.4c0-1.2,0.9-2.1,2.1-2.1s2.1,0.9,2.1,2.1v28.4
					C290.4,493.1,289.4,494,288.3,494z"/>
				<path class="st6" d="M297.2,494c-1.2,0-2.1-0.9-2.1-2.1v-28.4c0-1.2,0.9-2.1,2.1-2.1s2.1,0.9,2.1,2.1v28.4
					C299.3,493.1,298.4,494,297.2,494z"/>
				<path class="st6" d="M306.2,494c-1.2,0-2.1-0.9-2.1-2.1v-28.4c0-1.2,0.9-2.1,2.1-2.1s2.1,0.9,2.1,2.1v28.4
					C308.3,493.1,307.3,494,306.2,494z"/>
				<path class="st7" d="M115,467.3c1.2-1.2,1.2-3.1,0-4.2c-1.2-1.2-3.1-1.2-4.2,0c-1.2,1.2-1.2,3.1,0,4.2
					C111.9,468.5,113.8,468.5,115,467.3z"/>
				<path class="st8" d="M112.8,480.1c1.7,0,3-1.3,3-3s-1.3-3-3-3s-3,1.3-3,3C109.8,478.8,111.2,480.1,112.8,480.1z"/>
				<path class="st6" d="M112.8,491.8c1.7,0,3-1.3,3-3s-1.3-3-3-3s-3,1.3-3,3C109.8,490.4,111.2,491.8,112.8,491.8z"/>
				<path class="st7" d="M124.8,468c1.5-0.6,2.3-2.4,1.6-3.9c-0.6-1.5-2.4-2.3-3.9-1.6c-1.5,0.6-2.3,2.4-1.6,3.9
					C121.5,467.9,123.3,468.6,124.8,468z"/>
				<path class="st8" d="M123.7,480.1c1.7,0,3-1.3,3-3s-1.3-3-3-3s-3,1.3-3,3C120.7,478.8,122,480.1,123.7,480.1z"/>
				<path class="st6" d="M123.7,491.8c1.7,0,3-1.3,3-3s-1.3-3-3-3s-3,1.3-3,3C120.7,490.4,122,491.8,123.7,491.8z"/>
				<path class="st7" d="M135.5,468c1.5-0.6,2.3-2.4,1.6-3.9c-0.6-1.5-2.4-2.3-3.9-1.6c-1.5,0.6-2.3,2.4-1.6,3.9
					C132.2,467.9,133.9,468.6,135.5,468z"/>
				<path class="st8" d="M134.3,480.1c1.7,0,3-1.3,3-3s-1.3-3-3-3s-3,1.3-3,3C131.3,478.8,132.7,480.1,134.3,480.1z"/>
				<path class="st6" d="M134.3,491.8c1.7,0,3-1.3,3-3s-1.3-3-3-3s-3,1.3-3,3C131.3,490.4,132.7,491.8,134.3,491.8z"/>
				<path class="st7" d="M146.2,468c1.5-0.6,2.3-2.4,1.6-3.9c-0.6-1.5-2.4-2.3-3.9-1.6c-1.5,0.6-2.3,2.4-1.6,3.9
					C142.9,467.9,144.7,468.6,146.2,468z"/>
				<path class="st8" d="M145,480.1c1.7,0,3-1.3,3-3s-1.3-3-3-3s-3,1.3-3,3C142.1,478.8,143.4,480.1,145,480.1z"/>
				<path class="st6" d="M145,491.8c1.7,0,3-1.3,3-3s-1.3-3-3-3s-3,1.3-3,3C142.1,490.4,143.4,491.8,145,491.8z"/>
				<path class="st7" d="M163,462.6h-7.9c-1.5,0-2.7,1.2-2.7,2.7s1.2,2.7,2.7,2.7h7.9c1.5,0,2.7-1.2,2.7-2.7
					C165.7,463.7,164.5,462.6,163,462.6z"/>
				<path class="st7" d="M163,479.8h-7.9c-1.5,0-2.7-1.2-2.7-2.7s1.2-2.7,2.7-2.7h7.9c1.5,0,2.7,1.2,2.7,2.7S164.5,479.8,163,479.8z
					"/>
				<path class="st6" d="M163,491.4h-7.9c-1.5,0-2.7-1.2-2.7-2.7s1.2-2.7,2.7-2.7h7.9c1.5,0,2.7,1.2,2.7,2.7S164.5,491.4,163,491.4z
					"/>
				<path class="st4" d="M313.3,400.1H106.4c-4.5,0-8.2,3.7-8.2,8.2v31.4c0,4.5,3.7,8.2,8.2,8.2h206.9c4.5,0,8.2-3.7,8.2-8.2v-31.4
					C321.5,403.8,317.8,400.1,313.3,400.1z"/>
				<path class="st5" d="M314.9,400.1h-12.3c0,4.6-0.9,9.8-3.4,15.2c-5.4,11.4-15,16.4-17.6,17.6c-21.4,9.8-136.9,9.7-183.2,9.2
					c0.4,3.2,3.2,5.6,6.5,5.6h210.2c3.6,0,6.5-2.9,6.5-6.5v-34.7C321.5,403.1,318.5,400.1,314.9,400.1z"/>
				<path class="st6" d="M180.9,440.3c-1.2,0-2.1-0.9-2.1-2.1v-28.4c0-1.2,0.9-2.1,2.1-2.1c1.2,0,2.1,0.9,2.1,2.1v28.4
					C183,439.4,182.1,440.3,180.9,440.3z"/>
				<path class="st6" d="M189.8,440.3c-1.2,0-2.1-0.9-2.1-2.1v-28.4c0-1.2,0.9-2.1,2.1-2.1s2.1,0.9,2.1,2.1v28.4
					C192,439.4,191,440.3,189.8,440.3z"/>
				<path class="st6" d="M198.8,440.3c-1.2,0-2.1-0.9-2.1-2.1v-28.4c0-1.2,0.9-2.1,2.1-2.1s2.1,0.9,2.1,2.1v28.4
					C200.9,439.4,200,440.3,198.8,440.3z"/>
				<path class="st6" d="M207.7,440.3c-1.2,0-2.1-0.9-2.1-2.1v-28.4c0-1.2,0.9-2.1,2.1-2.1c1.2,0,2.1,0.9,2.1,2.1v28.4
					C209.9,439.4,208.9,440.3,207.7,440.3z"/>
				<path class="st6" d="M216.7,440.3c-1.2,0-2.1-0.9-2.1-2.1v-28.4c0-1.2,0.9-2.1,2.1-2.1c1.2,0,2.1,0.9,2.1,2.1v28.4
					C218.8,439.4,217.9,440.3,216.7,440.3z"/>
				<path class="st6" d="M227.8,409.8c0-1.2-0.9-2.1-2.1-2.1c-1.2,0-2.1,0.9-2.1,2.1v28.4c0,1.2,0.9,2.1,2.1,2.1
					c1.2,0,2.1-0.9,2.1-2.1V409.8z"/>
				<path class="st6" d="M236.7,409.8c0-1.2-0.9-2.1-2.1-2.1c-1.2,0-2.1,0.9-2.1,2.1v28.4c0,1.2,0.9,2.1,2.1,2.1
					c1.2,0,2.1-0.9,2.1-2.1V409.8z"/>
				<path class="st6" d="M243.5,440.3c-1.2,0-2.1-0.9-2.1-2.1v-28.4c0-1.2,0.9-2.1,2.1-2.1s2.1,0.9,2.1,2.1v28.4
					C245.6,439.4,244.7,440.3,243.5,440.3z"/>
				<path class="st6" d="M252.5,440.3c-1.2,0-2.1-0.9-2.1-2.1v-28.4c0-1.2,0.9-2.1,2.1-2.1c1.2,0,2.1,0.9,2.1,2.1v28.4
					C254.6,439.4,253.7,440.3,252.5,440.3z"/>
				<path class="st6" d="M261.4,440.3c-1.2,0-2.1-0.9-2.1-2.1v-28.4c0-1.2,0.9-2.1,2.1-2.1s2.1,0.9,2.1,2.1v28.4
					C263.5,439.4,262.6,440.3,261.4,440.3z"/>
				<path class="st6" d="M270.4,440.3c-1.2,0-2.1-0.9-2.1-2.1v-28.4c0-1.2,0.9-2.1,2.1-2.1s2.1,0.9,2.1,2.1v28.4
					C272.5,439.4,271.6,440.3,270.4,440.3z"/>
				<path class="st6" d="M279.3,440.3c-1.2,0-2.1-0.9-2.1-2.1v-28.4c0-1.2,0.9-2.1,2.1-2.1s2.1,0.9,2.1,2.1v28.4
					C281.4,439.4,280.5,440.3,279.3,440.3z"/>
				<path class="st6" d="M288.3,440.3c-1.2,0-2.1-0.9-2.1-2.1v-28.4c0-1.2,0.9-2.1,2.1-2.1s2.1,0.9,2.1,2.1v28.4
					C290.4,439.4,289.4,440.3,288.3,440.3z"/>
				<path class="st6" d="M297.2,440.3c-1.2,0-2.1-0.9-2.1-2.1v-28.4c0-1.2,0.9-2.1,2.1-2.1s2.1,0.9,2.1,2.1v28.4
					C299.3,439.4,298.4,440.3,297.2,440.3z"/>
				<path class="st6" d="M306.2,440.3c-1.2,0-2.1-0.9-2.1-2.1v-28.4c0-1.2,0.9-2.1,2.1-2.1s2.1,0.9,2.1,2.1v28.4
					C308.3,439.4,307.3,440.3,306.2,440.3z"/>
				<path class="st7" d="M112.8,414.5c1.7,0,3-1.3,3-3s-1.3-3-3-3s-3,1.3-3,3C109.8,413.1,111.2,414.5,112.8,414.5z"/>
				<path class="st8" d="M112.8,426.4c1.7,0,3-1.3,3-3s-1.3-3-3-3s-3,1.3-3,3S111.2,426.4,112.8,426.4z"/>
				<path class="st6" d="M112.8,438c1.7,0,3-1.3,3-3s-1.3-3-3-3s-3,1.3-3,3S111.2,438,112.8,438z"/>
				<path class="st7" d="M123.7,414.5c1.7,0,3-1.3,3-3s-1.3-3-3-3s-3,1.3-3,3C120.7,413.1,122,414.5,123.7,414.5z"/>
				<path class="st8" d="M123.7,426.4c1.7,0,3-1.3,3-3s-1.3-3-3-3s-3,1.3-3,3S122,426.4,123.7,426.4z"/>
				<path class="st6" d="M123.7,438c1.7,0,3-1.3,3-3s-1.3-3-3-3s-3,1.3-3,3S122,438,123.7,438z"/>
				<path class="st7" d="M134.3,414.5c1.7,0,3-1.3,3-3s-1.3-3-3-3s-3,1.3-3,3C131.3,413.1,132.7,414.5,134.3,414.5z"/>
				<path class="st8" d="M134.3,426.4c1.7,0,3-1.3,3-3s-1.3-3-3-3s-3,1.3-3,3S132.7,426.4,134.3,426.4z"/>
				<path class="st6" d="M134.3,438c1.7,0,3-1.3,3-3s-1.3-3-3-3s-3,1.3-3,3S132.7,438,134.3,438z"/>
				<path class="st7" d="M145,414.5c1.7,0,3-1.3,3-3s-1.3-3-3-3s-3,1.3-3,3C142.1,413.1,143.4,414.5,145,414.5z"/>
				<path class="st8" d="M145,426.4c1.7,0,3-1.3,3-3s-1.3-3-3-3s-3,1.3-3,3C142.1,425.1,143.4,426.4,145,426.4z"/>
				<path class="st6" d="M145,438c1.7,0,3-1.3,3-3s-1.3-3-3-3s-3,1.3-3,3C142.1,436.7,143.4,438,145,438z"/>
				<path class="st7" d="M163,414.1h-7.9c-1.5,0-2.7-1.2-2.7-2.7s1.2-2.7,2.7-2.7h7.9c1.5,0,2.7,1.2,2.7,2.7S164.5,414.1,163,414.1z
					"/>
				<path class="st7" d="M163,426.1h-7.9c-1.5,0-2.7-1.2-2.7-2.7s1.2-2.7,2.7-2.7h7.9c1.5,0,2.7,1.2,2.7,2.7S164.5,426.1,163,426.1z
					"/>
				<path class="st6" d="M163,437.7h-7.9c-1.5,0-2.7-1.2-2.7-2.7s1.2-2.7,2.7-2.7h7.9c1.5,0,2.7,1.2,2.7,2.7S164.5,437.7,163,437.7z
					"/>
				<path class="st4" d="M313.3,508.4H106.4c-4.5,0-8.2,3.7-8.2,8.2V548c0,4.5,3.7,8.2,8.2,8.2h206.9c4.5,0,8.2-3.7,8.2-8.2v-31.4
					C321.5,512,317.8,508.4,313.3,508.4z"/>
				<path class="st5" d="M314.9,508.4h-12.3c0,4.6-0.9,9.8-3.4,15.2c-5.4,11.4-15,16.4-17.6,17.6c-21.4,9.8-136.9,9.7-183.2,9.2
					c0.4,3.2,3.2,5.6,6.5,5.6h210.2c3.6,0,6.5-2.9,6.5-6.5v-34.7C321.5,511.3,318.5,508.4,314.9,508.4z"/>
				<path class="st6" d="M180.9,548.5c-1.2,0-2.1-0.9-2.1-2.1V518c0-1.2,0.9-2.1,2.1-2.1c1.2,0,2.1,0.9,2.1,2.1v28.4
					C183,547.6,182.1,548.5,180.9,548.5z"/>
				<path class="st6" d="M189.8,548.5c-1.2,0-2.1-0.9-2.1-2.1V518c0-1.2,0.9-2.1,2.1-2.1s2.1,0.9,2.1,2.1v28.4
					C192,547.6,191,548.5,189.8,548.5z"/>
				<path class="st6" d="M198.8,548.5c-1.2,0-2.1-0.9-2.1-2.1V518c0-1.2,0.9-2.1,2.1-2.1s2.1,0.9,2.1,2.1v28.4
					C200.9,547.6,200,548.5,198.8,548.5z"/>
				<path class="st6" d="M207.7,548.5c-1.2,0-2.1-0.9-2.1-2.1V518c0-1.2,0.9-2.1,2.1-2.1c1.2,0,2.1,0.9,2.1,2.1v28.4
					C209.9,547.6,208.9,548.5,207.7,548.5z"/>
				<path class="st6" d="M216.7,548.5c-1.2,0-2.1-0.9-2.1-2.1V518c0-1.2,0.9-2.1,2.1-2.1c1.2,0,2.1,0.9,2.1,2.1v28.4
					C218.8,547.6,217.9,548.5,216.7,548.5z"/>
				<path class="st6" d="M227.8,518c0-1.2-0.9-2.1-2.1-2.1c-1.2,0-2.1,0.9-2.1,2.1v28.4c0,1.2,0.9,2.1,2.1,2.1
					c1.2,0,2.1-0.9,2.1-2.1V518z"/>
				<path class="st6" d="M236.7,518c0-1.2-0.9-2.1-2.1-2.1c-1.2,0-2.1,0.9-2.1,2.1v28.4c0,1.2,0.9,2.1,2.1,2.1
					c1.2,0,2.1-0.9,2.1-2.1V518z"/>
				<path class="st6" d="M243.5,548.5c-1.2,0-2.1-0.9-2.1-2.1V518c0-1.2,0.9-2.1,2.1-2.1s2.1,0.9,2.1,2.1v28.4
					C245.6,547.6,244.7,548.5,243.5,548.5z"/>
				<path class="st6" d="M252.5,548.5c-1.2,0-2.1-0.9-2.1-2.1V518c0-1.2,0.9-2.1,2.1-2.1c1.2,0,2.1,0.9,2.1,2.1v28.4
					C254.6,547.6,253.7,548.5,252.5,548.5z"/>
				<path class="st6" d="M261.4,548.5c-1.2,0-2.1-0.9-2.1-2.1V518c0-1.2,0.9-2.1,2.1-2.1s2.1,0.9,2.1,2.1v28.4
					C263.5,547.6,262.6,548.5,261.4,548.5z"/>
				<path class="st6" d="M270.4,548.5c-1.2,0-2.1-0.9-2.1-2.1V518c0-1.2,0.9-2.1,2.1-2.1s2.1,0.9,2.1,2.1v28.4
					C272.5,547.6,271.6,548.5,270.4,548.5z"/>
				<path class="st6" d="M279.3,548.5c-1.2,0-2.1-0.9-2.1-2.1V518c0-1.2,0.9-2.1,2.1-2.1s2.1,0.9,2.1,2.1v28.4
					C281.4,547.6,280.5,548.5,279.3,548.5z"/>
				<path class="st6" d="M288.3,548.5c-1.2,0-2.1-0.9-2.1-2.1V518c0-1.2,0.9-2.1,2.1-2.1s2.1,0.9,2.1,2.1v28.4
					C290.4,547.6,289.4,548.5,288.3,548.5z"/>
				<path class="st6" d="M297.2,548.5c-1.2,0-2.1-0.9-2.1-2.1V518c0-1.2,0.9-2.1,2.1-2.1s2.1,0.9,2.1,2.1v28.4
					C299.3,547.6,298.4,548.5,297.2,548.5z"/>
				<path class="st6" d="M306.2,548.5c-1.2,0-2.1-0.9-2.1-2.1V518c0-1.2,0.9-2.1,2.1-2.1s2.1,0.9,2.1,2.1v28.4
					C308.3,547.6,307.3,548.5,306.2,548.5z"/>
				<path class="st7" d="M112.8,522.7c1.7,0,3-1.3,3-3s-1.3-3-3-3s-3,1.3-3,3S111.2,522.7,112.8,522.7z"/>
				<path class="st8" d="M112.8,534.6c1.7,0,3-1.3,3-3s-1.3-3-3-3s-3,1.3-3,3S111.2,534.6,112.8,534.6z"/>
				<path class="st6" d="M115.7,543.9c0.4-1.6-0.6-3.2-2.2-3.6s-3.2,0.6-3.6,2.2c-0.4,1.6,0.6,3.2,2.2,3.6
					C113.8,546.5,115.4,545.5,115.7,543.9z"/>
				<path class="st7" d="M123.7,522.7c1.7,0,3-1.3,3-3s-1.3-3-3-3s-3,1.3-3,3S122,522.7,123.7,522.7z"/>
				<path class="st8" d="M123.7,534.6c1.7,0,3-1.3,3-3s-1.3-3-3-3s-3,1.3-3,3S122,534.6,123.7,534.6z"/>
				<path class="st6" d="M126.6,543.7c0.3-1.6-0.8-3.2-2.5-3.4c-1.6-0.3-3.2,0.8-3.4,2.5c-0.3,1.6,0.8,3.2,2.5,3.4
					C124.8,546.5,126.3,545.4,126.6,543.7z"/>
				<path class="st7" d="M134.3,522.7c1.7,0,3-1.3,3-3s-1.3-3-3-3s-3,1.3-3,3S132.7,522.7,134.3,522.7z"/>
				<path class="st8" d="M134.3,534.6c1.7,0,3-1.3,3-3s-1.3-3-3-3s-3,1.3-3,3S132.7,534.6,134.3,534.6z"/>
				<path class="st6" d="M137.3,543.7c0.3-1.6-0.8-3.2-2.5-3.4s-3.2,0.8-3.4,2.5s0.8,3.2,2.5,3.4C135.5,546.5,137,545.4,137.3,543.7
					z"/>
				<path class="st7" d="M145,522.7c1.7,0,3-1.3,3-3s-1.3-3-3-3s-3,1.3-3,3C142.1,521.4,143.4,522.7,145,522.7z"/>
				<path class="st8" d="M145,534.6c1.7,0,3-1.3,3-3s-1.3-3-3-3s-3,1.3-3,3C142.1,533.3,143.4,534.6,145,534.6z"/>
				<path class="st6" d="M148,543.7c0.3-1.6-0.8-3.2-2.5-3.4c-1.6-0.3-3.2,0.8-3.4,2.5c-0.3,1.6,0.8,3.2,2.5,3.4
					C146.2,546.5,147.7,545.4,148,543.7z"/>
				<path class="st7" d="M163,522.4h-7.9c-1.5,0-2.7-1.2-2.7-2.7s1.2-2.7,2.7-2.7h7.9c1.5,0,2.7,1.2,2.7,2.7S164.5,522.4,163,522.4z
					"/>
				<path class="st7" d="M163,534.3h-7.9c-1.5,0-2.7-1.2-2.7-2.7s1.2-2.7,2.7-2.7h7.9c1.5,0,2.7,1.2,2.7,2.7S164.5,534.3,163,534.3z
					"/>
				<path class="st6" d="M163,540.6h-7.9c-1.5,0-2.7,1.2-2.7,2.7s1.2,2.7,2.7,2.7h7.9c1.5,0,2.7-1.2,2.7-2.7S164.5,540.6,163,540.6z
					"/>
				<path class="st9" d="M504.6,120.3h-5.9v64h5.9V120.3z"/>
				<path class="st9" d="M652.6,101.3h-5.9v64h5.9V101.3z"/>
				<path class="st9" d="M656.9,162.6c0-4.1-3.4-7.5-7.5-7.5s-7.5,3.4-7.5,7.5V182c0,4.1,3.4,7.5,7.5,7.5s7.5-3.4,7.5-7.5V162.6z"/>
				<path class="st9" d="M509.1,110.6c0-4.1-3.4-7.5-7.5-7.5s-7.5,3.4-7.5,7.5v19.3c0,4.1,3.4,7.5,7.5,7.5s7.5-3.4,7.5-7.5V110.6z"
					/>
				<path class="st10" d="M705.1,75.9c0-27.8-24-50.3-53.6-50.3c-8.7,0-16.9,1.9-24.2,5.4c-11.7-18.4-34.7-31-61.1-31
					c-34.3,0-62.8,21.1-68.4,48.9c-3.7-1-7.7-1.5-11.8-1.5c-23.7,0-42.9,17.6-42.9,39.4c0,21.7,19.2,39.4,42.9,39.4
					c1.4,0,2.8-0.1,4.1-0.2v0.2h166.6V126C683.9,123.5,705.1,102,705.1,75.9L705.1,75.9z"/>
				<path class="st7" d="M607.3,77l-32.2-42.9L540.9,77H558v49.2h32.2V77H607.3z"/>
				<path class="st11" d="M651.5,25.7c-8.7,0-16.9,1.9-24.2,5.4c-10.5-16.5-30-28.3-53-30.6c39.9,11.7,45,49.7,45,49.7
					s36.4-13.3,48.6,7.5c16.8,28.6-8.9,56.7-47.8,68.6h36.7V126c27.1-2.5,48.4-23.9,48.4-50C705.1,48.2,681.1,25.7,651.5,25.7z"/>
				<path class="st12" d="M575.1,34.1l-0.4,0.5c2.9,8.4,4.8,15.8,6.1,21.5c1.8,8.2,3.1,14.5,3.1,23c0,1.7-0.1,16.2-4.9,27.9
					c-3.2,7.9-8.4,14.2-14.3,19.2h25.5V77h17.1L575.1,34.1z"/>
				<path class="st13" d="M116.3,375.9c-2.8,0.2-3.2,1.5-9.8,5.5c-5.3,3.1-20.5,10.5-22.2,14.9c-1.7,4.3-1.2,6,0.9,4.3
					c5-3.9,4.8,7.5,10,6.4c1.5-0.3,2.4-1,3.3-1.7c3.4-2.4-1.1,1.2,13-7.3c12-7.3,18.1-11,18.1-13
					C129.7,380.5,122.3,375.4,116.3,375.9L116.3,375.9z"/>
				<path class="st14" d="M103.7,454.6c-0.6-1.3-0.9-2-1.3-2.5c-1.9-2.5-7.7-2.9-10-0.6c-0.9,0.8-0.5,1.2-2.1,3.8
					c-0.4,0.7-1.2,2-2.5,3.4c-1.6,1.9-2,1.6-4.3,4c-1.9,2-1.7,2.1-2.7,2.9c-0.8,0.6-1.8,1.2-1.9,1.5c-3.3,6.6,9.4,4.6,17.2,0.5
					c6.1-3.2,9.3-7.4,9.3-7.7c-0.2-1.1-0.2-1-0.5-2.1C104.6,457,104.3,456,103.7,454.6L103.7,454.6z"/>
				<path class="st7" d="M105.3,459.9c-0.9,0.9-1.7,1.5-2.3,2c-0.9,0.7-0.8,0.6-3.7,2.6c-2.4,1.7-2.7,2-3.6,2.4
					c-1.5,0.8-3.3,2.1-4.4,2.3c-2.2,0.5-12.2,2.4-12.5-2.2c-0.1,0.1-0.2,0.3-0.3,0.5c-0.4,0.8-0.5,1.4-0.5,1.6s0,0.9,0.4,1.5
					c0.5,0.8,1.4,1.1,2.8,1.4c1.2,0.2,3.1,0.4,6.2,0c1.7-0.2,3.5-0.5,5.7-1.3c1-0.4,1.7-0.7,2.6-1.3c0.9-0.6,1.2-1,2.3-1.7
					c0.5-0.3,0.7-0.4,1.9-1c2.8-1.5,3.6-2.1,4-2.4c1.2-1,1.4-1.5,1.6-2c0.1-0.3,0.1-0.6-0.1-1.5
					C105.4,460.4,105.3,460.1,105.3,459.9L105.3,459.9z"/>
				<path class="st7" d="M97.2,456.8c-0.8-0.5-1.7-0.9-2.7-1.2c-1.1-0.4-2.2-0.6-3.3-0.8c-0.1,0-0.3,0.1-0.3,0.2s0.1,0.2,0.2,0.2
					c1.1,0.1,2.2,0.4,3.2,0.7c0.9,0.3,1.8,0.7,2.6,1.2c0.1,0.1,0.3,0,0.3-0.1C97.4,457,97.3,456.9,97.2,456.8L97.2,456.8z"/>
				<path class="st7" d="M94.7,457.7c0,0-0.3-0.3-0.6-0.5c-1-0.7-2.2-1.2-3-1.5c-0.1,0-0.3,0-0.3,0.1s0,0.2,0.1,0.3
					c0.8,0.3,2,0.8,2.9,1.5c0.3,0.2,0.6,0.5,0.6,0.5c0.4,0.4,0.9,0.8,1.2,1.3c0.1,0.1,0.2,0.1,0.3,0.1c0.1-0.1,0.1-0.2,0.1-0.3
					C95.6,458.6,95.2,458.1,94.7,457.7L94.7,457.7z"/>
				<path class="st7" d="M93.5,458.2c-0.6-0.1-1.2-0.2-1.8-0.3c-0.8-0.1-1.6,0-2.4,0.1c-0.1,0-0.2,0.1-0.2,0.3
					c0,0.1,0.1,0.2,0.3,0.2c0.8-0.1,1.5-0.1,2.3-0.1c0.6,0,1.2,0.1,1.7,0.3c0.1,0,0.3,0,0.3-0.2C93.7,458.4,93.6,458.3,93.5,458.2
					L93.5,458.2z"/>
				<path class="st7" d="M93.4,459.8c-0.9-1-1.9-1.9-3.1-2.6c-0.1-0.1-0.3,0-0.3,0.1c-0.1,0.1,0,0.2,0.1,0.3
					c1.1,0.7,2.1,1.5,2.9,2.5c0.4,0.5,0.7,1,1.1,1.5c0.1,0.1,0.2,0.2,0.3,0.1c0.1-0.1,0.2-0.2,0.1-0.3
					C94.2,460.8,93.8,460.3,93.4,459.8L93.4,459.8z"/>
				<path class="st7" d="M91.9,460c-0.4-0.2-0.7-0.3-1.1-0.4c-0.9-0.3-1.8-0.4-2.8-0.3c-0.1,0-0.2,0.1-0.2,0.3
					c0,0.1,0.1,0.2,0.3,0.2c0.9-0.1,1.8,0,2.6,0.3c0.4,0.1,0.7,0.2,1,0.4c0.1,0.1,0.3,0,0.3-0.1C92.1,460.2,92,460,91.9,460
					L91.9,460z"/>
				<path class="st7" d="M91.6,461.1c-0.8-0.9-1.8-1.6-2.9-2.1c-0.1-0.1-0.3,0-0.3,0.1c-0.1,0.1,0,0.2,0.1,0.3c1.1,0.5,2,1.2,2.7,2
					c0.5,0.5,0.8,1.1,1.1,1.7c0.1,0.1,0.2,0.2,0.3,0.1c0.1-0.1,0.2-0.2,0.1-0.3C92.4,462.2,92,461.6,91.6,461.1L91.6,461.1z"/>
				<path class="st7" d="M89.8,462.4c-0.6-0.9-1.5-1.7-2.4-2.4c-0.1-0.1-0.3,0-0.3,0.1c-0.1,0.1,0,0.2,0.1,0.3
					c0.9,0.6,1.7,1.4,2.3,2.2c0.4,0.5,0.7,1.1,0.9,1.7c0,0.1,0.2,0.2,0.3,0.1c0.1,0,0.2-0.2,0.2-0.3C90.6,463.6,90.2,463,89.8,462.4
					L89.8,462.4z"/>
				<path class="st7" d="M90,461.5c-0.8-0.1-1.6-0.3-2.3-0.4c-0.5-0.1-1-0.2-1.5-0.2c-0.1,0-0.2,0.1-0.3,0.2c0,0.1,0.1,0.2,0.2,0.3
					c0.5,0.1,1,0.1,1.5,0.2c0.8,0.1,1.6,0.3,2.3,0.4c0.1,0,0.3-0.1,0.3-0.2C90.2,461.6,90.1,461.5,90,461.5L90,461.5z"/>
				<path class="st7" d="M87.8,463.9c-0.1-0.1-0.1-0.2-0.2-0.2c-0.4-0.4-0.8-0.6-1-0.8c-0.1,0-0.1-0.1-0.2-0.1
					c-0.3-0.2-0.6-0.4-0.9-0.7c-0.1-0.1-0.2-0.1-0.3,0c-0.1,0.1-0.1,0.2,0,0.3c0.3,0.3,0.6,0.6,1,0.8c0.1,0,0.1,0.1,0.2,0.1
					c0.3,0.2,0.6,0.3,0.9,0.7c0.1,0.1,0.1,0.1,0.2,0.2c0.3,0.3,0.5,0.6,0.8,1c0.1,0.1,0.2,0.1,0.3,0.1c0.1-0.1,0.2-0.2,0.1-0.3
					C88.4,464.5,88.1,464.2,87.8,463.9L87.8,463.9z"/>
				<path class="st7" d="M88.9,462.9c-1.3-0.4-2.5-0.5-3.8-0.3c-0.5,0.1-0.9,0.2-1.4,0.3c-0.1,0-0.2,0.2-0.2,0.3
					c0,0.1,0.2,0.2,0.3,0.1c0.4-0.1,0.9-0.2,1.3-0.3c1.2-0.2,2.4-0.1,3.6,0.3c0.1,0,0.3,0,0.3-0.1C89.1,463.1,89.1,463,88.9,462.9
					L88.9,462.9z"/>
				<path class="st13" d="M104.2,422.1c-0.1-4.7-0.9-10.4-2.4-14.5c-1.8-5-3.2-4.5-4.4-5.2c-2.8-1.6-10.5-6.2-13.4-4.2
					c-2.7,1.8,1.4,15,2.5,17.5c1.7,3.8,2.2,6.8,3,11.3c1.2,7.1,1.7,20.8,0.8,23.4c-0.4,1.1-0.8,1.9-0.4,2.8c0.9,1.6,4,1.8,7.3,2.1
					c2.8,0.2,6.7-1,6.7-2.3c0.1-2.9-0.4-6.4-0.5-9.3c-0.1-1.2,0-1.7,0.2-7.8C104.1,427.3,104.3,423,104.2,422.1z"/>
				<path class="st15" d="M128.1,381.5c-0.8,1.9-1.9,4-3.7,5.9c-1.7,1.8-3.4,1.5-11.3,4.8c-12.6,5.3-16.4,7-17.7,10.2
					c-1.1,2.7,1.1,3.5,3.1,11.1c1.7,6.6,1.7,12.2,1.7,21.4c0,3.8-0.2,5.9-0.2,7.7c-0.1,3.3,0,7.5,0.8,12.4c1.8-0.4,3.3-1.2,3.3-2
					c0.1-2.9-0.4-6.4-0.5-9.3c-0.1-1.2,0-1.7,0.2-7.8c0.4-8.6,0.6-13,0.6-13.8c-0.1-4.7-0.9-10.4-2.4-14.5c-0.3-1-0.7-1.7-1-2.3
					c1.9-0.6,3.4-1.7,7.7-3.1c3.6-1.2,10.1-2.8,16.5-3.8c1.6-0.2,3.5-0.5,5.1-2c2.5-2.3,2.4-6,2.4-6.7
					C132.4,386.8,130.6,383.8,128.1,381.5L128.1,381.5z"/>
				<path class="st14" d="M124.1,457.5c-0.6-1.3-0.9-2-1.3-2.5c-1.9-2.5-7.7-2.9-10-0.6c-0.9,0.8-0.5,1.2-2.1,3.8
					c-0.4,0.7-1.2,2-2.5,3.4c-1.6,1.9-2,1.6-4.3,4c-1.9,2-1.7,2.1-2.7,2.9c-0.8,0.6-1.8,1.2-1.9,1.5c-3.3,6.6,9.4,4.6,17.2,0.5
					c6.1-3.2,9.3-7.4,9.3-7.7c-0.2-1.1-0.2-1-0.5-2.1C125,459.9,124.7,458.8,124.1,457.5L124.1,457.5z"/>
				<path class="st7" d="M125.7,462.8c-0.9,0.9-1.7,1.5-2.3,2c-0.9,0.7-0.8,0.6-3.7,2.6c-2.4,1.7-2.7,2-3.6,2.4
					c-1.5,0.8-3.3,2.1-4.4,2.3c-2.2,0.5-12.2,2.4-12.5-2.2c-0.1,0.2-0.2,0.3-0.3,0.5c-0.4,0.8-0.5,1.4-0.5,1.6s0,0.9,0.4,1.5
					c0.5,0.8,1.4,1.1,2.8,1.4c1.2,0.2,3.1,0.4,6.2,0c1.7-0.2,3.5-0.5,5.7-1.3c1-0.4,1.7-0.7,2.6-1.3c0.9-0.6,1.2-1,2.3-1.7
					c0.5-0.3,0.7-0.4,1.9-1c2.8-1.5,3.6-2.1,4-2.4c1.2-1,1.4-1.5,1.6-2c0.1-0.3,0.1-0.6-0.1-1.5C125.8,463.3,125.7,463,125.7,462.8
					L125.7,462.8z"/>
				<path class="st7" d="M117.6,459.7c-0.8-0.5-1.7-0.9-2.7-1.2c-1.1-0.4-2.2-0.6-3.3-0.8c-0.1,0-0.3,0.1-0.3,0.2s0.1,0.2,0.2,0.2
					c1.1,0.1,2.2,0.4,3.2,0.7c0.9,0.3,1.8,0.7,2.6,1.2c0.1,0.1,0.3,0,0.3-0.1C117.8,459.9,117.7,459.8,117.6,459.7L117.6,459.7z"/>
				<path class="st7" d="M115.1,460.6c0,0-0.3-0.3-0.6-0.5c-1-0.7-2.2-1.2-3-1.5c-0.1,0-0.3,0-0.3,0.1s0,0.2,0.1,0.3
					c0.8,0.3,2,0.8,2.9,1.5c0.3,0.2,0.6,0.5,0.6,0.5c0.4,0.4,0.9,0.8,1.2,1.3c0.1,0.1,0.2,0.1,0.3,0.1c0.1-0.1,0.1-0.2,0.1-0.3
					C116,461.5,115.6,461,115.1,460.6L115.1,460.6z"/>
				<path class="st7" d="M113.9,461.1c-0.6-0.1-1.2-0.2-1.8-0.3c-0.8-0.1-1.6,0-2.4,0.1c-0.1,0-0.2,0.1-0.2,0.3
					c0,0.1,0.1,0.2,0.3,0.2c0.8-0.1,1.5-0.1,2.3-0.1c0.6,0,1.2,0.1,1.7,0.3c0.1,0,0.3,0,0.3-0.2C114.1,461.3,114,461.1,113.9,461.1
					L113.9,461.1z"/>
				<path class="st7" d="M113.8,462.6c-0.9-1-1.9-1.9-3.1-2.6c-0.1-0.1-0.3,0-0.3,0.1c-0.1,0.1,0,0.2,0.1,0.3
					c1.1,0.7,2.1,1.5,2.9,2.5c0.4,0.5,0.7,1,1.1,1.5c0.1,0.1,0.2,0.2,0.3,0.1c0.1-0.1,0.2-0.2,0.1-0.3
					C114.6,463.7,114.2,463.1,113.8,462.6L113.8,462.6z"/>
				<path class="st7" d="M112.3,462.8c-0.4-0.2-0.7-0.3-1.1-0.4c-0.9-0.3-1.8-0.4-2.8-0.3c-0.1,0-0.2,0.1-0.2,0.3
					c0,0.1,0.1,0.2,0.3,0.2c0.9-0.1,1.8,0,2.6,0.3c0.4,0.1,0.7,0.2,1,0.4c0.1,0.1,0.3,0,0.3-0.1C112.5,463,112.4,462.9,112.3,462.8
					L112.3,462.8z"/>
				<path class="st7" d="M111.9,463.9c-0.8-0.9-1.8-1.6-2.9-2.1c-0.1-0.1-0.3,0-0.3,0.1c-0.1,0.1,0,0.2,0.1,0.3c1.1,0.5,2,1.2,2.7,2
					c0.5,0.5,0.8,1.1,1.1,1.7c0.1,0.1,0.2,0.2,0.3,0.1c0.1-0.1,0.2-0.2,0.1-0.3C112.8,465.1,112.4,464.5,111.9,463.9L111.9,463.9z"
					/>
				<path class="st7" d="M110.2,465.3c-0.6-0.9-1.5-1.7-2.4-2.4c-0.1-0.1-0.3,0-0.3,0.1c-0.1,0.1,0,0.2,0.1,0.3
					c0.9,0.6,1.7,1.4,2.3,2.2c0.4,0.5,0.7,1.1,0.9,1.7c0,0.1,0.2,0.2,0.3,0.1c0.1,0,0.2-0.2,0.2-0.3
					C110.9,466.5,110.6,465.9,110.2,465.3L110.2,465.3z"/>
				<path class="st7" d="M110.4,464.4c-0.8-0.1-1.6-0.3-2.3-0.4c-0.5-0.1-1-0.2-1.5-0.2c-0.1,0-0.2,0.1-0.3,0.2
					c0,0.1,0.1,0.2,0.2,0.3c0.5,0.1,1,0.1,1.5,0.2c0.8,0.1,1.6,0.3,2.3,0.4c0.1,0,0.3-0.1,0.3-0.2
					C110.6,464.5,110.5,464.4,110.4,464.4L110.4,464.4z"/>
				<path class="st7" d="M108.2,466.7c-0.1-0.1-0.1-0.2-0.2-0.2c-0.4-0.4-0.8-0.6-1-0.8c-0.1,0-0.1-0.1-0.2-0.1
					c-0.3-0.2-0.6-0.4-0.9-0.7c-0.1-0.1-0.2-0.1-0.3,0c-0.1,0.1-0.1,0.2,0,0.3c0.3,0.3,0.6,0.6,1,0.8c0.1,0,0.1,0.1,0.2,0.1
					c0.3,0.2,0.6,0.3,0.9,0.7c0.1,0.1,0.1,0.1,0.2,0.2c0.3,0.3,0.5,0.6,0.8,1c0.1,0.1,0.2,0.1,0.3,0.1c0.1-0.1,0.2-0.2,0.1-0.3
					C108.8,467.4,108.5,467.1,108.2,466.7L108.2,466.7z"/>
				<path class="st7" d="M109.3,465.8c-1.3-0.4-2.5-0.5-3.8-0.3c-0.5,0.1-0.9,0.2-1.4,0.3c-0.1,0-0.2,0.2-0.2,0.3
					c0,0.1,0.2,0.2,0.3,0.1c0.4-0.1,0.9-0.2,1.3-0.3c1.2-0.2,2.4-0.1,3.6,0.3c0.1,0,0.3,0,0.3-0.1
					C109.5,466,109.4,465.8,109.3,465.8L109.3,465.8z"/>
				<path class="st13" d="M139,380.2c-3.1-0.2-3,1-14.4,6.5c-2.6,1.3-21.4,8.5-21,16.9c0.1,1,4.4,1.2,6,2.2c1.3,0.8,4.4,2.7,8.7,2.7
					c4,0,4.5-1.5,10.6-3.5c3.6-1.2,10.1-2.8,16.5-3.8c1.6-0.3,3.5-0.5,5.1-2c2.5-2.3,2.4-6,2.4-6.7
					C152.6,386.6,145.8,380.6,139,380.2L139,380.2z"/>
				<path class="st13" d="M124.6,425c-0.1-4.7-0.9-10.4-2.4-14.5c-1.8-5-3.2-4.5-4.4-5.2c-2.8-1.6-10.5-6.2-13.4-4.2
					c-2.7,1.8,1.4,15,2.5,17.5c1.7,3.8,2.2,6.8,3,11.3c1.2,7.1,1.7,20.8,0.8,23.4c-0.4,1.1-0.8,1.9-0.4,2.8c0.9,1.6,4,1.8,7.3,2.1
					c2.8,0.2,6.7-1,6.7-2.3c0.1-2.9-0.4-6.4-0.5-9.3c-0.1-1.2,0-1.7,0.2-7.8C124.4,430.2,124.6,425.8,124.6,425L124.6,425z"/>
				<path class="st15" d="M148.5,384.4c-0.8,1.9-1.9,4-3.7,5.9c-1.7,1.8-3.7,3.2-11.7,6.6c-12.6,5.3-16.1,5.3-17.4,8.4
					c-1.1,2.7,1.1,3.5,3.1,11.1c1.7,6.6,1.7,12.2,1.7,21.4c0,3.8-0.2,5.9-0.2,7.7c-0.1,3.3,0,7.5,0.8,12.4c1.8-0.4,3.3-1.2,3.3-2
					c0.1-2.9-0.4-6.4-0.5-9.3c-0.1-1.2,0-1.7,0.2-7.8c0.4-8.6,0.6-13,0.6-13.8c-0.1-4.7-0.9-10.4-2.4-14.5c-0.3-1-0.7-1.7-1-2.3
					c1.9-0.6,3.4-1.7,7.7-3.1c3.6-1.2,10.1-2.8,16.5-3.8c1.6-0.3,3.5-0.5,5.1-2c2.5-2.3,2.4-6,2.4-6.7
					C152.8,389.6,151,386.7,148.5,384.4L148.5,384.4z"/>
				<path class="st16" d="M107.6,337.4c-0.7,0-0.2-0.6-0.7,0c-1.5,1.6-3.3,5.3-3.4,16.6c0,1.8,0.4,3.1,0.7,7.4
					c0.1,1.8,0.2,2.7-0.2,3.8c-0.3,0.9-0.7,1.6-1,3c-0.2,0.9-0.3,1.9,0.1,2.1s0.8-0.3,1.8-0.6c1.4-0.4,2.7-0.1,3.7,0.1
					c2.3,0.6,2.8,1.8,3.6,1.6c1.6-0.4,1.5-5.3,1.5-5.7C113.5,356.9,111.4,337.3,107.6,337.4L107.6,337.4z"/>
				<path class="st17" d="M82.3,393.1l39.3,2.9v-8.4L80.4,388L82.3,393.1z"/>
				<path class="st18" d="M154.7,343.7c0.2-4,2.3-6.2,0.5-8.7c-1.5-2.1-5.6-3.6-10.1-5.4c-3.3-1.3-5.5-1.6-6.2-1.7s-2.3-0.2-5.2,0
					c-0.9,0.1-3.8,0.4-8.9,1.7c-1.3,0.4-6,1.7-12.2,4.3c-3.1,1.4-4.7,2.1-5.3,2.8c-2.1,2.6-0.7,5.8,1.5,14.3
					c2.2,8.8,4.2,22.3,5.5,28.4c0.3,1.3,0.6,2.9,2,3.8c1.9,1.2,4.2,0.2,7-0.4c4.9-1.1,9.8-0.9,12.8-0.2c7.5,1.6,11.9,7.4,12.2,7.8
					c2.7,3.7,3.9,8,4.7,7.3c1.1-1.1,2.4-12.8,2.5-13.3c0.1-1.8,0.4-5.8-0.1-11c-0.4-4.6-0.9-5.4-1.7-12.2c-0.4-3.9-0.6-6-0.5-8
					C153.4,348.8,154.4,348.2,154.7,343.7L154.7,343.7z"/>
				<path class="st16" d="M154.7,343.7c0.2-4,2.3-6.2,0.5-8.6c-2.8,0.4-6,1.5-8.4,3.8c-2.9,2.8-2.5,5-3.8,9.2
					c-3.7,11.9-0.5,25.7-2.4,36.3c4.7,2.3,7.4,5.9,7.7,6.2c2.7,3.7,3.9,8,4.7,7.3c1.1-1.1,2.4-12.8,2.5-13.3c0.1-1.8,0.4-5.8-0.1-11
					c-0.4-4.6-0.9-5.4-1.7-12.2c-0.4-3.9-0.6-6-0.5-8C153.4,348.8,154.4,348.2,154.7,343.7L154.7,343.7z"/>
				<path class="st19" d="M108.7,351.3c-0.1-0.1-0.2-0.2-0.4-0.2c-0.1,0.1-0.2,0.2-0.2,0.4c1,2.4,1.8,4.9,2.5,7.4
					c1.1,4.1,1.7,8.3,1.9,12.6c0,0.1,0.1,0.3,0.3,0.3c0.2,0,0.3-0.1,0.3-0.3c-0.2-4.3-0.8-8.6-1.9-12.7
					C110.5,356.3,109.7,353.8,108.7,351.3z"/>
				<path class="st20" d="M132.1,321.6c-0.9-2.3-0.4-3.2-1.3-3.7c-2.8-1.6-12.4,5.9-11.2,10.6c0.4,1.5,1,1.5,1.1,3.9
					c0,0.6,0,1.8,0.6,4.6c0.2,0.9-1.3,0.6-1.7,1.4c-0.5,1-1.1,2.8-0.5,3.9c1,2,5.3,1.6,5.6,1.6c7.6-0.6,15.1-10.6,12.9-15.6
					C136.6,326,133.7,325.6,132.1,321.6z"/>
				<path class="st18" d="M140.1,328.9c-1.3-0.9-4.2-2.5-5.3-3.5c-0.9,2.4-2.2,5.4-4.9,6.3c-1.6,0.5-3.5,1.2-4.2,1.1
					c-0.4-0.1-0.5,1.8-1.3,5.6c-0.7,3-0.6,4.7-1.1,4.8c-0.3,0-1-1.3-2.2-7.3c-0.1,0.3-1.3,0.1-1.5,0.4c-0.4,0.8-1.8,2.2-2.2,3
					c-0.5,1,0.4,3.6,1,4.7c1,2,5.9,1.9,6.2,1.9C132.4,345.2,144.7,332,140.1,328.9L140.1,328.9z"/>
				<path class="st19" d="M124.5,348.5c-0.2-1.5-0.4-3.1-0.7-4.6c0-0.1-0.2-0.3-0.3-0.2c-0.2,0-0.3,0.2-0.2,0.3
					c0.2,1.5,0.4,3.1,0.7,4.6c0.7,5.2,1.5,11.1,2,18.1c0.3,4.2,0.4,8.6,0.4,12.9c0,0.2,0.1,0.3,0.3,0.3c0.2,0,0.3-0.1,0.3-0.3
					c0-4.3-0.1-8.7-0.4-12.9C126,359.6,125.2,353.7,124.5,348.5z"/>
				<path class="st19" d="M124.4,343.2C124.3,343.2,124.3,343.2,124.4,343.2v0.6h0.1h0.1c0.1,0,0.3,0.1,0.3,0.2
					c0.7,2.1,1.7,8.8,2.4,16.1c0.8,8.3,1.1,14.9,0.7,17.8c0,0.1,0.1,0.3,0.2,0.3c0.2,0,0.3-0.1,0.3-0.2c0.9-6.7-1.7-30.4-3.1-34.3
					C125.2,343,124.6,343.1,124.4,343.2z"/>
				<path class="st19" d="M133.6,328c-4.4,3.6-8.2,5-8.2,5c2.8,1.7,4,8.9,4,8.9s2.8-0.5,6.1-5.7c1.2-1.9,2.7-4.6,3.8-8.2
					c-0.2,0-0.4-0.1-0.5-0.1C138.1,327.9,135.8,326.2,133.6,328L133.6,328z"/>
				<path class="st19" d="M115.1,334.5c0.7,2.3,3.7,8.3,3.7,8.3s0.9-6,3.3-11.8c-1.8,0.5-3.7,0.6-7.3,2.1
					C114.9,333.6,115,334,115.1,334.5z"/>
				<path class="st21" d="M118.6,330.1c-0.9,0-2.6,1.8-2.9,2.6c-0.2,0.7,2.4,6.7,3.1,6.6c0.5-0.1,0.2-2.2,1.4-4.2
					c0.6-1,0.6-2.3,0.6-2.7S119.1,330.1,118.6,330.1z"/>
				<path class="st21" d="M150.8,333.8c-1.9,0.5-3.2,1.4-3.9,2.1c-2,2-2.7,4.4-3,5.6c-1.8,7.7-0.6,27.5,0,27.5
					c2.6,0.3,4.8,7.9,8.7,6.7c0.6-0.2,2.7-2.5,4.6-7.8c1.9-5.4,2.4-10,2.6-12.9c0.7-8.6-0.5-12.7-1.2-14.5
					C157.9,338.2,155.1,332.8,150.8,333.8L150.8,333.8z"/>
				<path class="st22" d="M119.6,328.5c0.4,1.5,1,1.5,1.1,3.9c0,0.3,0.1,1.5,0.2,2.3c9.4-0.6,9.5-14.6,9.4-17
					C127.1,317.1,118.6,324,119.6,328.5L119.6,328.5z"/>
				<path class="st23" d="M86.5,391l34.3,3.6l16.1-10.8L85.1,377L86.5,391z"/>
				<path class="st24" d="M121.6,396l15.3-10.3v-1.9l-16.1,10.5L121.6,396z"/>
				<path class="st20" d="M130.3,306.7c-0.8-1.9-1.4-3.5-3.2-4.8c-3.8-2.9-9.1-1.3-9.8-1.1c-1.2,0.3-4.7,1.4-6.3,4.4
					c-0.9,1.7-1,3.5-1.1,5.9c-0.1,1.6,0.1,2.9,0.1,3.3c0.2,1.9,0.4,1.6,0.6,3.5c0.1,1.1,0.1,1.6,0.5,2.1s0.9,0.6,1.4,1.2
					c0.3,0.5,0.4,1,0.4,1.3c0.2,1.2,0.7,2,1.8,3.7c1,1.6,1.5,2.4,2.4,3c0.3,0.2,0.8,0.5,1.3,1.1s0.5,1,0.8,1.3
					c0.8,0.9,2.5,0.7,3,0.6c2.6-0.3,4.3-2.6,5.5-4.1c2.7-3.6,3.3-7.2,3.6-8.8c0.4-2.4,0.3-4.2,0.2-5.8
					C131.5,311.3,131.4,309.2,130.3,306.7L130.3,306.7z"/>
				<path class="st25" d="M128.9,302.8c-7.8-7.2-19.8-1.1-19.7,7.3c0,0.7-0.3,3.3,0.7,3.9c1.6,1,4.2-0.5,5.6-1.1
					c0.8-0.3,2.6-1.3,4-2.8c0.2-0.2,0.5-0.5,1-0.6c1-0.2,1.9,0.9,2.2,1.2c1,1.1,1.3,2.3,1.6,3.1c1.1,3.4,3.3,4.8,3.4,3
					c0-1.4,0.3-2.1,0.7-2.6c0.3-0.4,0.5-0.7,0.8-0.7c1.2-0.2,1.8,3.9,2.4,3.7c0.5-0.1,0.7-3,0.3-5.6
					C131.4,307.3,131.1,304.8,128.9,302.8L128.9,302.8z"/>
				<path class="st21" d="M134.2,324.2c-0.5-0.1-0.4,3.2-3.5,5.6c-2,1.6-3.8,2.6-5,3c-0.6,0.2,1,0.8,1.7,1.8
					c2.3,3.1,2.8,5.3,2.8,5.3s1.6-0.2,6.2-6.9c1.1-1.6,1.9-3.9,2.2-5c0.1-0.5,0-0.9-0.4-1.3C137.4,326,135.9,324.7,134.2,324.2
					L134.2,324.2z"/>
				<path class="st20" d="M145.3,367.1c-0.6,0.1-1.4,0.6-2.9,1.7c-1.5,1-3.1,2.1-4.8,3.9c-0.7,0.8-1,1.3-1.9,1.8
					c-0.8,0.5-1.1,0.4-2.7,1c-1.1,0.4-2.7,0.9-4.5,1.9c-0.5,0.3-0.9,0.5-1.6,0.7c-0.3,0.1-1.2,0.3-2.4,0.1c-1.3-0.2-1.4-0.6-3.4-1.4
					c-1.4-0.6-2.2-0.9-2.9-0.7c-0.3,0.1-0.8,0.4-1.8,1.1c-0.9,0.6-1.4,0.9-1.5,1c-1.4,1.2-1.8,3.6-1,4.3c0.2,0.2,0.5,0.2,1,0.7
					c0.3,0.3,0.3,0.5,0.6,0.8c0.1,0.1,0.8,1.1,1.6,1c0.8-0.1,1.3-1.2,1.6-1.9c0.3-0.6,0.2-0.8,0.5-1.1c0.6-0.8,1.8-1.1,2-0.8
					c0.1,0.1-0.2,0.5-0.7,1.4c-0.5,0.7-0.6,0.8-0.8,1.2c-0.2,0.5-0.4,0.9-0.2,1.4c0.2,0.4,0.8,0.7,1.1,0.5c0.4-0.1,0.2-0.6,0.8-1.1
					c0.1-0.1,0.4-0.4,1-0.5s1,0.1,1.4,0.3c0.8,0.4,0.7,0.6,1.2,0.8c1.2,0.6,2.8-0.3,3-0.4c0.5-0.3,0.5-0.4,1-0.7
					c1.1-0.6,2.1-0.6,2.5-0.6c2.4-0.1,6.9-1.1,8.4-1.4c2.4-0.5,4.2-1.4,7.8-3.3c4.2-2.1,6.2-3.2,6.5-4.5
					C154.7,370.9,149.1,366.3,145.3,367.1L145.3,367.1z"/>
				<path class="st22" d="M119.8,378.7c-0.5,0-1.1,0.1-1.6,0.2c-0.7,0.2-1.2,0.4-1.4,0.6c-0.5,0.5-0.4,1.1-0.4,1.4v0.2
					c0,0.7,0,1.3-0.5,2.8c0,0.1,0,0.2,0.1,0.3c0.1,0,0.3,0,0.3-0.1c0.6-1.6,0.6-2.3,0.6-3V381c0-0.3,0-0.8,0.3-1.1
					c0.1-0.1,0.4-0.3,1.2-0.5c0.5-0.1,1-0.2,1.5-0.2c0.1,0,0.2-0.1,0.2-0.2C120,378.8,119.9,378.7,119.8,378.7L119.8,378.7z"/>
				<path class="st22" d="M117.5,377.7c0-0.1-0.2-0.2-0.3-0.2c-0.3,0.1-0.6,0.2-0.8,0.4c-0.4,0.3-0.6,0.6-0.9,0.9
					c0,0-0.5,0.6-0.7,1.3c-0.3,0.9-0.4,1.9-0.3,2.7c0,0.1,0.2,0.2,0.3,0.2c0.1,0,0.2-0.2,0.2-0.3c-0.1-0.7,0-1.6,0.3-2.4
					c0.2-0.6,0.7-1.2,0.7-1.2c0.3-0.4,0.4-0.6,0.7-0.8c0.2-0.1,0.4-0.2,0.7-0.3C117.5,377.9,117.5,377.8,117.5,377.7L117.5,377.7z"
					/>
				<path class="st17" d="M72.5,366.7l-1,1.1l10.7,23.5l38.3,3.9l0.2-0.8l0.7-0.5l-7.8-24.9L72.5,366.7z"/>
				<path class="st26" d="M71.6,367.8l9.7,24.5l39.3,2.9l-7.9-25.1L71.6,367.8z"/>
				<path class="st27" d="M111.3,370c0,3.5-0.7,8-3.9,12c-4.6,5.9-11.5,7.3-15.8,8.2c-4.2,0.9-8,0.8-11,0.5l0.6,1.6l39.3,2.9
					l-7.9-25.1L111.3,370L111.3,370z"/>
				<path class="st28" d="M76.2,379.3l1.9,4.9L89,368.8l-5.2-0.3L76.2,379.3z"/>
				<path class="st29" d="M121.4,316.3c-0.8,0.1-1.5,0.3-2.3,0.5c-0.5,0.2-0.9,0.4-1.4,0.6c-0.2,0.1-0.2,0.3-0.1,0.5
					s0.3,0.2,0.5,0.1c0.4-0.2,0.8-0.4,1.3-0.5c0.7-0.2,1.4-0.4,2.1-0.5c0.2,0,0.3-0.2,0.3-0.4C121.7,316.4,121.6,316.2,121.4,316.3
					L121.4,316.3z"/>
				<path class="st29" d="M113.9,318.5c-0.4,0.1-0.8,0.2-1.1,0.3c-0.6,0.2-1.1,0.5-1.6,0.9c-0.1,0.1-0.1,0.3,0,0.4s0.3,0.2,0.4,0.1
					c0.5-0.3,0.9-0.6,1.5-0.8c0.3-0.1,0.7-0.2,1-0.3c0.1,0,0.2-0.2,0.2-0.4C114.2,318.6,114,318.4,113.9,318.5L113.9,318.5z"/>
				<path class="st22" d="M119.3,324.6c-0.1-0.1-0.2-0.1-0.3-0.1c-0.9,0.4-1.5,0.6-1.9,0.4c-0.3-0.2-0.3-0.6-0.4-1.3
					c0-0.3-0.1-0.6-0.1-1c-0.1-0.8-0.2-1.5-0.4-2.3c0-0.1-0.1-0.2-0.3-0.1c-0.1,0-0.2,0.1-0.2,0.2c0.2,0.7,0.3,1.5,0.4,2.2
					c0,0.4,0.1,0.7,0.1,0.9c0.1,0.9,0.1,1.3,0.5,1.6c0.4,0.3,1,0.2,1.8-0.1c0.2-0.1,0.3-0.1,0.5-0.2
					C119.3,324.8,119.4,324.7,119.3,324.6L119.3,324.6z"/>
				<path class="st29" d="M119.4,318.4c-0.3,0.1-0.5,0.6-0.3,1.1s0.6,0.8,0.9,0.7c0.3-0.1,0.5-0.6,0.3-1.1
					C120.1,318.6,119.7,318.3,119.4,318.4z"/>
				<path class="st29" d="M113.7,320.2c-0.3,0.1-0.5,0.6-0.3,1.1s0.6,0.8,0.9,0.7c0.3-0.1,0.5-0.6,0.3-1.1
					C114.4,320.4,114,320.1,113.7,320.2z"/>
				<path class="st7" d="M121.3,325.3l-1,0.5c-0.8,0.4-1.6,0.6-2.5,0.8l-0.6,0.1c-0.3,0-0.4,0.3-0.2,0.5c0.5,0.5,1.5,1,2.6,0.6
					s2-1.5,2.2-2.2C121.8,325.4,121.5,325.2,121.3,325.3L121.3,325.3z"/>
				<path class="st30" d="M122.2,320.1c-0.8,0.4-1.3,1.1-1.1,1.6c0.2,0.5,1.1,0.6,1.9,0.2s1.3-1.1,1.1-1.6
					C123.9,319.8,123,319.7,122.2,320.1z"/>
				<path class="st20" d="M128.8,313.3c-1,0-1.5,1.4-1.5,1.5c-0.7,2.1,1,5.2,2.2,5.1c1.1,0,2.2-2.6,1.4-4.6
					C130.6,314.4,129.8,313.2,128.8,313.3z"/>
				<path class="st22" d="M129.3,318C129.2,318.1,129.2,318.1,129.3,318C129.2,318.1,129.2,318.1,129.3,318z"/>
				<path class="st22" d="M128.3,315.5c-0.3,0.2-0.5,0.6-0.5,1c0,0.2,0.1,0.3,0.3,0.2c0.1,0,0.2-0.1,0.2-0.2c0-0.3,0.1-0.5,0.3-0.6
					c0.2-0.2,0.6-0.1,0.8,0.1s0.3,0.5,0.3,1c0,0.4-0.2,0.7-0.2,0.9c0.1-0.1,0.1-0.3,0,0c0,0,0,0.1-0.1,0.1c0,0,0,0.1-0.1,0.1
					c-0.2,0.5,0.1,0.5,0.1,0.5c0.3-0.1,0.5-0.6,0.6-0.8c0.2-0.7,0.2-1.7-0.3-2.1C129.3,315.4,128.7,315.2,128.3,315.5L128.3,315.5z"
					/>
				<path class="st22" d="M129.3,318c0,0,0-0.1,0.1-0.1l0,0C129.3,317.9,129.3,318,129.3,318L129.3,318z"/>
				<path class="st22" d="M130.2,314c-0.2-0.2-0.5-0.6-1-0.7s-0.9,0.1-1.1,0.2c-0.6,0.3-0.8,0.9-0.9,1.3c0,0.1,0.1,0.3,0.2,0.3
					s0.2,0,0.2-0.2c0.1-0.3,0.3-0.8,0.7-1.1c0.1-0.1,0.4-0.3,0.8-0.2c0.3,0.1,0.6,0.3,0.7,0.5c0.4,0.5,0.7,1.1,0.8,1.9
					c0.2,1.4-0.3,2.7-0.7,2.9c-0.1,0.1-0.1,0.2-0.1,0.3c0,0.4-0.1,0.8-0.5,0.9c-0.2,0.1-0.3,0-0.4-0.2c-0.1-0.1-0.2-0.2-0.3-0.1
					c-0.1,0-0.2,0.2-0.1,0.3c0.2,0.3,0.4,0.7,1,0.5c0.7-0.2,0.7-1,0.8-1.3l0,0c0.6-0.4,1-1.8,0.8-3.3C131,315,130.6,314.4,130.2,314
					L130.2,314z"/>
				<path class="st22" d="M128.5,316.6c-0.3-0.1-0.6,0-0.6,0c0,0.1,0.2,0.1,0.5,0.3c0.5,0.4,0.5,1.1,0.6,1c0.1,0,0.1-0.4,0-0.7
					C128.9,317.1,128.8,316.8,128.5,316.6L128.5,316.6z"/>
				<path class="st31" d="M283.1,379.2c1.5,1.5-0.5,2.9,2.2,5.9c1.5,1.7,4.4,2.6,6.2,3.4c1.5,0.7,3.5,1.2,5,1.5
					c2,0.4,2.8,0.5,3.4,1.3c0.9,1.2,0.7,2.9,0.6,3.2c-0.1,0.4-0.2,1-0.6,1.7c-0.6,0.9-1.5,1.3-2.4,1.5c-4.8,1.3-10.7-0.3-10.7-0.3
					c-2.2-0.6-3.1-1.1-5.8-1.6c-1.7-0.3-3.2-0.6-4.8,0c-2.7,1.1-8.3,0.4-8.4-2.6c-0.1-3.2,0.2-5.3,0.2-5.3c0.7-5.6,1.1-8.4,1.6-9
					C272.2,375.5,279.6,375.8,283.1,379.2z"/>
				<path class="st20" d="M288.7,388.5c0.1-0.3,0.1-0.6,0.1-1.1c-1.3-0.6-2.6-1.3-3.5-2.3c-2.7-3.1-0.7-4.4-2.2-5.9
					c-3.4-3.4-10.8-3.7-13.5-0.4c-0.5,0.6-0.8,3.2-1.5,8.3c1.5,0.5,3.5,1.1,5.7,1.6C275.5,389.3,287.4,391.9,288.7,388.5z"/>
				<path class="st31" d="M260.9,390.3c3,3,1.8,5.4,5.3,7.9c2.1,1.5,4.3,3,6.9,3.3c0.4,0,1.1,0.1,1.8,0.6c1.2,0.9,1.8,2.8,1.3,4.3
					c-0.4,1.2-1.3,1.8-2,2.3c-3.1,2.1-6.7,1.8-7.1,1.7c-2.3-0.3-4.3-1.3-6.3-2.4c-1.6-0.9-2.6-1.6-4.4-1.8c-1.6-0.2-3-0.1-3-0.1
					c-1.5,0.2-2,0.5-2.9,0.3c-1.4-0.2-2.2-1.3-2.4-1.5c-1.4-1.6-1-3.9-0.8-5.7c1.1-9.1,0.9-10.5,2.6-12
					C252.5,385,257.5,386.9,260.9,390.3L260.9,390.3z"/>
				<path class="st28" d="M266.1,408.3c-0.9-0.3-1.1-0.5-4.7-2.1c-2.3-1.1-3.5-1.6-4-1.8c-2.9-1-3.9-0.7-6.6-1.5
					c-1-0.3-2.3-0.8-3.9-1.7c-0.1,1.3,0.1,2.7,1,3.8c0.2,0.2,1,1.2,2.4,1.5c1,0.2,1.4-0.2,2.9-0.3c0,0,1.4-0.1,3,0.1
					c1.8,0.3,2.8,1,4.4,1.8c2,1.1,4,2.1,6.3,2.4c0.4,0,4,0.4,7.1-1.7c0.4-0.3,0.8-0.6,1.2-1c-1,0.6-2.2,1-3.6,1.2
					C269.1,409.2,266.9,408.6,266.1,408.3L266.1,408.3z"/>
				<path class="st20" d="M266.4,399.2c0.1-0.2,0.1-0.4,0.1-0.7c-0.1-0.1-0.2-0.2-0.4-0.3c-3.5-2.5-2.3-4.9-5.3-7.9
					c-3.4-3.4-8.4-5.2-11.1-2.9c-1.4,1.2-1.4,2.4-2.1,7.9c0.6,0.4,1.4,0.8,2.2,1.2C256.5,400,265.2,401.4,266.4,399.2L266.4,399.2z"
					/>
				<path class="st15" d="M284.7,381c-0.7-3.1,0.3-10.5,1.9-26.9c1-10,2.9-10.7,4.5-24.5c0.6-5.1,0.7-8.3,1.1-17.4
					c1.4-35.3,1.5-38.2-0.8-39.5c-5.6-3.1-19.7,6-22.9,17.6c-0.7,2.6-0.3,6.5,0.5,14.3c1.4,13.5,3.7,17.8,3.2,28.4
					c0,1-0.3,3.5-0.8,8.4c-0.7,7.1-1.4,12.5-2.4,20.2c-2.1,17.2-0.9,22.7-0.9,22.7C271.5,388,286,386.9,284.7,381L284.7,381z"/>
				<path class="st32" d="M270.6,366.7c0.1-0.9,0.9-6.7,2.4-18.1c1.1-8,1.6-11.5,2-16.8c0.5-7.5,1.1-17.5,2.7-30.8
					c0.5-3.9,1.2-15,0.3-15.6c-2.1-1.3-8.3,11.7-9.6,13.2c0,0.1-0.1,0.1-0.1,0.2c0.2,1.6,0.3,3.6,0.6,5.8
					c1.4,13.5,3.7,17.8,3.2,28.4c0,1-0.3,3.5-0.8,8.4c-0.7,7.1-1.4,12.5-2.4,20.2c-2.1,17.2-0.9,22.7-0.9,22.7
					c0.7,0.7,1.9,1.3,3.4,1.6C270.2,378,270.3,371.5,270.6,366.7L270.6,366.7z"/>
				<path class="st13" d="M278.4,273.8c1.2,3-3,35.6-6.9,50c-0.9,3.3-0.8,5.4-2.1,13c-1,6-2,12-3,18c-3.9,23.1-2.6,32.6-2.3,39
					c0.2,4.9-17.4,0.9-17.5-2.2c-0.7-19.5,0.4-21.6,2.5-37.1c0.3-2.1,1.7-12.3,3.4-22.2c0.2-1,0.5-2.7,0.7-5.1
					c0.5-7-0.6-12.4-1.1-14.5c-5.8-26.9-4.4-37.7-3.1-39.3C253.9,267.6,274.7,264.7,278.4,273.8L278.4,273.8z"/>
				<path class="st33" d="M293.3,201.2c0,0,4.6,2,6.2,5.4c3.9,8.3,3.7,21.7,4,24.1c0.5,4.5,0.9,7.2-0.8,9.1
					c-1.3,1.5-2.2,16.4-3.3,15.1c-4.9-6.2-4.9-16.5-4.9-20.5c0-5-0.1-6.4,0.4-10.6C296,212.4,291.8,201.7,293.3,201.2L293.3,201.2z"
					/>
				<path class="st34" d="M303.4,233.3l5.1,0.3c0.5,0,1-0.2,1.3-0.6l9.9-12.2c0.3-0.4-0.1-1.7-1.2-1.6l-7.8,0.3
					c-0.5,0-0.9,0.3-1.2,0.7l-7.2,11C301.6,231.9,302.3,233.2,303.4,233.3L303.4,233.3z"/>
				<path class="st35" d="M310.3,241.7c-0.6,1.1,0.2,1.6,0.3,3.6c0,2.4-1,4.3-2.1,6.1c-0.3,0.5-0.6,1.1-1.2,1.9
					c-1.2,1.6-2.4,3.1-4.1,3.3c-1.6,0.1-2.8-0.9-3.3-1.3c-1.5-1.3-1.9-3-2.3-4.7c-0.6-2.6-1.2-5.8,0.4-8.1c1.7-2.4,3.7-0.9,6.9-3.6
					c3.2-2.7,2.8-5.6,5.8-7c0.2-0.1,1.8-0.8,2.9-2.2c0.3-0.4,0.7-0.8,0.8-1.4c0.2-0.9-0.1-1.3,0.2-1.7c0.4-0.4,1.3-0.4,1.9-0.1
					c0.7,0.4,1.1,1.3,0.9,2s-0.9,0.6-1.9,1.9c-0.4,0.5-0.5,0.7-0.5,0.9c-0.1,0.6,0.3,0.7,0.4,1.5c0,0.2,0.2,0.9-0.2,1.6
					c-0.3,0.6-0.7,0.6-0.9,1.1c-0.2,0.6,0.3,0.9,0,1.4s-0.9,0.3-1.6,0.9c-0.4,0.4-0.4,0.7-0.8,1.4
					C311.4,240.7,310.8,240.8,310.3,241.7L310.3,241.7z"/>
				<path class="st8" d="M296.5,244.8c3.2-21.1,1-24.2,0-28.9c0.3,2.9-1.3,4.8-1.6,8c-0.4,4.2-0.3,5.6-0.4,10.6c0,2.9,0,9.4,2,15.1
					C296.2,247.6,296.3,246.1,296.5,244.8L296.5,244.8z"/>
				<path class="st36" d="M261.9,194.2c0-1.1,0.8-2.5,1.3-3.1c0.3-0.5,1.8-2.8,3.9-3.5c4.8-1.6,10.8,5.8,12.4,7.9
					c2.2,2.7,3.5,4.4,3,5.5C280.7,204.1,262,199.1,261.9,194.2L261.9,194.2z"/>
				<path class="st37" d="M244.5,205.8c-1,1.1-2.9,3-3,5.6c-0.1,2.7,1.7,4.1,3.8,7.6c2.1,3.6,2.9,6.8,3.5,9.8
					c1.5,6.6,0.5,12.3-0.1,16.2c-1.3,7.7-3.3,9.5-1.9,12.2c2.1,4,3.6,20.5,6,20.6c5.7,0.3,38.4,4.4,40.4-2c0.4-1.3,2.3-32.1,2.3-34
					c0-3.3-1-16.4-0.3-29c0.3-5.1,0.5-7.1-0.9-9.4c-0.7-1.2-1-1.6-3.4-2.6c-3.6-1.4-6.9-1.1-10.6-3.1c-4.8-2.6-8.9-6.9-11.4-9.9
					c-1.4-1.6-3.7-4.1-3.5-3.1C269.9,203.4,246.5,203.7,244.5,205.8L244.5,205.8z"/>
				<path class="st20" d="M264.6,179c-1.4,1.2,1.3,7.5,0.2,12.6c-1.4,6.3-5.5,4.4-6.9,5.3c-1.9,1.3,2.8,3.7,5.2,5.1
					c3.4,2,10.3,9.8,13.5,8.2c5.5-2.8,4.7-11.6,3.7-12.5c-0.7-0.7-1.9,0-2.6-4.5c-0.4-2.7-0.3-5.7-1-8.1
					C275.2,179.6,267,177,264.6,179L264.6,179z"/>
				<path class="st38" d="M294.6,202.3c-1-1.1-1.9-1.4-4.3-2.3c-1.5-0.6-7.1-2.3-8.9-3c0.4,7.8,1.1,10.1,0.8,14
					c-0.6,8.1,0.9,16,1.6,31.5c0.3,6.5-0.1,36.5,0,40.4c6.4-0.4,11.9-0.4,12.2-2.8c0.2-1.4-0.5-29.3-0.5-31.3c0-3.3,1.6-18.4,0.6-36
					C295.8,207.7,296.8,204.6,294.6,202.3L294.6,202.3z"/>
				<path class="st39" d="M271.7,214.2c-0.4-2.2-1.9-4.4-8.7-14.1c-1.2-1.7-2.4-3.2-3.5-4.6c-5.8,5.6-18,10.3-18.7,13.2
					c-0.3,1.4,0.2,0.2,0.1,2.7c-0.1,2.7,1.7,4.1,3.8,7.6c2.1,3.6,2.9,6.8,3.5,9.8c1.5,6.6,4.1,11.1,3.5,15.1c-1.3,7.7-4.4,20.3-3,23
					c2.1,4,6.2-5.2,8.6-5.1c2.2,0.1,7.8-0.2,14-1c0-3.8,0-8.6,0.2-14.2C272.1,231.2,273.1,221.5,271.7,214.2L271.7,214.2z"/>
				<path class="st39" d="M271.7,214.1c-0.4-2.2-1.9-4.4-8.7-14.1c-1.2-1.7-2.4-3.2-3.5-4.6c-5.8,5.6-18,10.3-18.7,13.2
					c-0.3,1.4,0.2,0.2,0.1,2.7c-0.1,2.7,1.7,4.1,3.8,7.6c2.1,3.6,2.9,6.8,3.5,9.8c1.5,6.6,0.3,9.3-0.4,13.2
					c-1.3,7.7-3.6,31.4-2.1,34.2c2.1,4,19.7,4.6,25.9,3.8c0-3.8-0.2-27.8,0-33.4C272.1,231.1,273.1,221.5,271.7,214.1L271.7,214.1z"
					/>
				<path class="st38" d="M271.7,214.1c-0.4-2.2-1.9-4.4-8.7-14.1c-1.2-1.7-2.4-3.2-3.5-4.6c-5.8,5.6-18,10.3-18.7,13.2
					c-0.3,1.4,0.2,0.2,0.1,2.7c-0.1,2.7,1.7,4.1,3.8,7.6c2.1,3.6,2.9,6.8,3.5,9.8c1.5,6.6,0.3,9.3-0.4,13.2
					c-1.3,7.7-3.6,35.6-3.2,38.7c0.2,1.9,21,3.4,27.2,2.6c0-3.8-0.4-31-0.2-36.6C272.1,231.1,273.1,221.5,271.7,214.1L271.7,214.1z"
					/>
				<path class="st40" d="M275.6,212C275.6,212,275.5,212,275.6,212v-0.3c0-0.1,0.1-0.3,0.2-0.3c0.4,0,0.7-0.1,1-0.2
					c1.6-0.5,2.4-1.7,2.9-2.4c1.9-2.7,2.3-7.1,2.3-8.4c0-0.1,0.1-0.3,0.3-0.3c0.2,0,0.3,0.1,0.3,0.3c-0.1,1.6-0.5,5.9-2.4,8.7
					c-0.6,0.8-1.5,2.1-3.2,2.7C276.5,211.9,276,212,275.6,212L275.6,212z"/>
				<path class="st41" d="M282.1,215.4c0,0.5,0-10.5-0.5-12.5c-1.3-6-3.9-8.3-4-9.4c0-0.7,3.1,1.9,4.5,3.2c0.4,0.3,1.3,1.2,2.4,3.1
					c1.6,2.6,3.2,6.5,2.2,7.2c-0.6,0.4-1.8-0.5-2-0.2s1,1.1,1.2,2.2C286.4,211,282.1,215.4,282.1,215.4L282.1,215.4z"/>
				<path class="st22" d="M278.8,196.6c-0.6-0.8-0.9-2.3-1.1-3.4c-3.7,0.1-6.4-0.7-8.4-1.9c-2.4-1.3-3.8-4.2-4.4-4.6
					c-0.1,0.1,0.1,1.1,0.1,1.2C265.6,189.8,269,197.1,278.8,196.6z"/>
				<path class="st20" d="M284.2,176c0,1.5-0.2,3.7-0.9,6.6c-0.6,2.4-0.3,4.9-1.8,7.6c-1.1,2-2.3,3.2-4.3,4
					c-5.9,2.4-12.5-6.2-13.5-10.3c-0.3-1.3-1.4-6.2,1.3-11.3c0.8-1.4,2.7-5.1,6.9-6.5c1-0.3,4.6-1.5,8,0.5
					C284.5,169.3,284.1,175,284.2,176L284.2,176z"/>
				<path class="st29" d="M271.3,178.5c0-0.3,0.2-0.5,0.5-0.5c1.1-0.1,2.2,0,3.3,0.2c0.7,0.1,1.4,0.3,2,0.5c0.3,0.1,0.4,0.4,0.3,0.6
					c-0.1,0.2-0.4,0.4-0.6,0.3c-0.6-0.2-1.3-0.4-1.9-0.5c-1-0.2-2.1-0.2-3.1-0.2C271.5,178.9,271.3,178.7,271.3,178.5L271.3,178.5z"
					/>
				<path class="st22" d="M277.2,186.8c-0.2,0-0.4-0.1-0.6-0.2c-0.1,0-0.2-0.2-0.2-0.3s0.2-0.2,0.3-0.1c1,0.3,1.8,0.4,2.1,0
					c0.3-0.3,0.2-0.7,0.1-1.6c0-0.3-0.1-0.7-0.1-1.1c-0.1-0.9,0-1.8,0-2.7c0-0.1,0.1-0.2,0.3-0.2c0.1,0,0.2,0.1,0.2,0.2
					c-0.1,0.9-0.1,1.8,0,2.6c0,0.4,0.1,0.8,0.1,1.1c0.1,1,0.1,1.5-0.3,1.9C278.8,186.9,278.2,187,277.2,186.8z"/>
				<path class="st29" d="M275.4,181.1c-0.1,0.6-0.5,1-0.8,1c-0.4-0.1-0.6-0.6-0.5-1.2c0.1-0.6,0.5-1,0.8-1
					C275.3,180,275.5,180.6,275.4,181.1z"/>
				<path class="st29" d="M281.8,182c-0.1,0.6-0.5,1-0.8,1c-0.4-0.1-0.6-0.6-0.5-1.2c0.1-0.6,0.5-1,0.8-1
					C281.6,180.9,281.9,181.4,281.8,182z"/>
				<path class="st29" d="M279.7,179.7c0-0.3,0.2-0.5,0.4-0.5c0.5,0,0.9-0.1,1.4,0c0.6,0,1.2,0.1,1.9,0.2c0.2,0,0.4,0.3,0.3,0.6
					s-0.3,0.4-0.5,0.4c-0.6-0.1-1.2-0.2-1.8-0.2c-0.4,0-0.9,0-1.3,0C279.9,180.1,279.7,179.9,279.7,179.7L279.7,179.7z"/>
				<path class="st8" d="M261.6,202.5c-0.7,3.1-1.7,3.2-1.7,6.3c0,2.7,6,2.4,8.4,0.9c0.3-0.2,0.8-0.1,1.1-0.2
					c-1.3-2-3.3-4.9-6.4-9.5c-0.5-0.7-1-1.4-1.5-2C261.9,199.8,261.9,201.3,261.6,202.5L261.6,202.5z"/>
				<path class="st22" d="M277.5,190.2c1.2,0.2,2-0.3,2.4-0.7c0.1-0.1,0-0.4-0.3-0.4H279c-0.9,0-1.8-0.2-2.7-0.4l-1.1-0.3
					c-0.3-0.1-0.5,0.1-0.4,0.3C275,189.3,276.3,190,277.5,190.2L277.5,190.2z"/>
				<path class="st30" d="M273.2,184c-0.2,0.6-1.1,0.9-2.1,0.6c-1-0.3-1.6-1-1.5-1.6c0.2-0.6,1.1-0.9,2.1-0.6
					C272.7,182.7,273.4,183.4,273.2,184z"/>
				<path class="st42" d="M268.5,172.5c0.8-0.9,6.6,1.1,8.2,1.7c4.8,1.7,7.6,2.2,8.5,0.4c0.7-1.5,0.7-6.1-2.9-9.1
					c-9.8-8.6-19.9-1.2-19.9-1.2s-6.3,4.4-2.9,14.3c0,0,3.1,6.8,4.7,6.8c0.7,0-2.4-6.7-0.9-7.7c0.6-0.4,2.7,0,3.4,0.9
					c1.1,1.4,0.9,0.4,0.9-1.7C267.9,174.4,267.8,173.3,268.5,172.5L268.5,172.5z"/>
				<path class="st20" d="M266.3,178.6c0-0.1-0.9-1.5-2-1.4c-1,0.2-1.7,1.7-1.8,2.7c-0.4,2.4,1.3,5.1,2.5,4.9
					C266.2,184.7,267.5,180.8,266.3,178.6L266.3,178.6z"/>
				<path class="st22" d="M264.8,183.4c-0.3,0-0.6-0.5-0.8-0.8c-0.4-0.7-0.6-1.8-0.1-2.5c0.3-0.4,0.9-0.6,1.4-0.4
					c0.4,0.2,0.6,0.5,0.7,1c0,0.2-0.1,0.3-0.2,0.3s-0.2-0.1-0.2-0.2c-0.1-0.3-0.2-0.5-0.4-0.6c-0.3-0.1-0.7,0-0.8,0.2
					c-0.2,0.2-0.2,0.7-0.1,1.2c0.2,0.7,0.6,1.2,0.6,1.2s-0.7-0.9,0,0C265.3,183.4,264.9,183.4,264.8,183.4L264.8,183.4z"/>
				<path class="st22" d="M265.1,185.8c-0.8-0.1-1-1-1.1-1.3l0,0c-0.7-0.3-1.5-1.9-1.6-3.6c-0.1-1.2,0.2-2.1,0.5-2.6
					c0.2-0.3,0.4-0.8,0.9-1c0.6-0.2,1.1,0,1.2,0.1c0.7,0.3,1.1,0.9,1.3,1.3c0.1,0.1,0,0.3-0.1,0.4c-0.1,0.1-0.2,0-0.3-0.1
					c-0.1-0.3-0.4-0.8-1-1.1c-0.2-0.1-0.5-0.2-0.9-0.1c-0.4,0.1-0.6,0.5-0.7,0.7c-0.4,0.6-0.5,1.4-0.5,2.2c0.1,1.6,0.9,3,1.4,3.1
					c0.1,0,0.2,0.2,0.2,0.3c0.1,0.4,0.3,0.9,0.7,0.9c0.2,0,0.3,0,0.4-0.3c0-0.1,0.2-0.2,0.3-0.2c0.1,0,0.2,0.2,0.2,0.3
					C265.9,185.4,265.7,185.9,265.1,185.8z"/>
				<path class="st22" d="M266,180.9c0,0.1-0.2,0.2-0.5,0.4c-0.4,0.5-0.3,1.3-0.4,1.3s-0.2-0.4-0.2-0.8c0-0.2,0.1-0.6,0.3-0.8
					C265.6,180.8,266,180.8,266,180.9z"/>
				<path class="st41" d="M265.1,188.7c0,0-2.1,1.2-3.5,2.8c-0.8,0.9-1.3,1.4-1.7,2.3c-0.5,1.1-0.6,2.1-0.5,4.4
					c0.1,5.4,0.8,5.1,0.6,8.3c-0.1,1.6-0.3,2.4,0.3,3c1,1,3.5,0.3,4.4,0c1.3-0.4,1.7-1.2,2.3-1c0.6,0.2,0.4,1.2,0.7,2.3
					c0.8,2.5,4.4,6.1,4.4,6.1s0.7-2.1-2.9-8c-2-3.3-2.8-6-3.5-7.8c-2.6-6.8-1.5-9.4-1.3-10.5C264.6,189.6,265.1,188.7,265.1,188.7
					L265.1,188.7z"/>
				<path class="st43" d="M272.2,221.5c-0.2,0-0.3-0.1-0.3-0.3s0-0.5,0-0.9c0-1.1,0-3.5-0.1-3.9l0,0c-0.1-0.2-0.3-0.4-0.5-0.5
					c-0.2-0.2-0.4-0.4-0.7-0.7c-0.3-0.3-0.7-0.8-1.1-1.4c-0.2-0.3-0.5-0.7-0.9-1.3s-0.7-1.1-0.9-1.8c-0.2-0.5-0.2-0.9-0.2-0.9
					c0-0.1,0-0.2,0-0.2c0-0.1,0-0.2-0.1-0.3c-0.1-0.3-0.1-0.5-0.2-0.6s-0.1-0.2-0.2-0.2s-0.2,0-0.4,0.1c-0.3,0.2-0.5,0.3-0.5,0.3
					c-0.5,0.4-0.9,0.5-1.6,0.7c-0.5,0.2-0.9,0.2-1.2,0.3l0,0c-0.8,0.1-1.3,0.2-1.9,0.1c-0.3-0.1-1-0.3-1.3-0.8
					c-0.1-0.2-0.1-0.5-0.2-0.8v-0.1c0-0.3,0-0.6,0-0.8c0.1-1,0.1-1.5,0.1-1.8s0-0.8,0-1.4c0-0.4-0.1-0.7-0.1-1.2
					c0-0.2-0.1-0.4-0.1-0.6v-0.2c-0.1-0.7-0.2-1.3-0.3-2c-0.1-0.9-0.1-1.6-0.1-2.3s0-1.4,0-2.1c0-0.2,0.1-0.3,0.3-0.3
					c0.2,0,0.3,0.1,0.3,0.3c0,0.7,0,1.4,0,2.1c0,0.8,0,1.4,0.1,2.3c0.1,0.7,0.2,1.3,0.3,2v0.2c0,0.2,0.1,0.4,0.1,0.6
					c0.1,0.5,0.1,0.8,0.2,1.3c0,0.6,0,1.1,0,1.4c0,0.3,0,0.7-0.1,1.8c0,0.2,0,0.4,0,0.7v0.1c0,0.3,0,0.5,0.1,0.6
					c0.2,0.4,0.7,0.5,0.9,0.5c0.5,0.1,0.9,0.1,1.6-0.1l0,0c0.3,0,0.6-0.1,1.1-0.3c0.6-0.2,1-0.3,1.4-0.6c0,0,0.3-0.2,0.6-0.4
					c0.4-0.2,0.6-0.2,0.8-0.2c0.3,0.1,0.5,0.2,0.6,0.3c0.2,0.2,0.3,0.5,0.4,0.8c0,0.2,0.1,0.3,0.1,0.4c0,0.1,0,0.1,0,0.2
					c0,0,0.1,0.4,0.2,0.9c0.2,0.6,0.5,1.1,0.8,1.7c0.4,0.6,0.7,1,0.9,1.3c0.4,0.6,0.8,1,1.1,1.3c0.3,0.3,0.5,0.5,0.7,0.7
					s0.4,0.4,0.6,0.7c0.1,0.3,0.2,1.6,0.2,4.1c0,0.3,0,0.7,0,0.9C272.4,221.4,272.3,221.5,272.2,221.5L272.2,221.5z"/>
				<path class="st43" d="M282.3,215.9l-0.1,0.1c0-0.3,0-1.1,0-1.1c2.4-2.5,3.5-4.7,3.6-5.3c0.2-0.9-0.6-1.8-1-2.2
					c-0.1-0.2-0.2-0.2-0.2-0.3s-0.2-0.4,0-0.7c0.1-0.1,0.2-0.1,0.3-0.2c0.1,0,0.2,0,0.6,0.1c0.3,0.1,1,0.4,1.2,0.3
					c0.1-0.1,0.3-0.3,0-1.5l0,0c-0.4-1.6-1.1-3.8-3.6-7.1c-0.1-0.1-0.1-0.3,0.1-0.4c0.1-0.1,0.3-0.1,0.4,0.1
					c2.6,3.4,3.3,5.7,3.7,7.3l0,0c0.1,0.4,0.4,1.6-0.2,2.1c-0.4,0.2-1,0-1.7-0.2c-0.1,0-0.2-0.1-0.2-0.1s0,0,0,0.1
					c0,0,0.1,0.1,0.2,0.2c0.4,0.5,1.3,1.6,1.1,2.7c-0.1,0.7-1.2,2.9-3.6,5.5C282.5,215.3,282.4,216,282.3,215.9L282.3,215.9z"/>
				<path class="st43" d="M296.2,240.3c-0.2,0-0.3-0.1-0.3-0.3c0.2-2.7,0.8-12.4-0.1-25.2c0-0.2,0.1-0.3,0.3-0.3l0,0
					c0.1,0,0.3,0.1,0.3,0.3c0.9,12.9,0.2,22.6,0,25.3C296.5,240.2,296.4,240.3,296.2,240.3z"/>
				<path class="st8" d="M256.3,219.2c0.2-0.7,0.3-2.8,0.7-2.3c8.5,13.5,8.9,26.5,8.9,26.5s2.8,0.2,5.4,1.1c0.4,0.1,1.3,1.2-1.4,1.8
					c-3.5,0.7-10.7-0.6-11.7-1.4C248.7,237.9,255.9,221,256.3,219.2L256.3,219.2z"/>
				<path class="st44" d="M304,234.1l5.1,0.3c0.5,0,1-0.2,1.3-0.6l9.2-12.9c0.3-0.4,0-1-0.5-1l-7.8,0.3c-0.5,0-0.9,0.3-1.2,0.7
					l-7.2,11C302.2,232.7,302.9,234,304,234.1L304,234.1z"/>
				<path class="st8" d="M254.8,263.5c2.1,0.8,4.1,0.3,5.7-0.2c3.1-1,7.1-2.6,11.1-4.3c0-2.9,0-5.7,0-8c-2.8,0.7-5.8,0.9-8.9-0.1
					c-3.2-1-4.7-2.8-9.1-6c-1.5-1.1-3.3-2.4-5.5-3.7c0,0.2-0.1,0.5-0.1,0.7c-0.4,2.3-0.9,6-1.3,10.2c0.5,0.8,1.1,1.6,1.6,2.5
					C251.5,260,252.3,262.4,254.8,263.5z"/>
				<path class="st20" d="M296.5,230.9C296.5,230.9,296.5,230.8,296.5,230.9C296.6,230.8,296.4,230.9,296.5,230.9z"/>
				<path class="st20" d="M313.1,231.2c0.6-0.5,1-0.9,1-1.4s-0.5-1.1-1-1.1c-0.5-0.1-0.7,0.3-0.9,0.2c-0.3-0.2,0-0.9-0.4-1.3
					c-0.4-0.4-1.3,0-2,0.2c0,0-1.3,0.3-3.9,1s-3.2,0.5-4.9,1.2c-0.2,0.1-0.7,0.3-1.4,0.5c-0.6,0.2-0.8,0.3-0.8,0.3
					c-1.3,0.6-1,0.1,0.8-1.2c0.5-0.4,2-1.3,2-1.8c0-0.3-0.2-0.7-0.5-0.9s-0.6-0.1-1.2-0.1c-0.2,0-0.5,0.1-1.4,0.4
					c-1.2,0.4-1.4,0.5-1.5,0.7c-0.2,0.2-0.1,0.3-0.5,0.7c-0.5,0.6-0.7,0.7-1.1,1.2c-0.4,0.6-0.6,1.2-0.6,1.4c-0.2,0.6,0,0.8,0,1.7
					c0,0.8,0,1.7-0.5,2.4c-0.2,0.2-0.3,0.4-1.2,1c-11.8,7.5-27.5,9.2-28.4,9.3c-0.1,2-1.7,4.2-1.9,6.3c-0.3,2.4-1.5,7.1-1.5,7.1
					s23.4-5.5,29.8-10.9c1.2-1,2.8-2,3.8-2.7s1.6-1.7,3-2.1c0.5-0.2,0.7-0.1,1.7-0.2c0,0,1.9-0.2,3.7-0.7c1.7-0.5,1.3-0.9,4.7-2.6
					c1.9-1,2.2-1.3,3-1.9c2.2-1.8,1-2.7,1-2.7s1-0.5,1.2-0.7c1.1-1,0.4-2.2-0.7-1.8c-1.5,0.6-2.7,0.9-2.7,0.8
					C309.5,233.5,311.3,232.7,313.1,231.2L313.1,231.2z"/>
				<path class="st22" d="M303.3,233.2l-0.2-0.6c1.1-0.4,2.2-0.8,3.2-1.3c0.3-0.1,0.5-0.2,0.8-0.4c0.3-0.1,0.7-0.3,1.3-0.6
					c0.3-0.1,0.5-0.2,0.7-0.3c0.4-0.2,0.8-0.4,1.3-0.6c0.5-0.2,1-0.5,1.4-0.7l0.3,0.5c-0.5,0.2-1,0.5-1.4,0.7
					c-0.5,0.2-0.9,0.4-1.3,0.6c-0.2,0.1-0.4,0.2-0.7,0.3c-0.6,0.3-1,0.5-1.3,0.6c-0.2,0.1-0.4,0.2-0.8,0.4
					C305.5,232.4,304.4,232.8,303.3,233.2L303.3,233.2z"/>
				<path class="st22" d="M306.4,235.3l-0.3-0.5c0.5-0.3,1-0.6,1.6-0.8c0.3-0.1,0.7-0.2,1.1-0.3l0.1,0.6c-0.3,0.1-0.7,0.2-1,0.3
					C307.4,234.8,306.9,235,306.4,235.3L306.4,235.3z"/>
				<path class="st22" d="M307.5,237.7l-0.3-0.5c0.8-0.4,1.6-0.9,2.4-1.3c0.6-0.3,1.2-0.5,1.7-0.8l0.2,0.5c-0.6,0.3-1.1,0.5-1.7,0.8
					C309.1,236.9,308.3,237.3,307.5,237.7z"/>
				<path class="st41" d="M267.4,244.5c-2.2,0.2-3-0.1-3-0.1s-0.6-4.3-1.3-6.9c-0.1-0.2-3.9-13.8-5.9-19.3c-0.3-0.7-1.5-3.9-4-7.5
					c-2.3-3.4-3.7-4.1-4.2-4.3c-0.2-0.1-3.8-1.6-6.6,0.2c-1.8,1.2-2.5,3.2-2.9,5.8c-1.4,8.2,0.6,15.5,1.4,17.9
					c1.8,5.9,4.5,10,7.7,15.3c3.5,5.7,3.8,4.8,6,9c1.5,2.9,2.1,4.6,3.9,5.3c1.3,0.5,5.4-0.9,9.5-1.9
					C266.5,254,267.1,246.7,267.4,244.5L267.4,244.5z"/>
				<path class="st43" d="M266.6,245c-0.9,0-2-0.2-2.2-0.6c-0.2-0.3-0.4-1.5-0.9-4.2c-0.3-1.7-0.7-3.5-1-4.7
					c-0.6-2.3-1.4-5.1-2.2-7.9c-1-3.3-1.5-4.9-2.4-7.3c-0.7-1.9-1.4-3.7-2.2-5.5l0.7-0.3c0.8,1.8,1.6,3.7,2.3,5.5
					c0.9,2.4,1.4,4.1,2.4,7.4c0.9,2.8,1.6,5.6,2.2,7.9c0.3,1.2,0.6,3,1,4.7c0.3,1.6,0.6,3.5,0.8,3.9c0.3,0.2,1.5,0.4,2,0.2l0.3,0.8
					C267.2,245,266.9,245,266.6,245L266.6,245z"/>
				<path class="st8" d="M260.5,251.7l-0.6-0.1c0.4-2.4,1.4-4.5,2.9-6.2c0.4-0.4,0.9-0.8,1.4-1.2c0.1-0.1,0.3-0.2,0.4-0.3l0.4,0.5
					c-0.1,0.1-0.2,0.2-0.4,0.3c-0.4,0.3-1,0.7-1.3,1.1C261.8,247.4,260.9,249.4,260.5,251.7L260.5,251.7z"/>
				<path class="st32" d="M255.8,324.7c-0.6,0-1.2,0-1.8,0v-0.6c1.2,0.1,2.3,0,3.5-0.1c1.6-0.2,3.2-0.6,4.7-1.3l0.2,0.5
					c-1.5,0.7-3.2,1.1-4.8,1.3C257,324.6,256.4,324.6,255.8,324.7L255.8,324.7z"/>
				<path class="st32" d="M274,327.2c-0.5-0.1-1-0.3-1.5-0.5l0.2-0.8c1,0.4,2,0.6,3.1,0.7c1.5,0.1,3-0.1,4.5-0.6v0.8
					c-1.5,0.5-3.1,0.7-4.6,0.6C275.1,327.4,274.6,327.3,274,327.2L274,327.2z"/>
				<path class="st32" d="M260.3,328c-1.1-0.4-2.3-0.8-3.5-1.1c-0.9-0.3-1.8-0.5-2.7-0.7l0.1-0.6c0.9,0.2,1.8,0.4,2.7,0.7
					c1.2,0.3,2.4,0.7,3.5,1.2L260.3,328L260.3,328z"/>
				<path class="st45" d="M259.8,396.1c-0.8,0-1.5,0-2.3,0c-2.3-0.2-4.6-0.7-6.8-1.6c-1.2-0.5-2.3-1-3.4-1.7l0.3-0.4
					c1,0.6,2.1,1.2,3.3,1.7c2.1,0.9,4.4,1.4,6.7,1.5c1.5,0.1,3,0.1,4.5-0.2l0.1,0.5C261.3,396,260.5,396,259.8,396.1z"/>
				<path class="st31" d="M262.9,400.8c-0.2-0.2-0.9-1.3-0.6-2.4c0.4-1.2,1.9-2,3-1.7c0.8,0.2,1.4,0.8,1.7,1.1
					c0.3,0.3,0.4,0.5,0.5,0.6c1.4,2.1,3.6,2.6,3.4,3.3C270.5,402.7,264.8,403.5,262.9,400.8L262.9,400.8z"/>
				<path class="st46" d="M274.2,407.2l-0.3-0.4c0.4-0.4,0.6-0.8,0.7-1c0.3-1-0.4-2.1-1.1-2.6c-0.3-0.2-0.5-0.2-0.6-0.3
					c-3-1-5-1.7-5.8-2.3c-0.6-0.4-1.2-1-1.7-1.6l0.4-0.3c0.5,0.6,1,1.1,1.6,1.5c0.8,0.5,2.7,1.3,5.7,2.2c0.1,0,0.4,0.1,0.7,0.3
					c0.9,0.6,1.7,1.9,1.3,3.2C275,406.3,274.8,406.7,274.2,407.2L274.2,407.2z"/>
				<path class="st31" d="M287.1,391c-0.3-0.1-1.4-1.6-1.8-3.5c-0.1-0.9,0-2.2,0.7-2.5c0.5-0.2,1.2,0.2,2.7,1.4c4,3,4.3,3.3,4.2,3.6
					C292.7,390.9,289.1,391.9,287.1,391L287.1,391z"/>
				<path class="st28" d="M287.3,395.7c-5.1-0.8-4.4-1.1-8.4-1.7c-3.9-0.5-5.8-0.4-8.8-1.5c-0.9-0.3-1.6-0.7-2.3-1
					c0,0.5,0,1.1,0,1.7c0.1,3.1,5.7,3.8,8.4,2.6c1.6-0.6,3.1-0.4,4.8,0c2.7,0.5,3.6,1,5.8,1.6c0,0,5.9,1.6,10.7,0.3
					c0.8-0.2,1.7-0.6,2.4-1.5c0.4-0.6,0.5-1.2,0.6-1.6C297.1,397,292.2,396.5,287.3,395.7L287.3,395.7z"/>
				<path class="st46" d="M299,394.8c0-0.1,0-0.2,0-0.4c0-1-0.1-3-5-3.7c-1.7-0.3-2.6-0.6-3.5-1c-1.2-0.6-2.2-1.5-3.1-2.7l0.4-0.3
					c0.8,1.1,1.8,2,2.9,2.6c0.9,0.4,1.7,0.8,3.4,1c5.3,0.8,5.4,3.2,5.5,4.2c0,0.1,0,0.2,0,0.3H299L299,394.8z"/>
				<path class="st47" d="M761.7,543.7H444.1c-5.4,0-9.8,4.4-9.8,9.8c0,5.4,4.4,9.8,9.8,9.8h317.6c5.4,0,9.8-4.4,9.8-9.8
					C771.4,548.1,767.1,543.7,761.7,543.7z"/>
				<path class="st48" d="M660.1,495.5H546.5v52.2H660L660.1,495.5L660.1,495.5z"/>
				<path class="st47" d="M797.3,217.4h-428c-8.4,0-15.2,6.8-15.2,15.2V496c0,8.4,6.8,15.2,15.2,15.2h428c8.4,0,15.2-6.8,15.2-15.2
					V232.6C812.5,224.2,805.7,217.4,797.3,217.4z"/>
				<path class="st49" d="M650.1,495.5H497.6v52.2h152.6v-52.2H650.1z"/>
				<path class="st50" d="M650.1,495.5H497.6v26h152.6v-26H650.1z"/>
				<path class="st51" d="M360,217.6h428c8.4,0,15.2,6.8,15.2,15.2v263.4c0,8.4-6.8,15.2-15.2,15.2H360c-8.4,0-15.2-6.8-15.2-15.2
					V232.8C344.9,224.4,351.7,217.6,360,217.6z"/>
				<path class="st49" d="M796.1,419.4c-29.1,43-74.1,64.3-76.6,65.5c-16.7,7.7-31.2,11.2-42.2,13.3c-33.7,6.6-84.6,10.6-134.2,13
					h250.1c5.5,0,10-4.5,10-10v-93.5C801.1,411.7,798.7,415.6,796.1,419.4L796.1,419.4z"/>
				<path class="st3" d="M789.4,456.9V240.7c0-5.2-4.2-9.5-9.5-9.5H368.3c-5.2,0-9.5,4.2-9.5,9.5v216.2c0,5.2,4.2,9.5,9.5,9.5H780
					C785.2,466.4,789.4,462.1,789.4,456.9z"/>
				<path class="st52" d="M704.6,483H690c-1.3,0-2.4-1.1-2.4-2.4s1.1-2.4,2.4-2.4h14.6c1.3,0,2.4,1.1,2.4,2.4S705.9,483,704.6,483z"
					/>
				<path class="st53" d="M704.6,478.1h-0.9c0.2,0.4,0.3,0.8,0.3,1.2c0,1.3-1.1,2.4-2.4,2.4h-13.7c0.4,0.7,1.2,1.2,2.1,1.2h14.6
					c1.3,0,2.4-1.1,2.4-2.4S705.9,478.1,704.6,478.1L704.6,478.1z"/>
				<path class="st51" d="M748.1,543.7H430.5c-5.4,0-9.8,4.4-9.8,9.8c0,5.4,4.4,9.8,9.8,9.8h317.6c5.4,0,9.8-4.4,9.8-9.8
					C757.8,548.1,753.5,543.7,748.1,543.7z"/>
				<path class="st49" d="M748.1,543.7h-50.8c5.4,0,9.8,4.4,9.8,9.8c0,5.4-4.4,9.8-9.8,9.8h50.8c5.4,0,9.8-4.4,9.8-9.8
					C757.8,548.1,753.5,543.7,748.1,543.7z"/>
				<path class="st54" d="M547.4,552.6H432.1c-1.3,0-2.4-1.1-2.4-2.4s1.1-2.4,2.4-2.4h115.3c1.3,0,2.4,1.1,2.4,2.4
					S548.7,552.6,547.4,552.6z"/>
				<path class="st2" d="M460,231.3L358.8,344.9v58.8l153.5-172.4L460,231.3L460,231.3z"/>
				<path class="st55" d="M783.2,231.3h-5.4c-5.4,42.8-14.3,77.5-22.3,102.9c-14.1,45.2-27.3,68-47.4,85.7c0,0-16.6,14.6-39.9,24.1
					c-25.5,10.4-72.4,18.1-135.5,22.3h250.5c3.4,0,6.2-2.8,6.2-6.2V237.5C789.4,234.1,786.7,231.3,783.2,231.3z"/>
				<path class="st55" d="M783.2,231.3H365.1c-3.4,0-6.2,2.8-6.2,6.2v0.5H774c3.4,0,6.2,2.8,6.2,6.2v222.1h3.1
					c3.4,0,6.2-2.8,6.2-6.2V237.5C789.4,234.1,786.7,231.3,783.2,231.3z"/>
				<path class="st7" d="M756.7,163.9H391.5c-6.1,0-11.1,5-11.1,11.1v265.5c0,6.1,5,11.1,11.1,11.1h365.2c6.1,0,11.1-5,11.1-11.1
					V175C767.7,168.9,762.8,163.9,756.7,163.9z"/>
				<path class="st56" d="M754.4,165.3c1.8,41.2-1.8,75.1-5.8,99.1c-8.1,49.1-13.7,83.1-39.9,116.4c-28.9,36.7-66.4,51.7-84.8,59
					c-14.2,5.7-27.8,9.1-44.2,11.8H747c11.5,0,20.8-9.3,20.8-20.8V184.7C767.7,175.9,762.2,168.3,754.4,165.3z"/>
				<path class="st57" d="M767.7,174.1c0-5.6-4.5-10.1-10.1-10.1h-367c-5.6,0-10.1,4.5-10.1,10.1v25.4h387.3L767.7,174.1
					L767.7,174.1z"/>
				<path class="st7" d="M700.3,185.9c2.3-0.9,3.3-3.5,2.4-5.8c-0.9-2.3-3.5-3.3-5.8-2.4c-2.3,0.9-3.3,3.5-2.4,5.8
					S698,186.8,700.3,185.9z"/>
				<path class="st58" d="M436.3,345.5h-21.2v29.6h21.2V345.5z"/>
				<path class="st58" d="M492.1,375.1h21.2v-72.5h-21.2L492.1,375.1L492.1,375.1z"/>
				<path class="st59" d="M474.8,326.2h-21.2v48.9h21.2V326.2z"/>
				<path class="st59" d="M530.5,375.1h21.2V264.8h-21.2V375.1z"/>
				<path class="st60" d="M463.6,301.9L425.4,323l0.7,1.4l38.2-21.1L463.6,301.9z"/>
				<path class="st60" d="M502.3,279.7L463.6,302l0.8,1.3L503,281L502.3,279.7z"/>
				<path class="st60" d="M539,236.7l-37,43.1l1.2,1l37-43.1L539,236.7z"/>
				<path class="st7" d="M430.5,324.2c0.3-2.6-1.7-5-4.3-5.3c-2.6-0.3-5,1.7-5.3,4.3c-0.3,2.6,1.7,5,4.3,5.3
					C427.9,328.7,430.3,326.8,430.5,324.2z"/>
				<path class="st60" d="M425.7,329.3c-3.1,0-5.6-2.5-5.6-5.6s2.5-5.6,5.6-5.6s5.6,2.5,5.6,5.6
					C431.3,326.8,428.8,329.3,425.7,329.3z M425.7,319.7c-2.2,0-4,1.8-4,4s1.8,4,4,4s4-1.8,4-4C429.8,321.5,428,319.7,425.7,319.7z"
					/>
				<path class="st7" d="M468.8,302.6c0,2.7-2.2,4.8-4.8,4.8c-2.7,0-4.8-2.2-4.8-4.8c0-2.7,2.2-4.8,4.8-4.8
					C466.7,297.8,468.8,299.9,468.8,302.6z"/>
				<path class="st60" d="M464,308.2c-3.1,0-5.6-2.5-5.6-5.6s2.5-5.6,5.6-5.6s5.6,2.5,5.6,5.6S467.1,308.2,464,308.2z M464,298.5
					c-2.2,0-4.1,1.8-4.1,4.1s1.8,4.1,4.1,4.1c2.2,0,4.1-1.8,4.1-4.1S466.2,298.5,464,298.5z"/>
				<path class="st7" d="M507.3,281.7c0.8-2.6-0.7-5.2-3.2-6c-2.6-0.8-5.2,0.7-6,3.2s0.7,5.2,3.2,6S506.5,284.2,507.3,281.7z"/>
				<path class="st60" d="M502.6,285.9c-3.1,0-5.6-2.5-5.6-5.6s2.5-5.6,5.6-5.6s5.6,2.5,5.6,5.6S505.7,285.9,502.6,285.9z
					 M502.6,276.2c-2.2,0-4.1,1.8-4.1,4.1c0,2.2,1.8,4.1,4.1,4.1s4.1-1.8,4.1-4.1S504.9,276.2,502.6,276.2z"/>
				<path class="st7" d="M544.3,238.3c0.6-2.6-1-5.2-3.6-5.8s-5.2,1-5.8,3.6s1,5.2,3.6,5.8C541.1,242.5,543.7,240.9,544.3,238.3z"/>
				<path class="st60" d="M539.6,242.8c-3.1,0-5.6-2.5-5.6-5.6s2.5-5.6,5.6-5.6s5.6,2.5,5.6,5.6
					C545.2,240.3,542.7,242.8,539.6,242.8z M539.6,233.2c-2.2,0-4.1,1.8-4.1,4.1c0,2.2,1.8,4.1,4.1,4.1s4.1-1.8,4.1-4.1
					C543.6,235,541.8,233.2,539.6,233.2z"/>
				<path class="st61" d="M735.5,294.7c-4.8-37.5-39.1-64.1-76.7-59.3c-37.5,4.8-64.1,39.1-59.3,76.7s39.1,64.1,76.7,59.3
					C713.8,366.5,740.3,332.2,735.5,294.7z M627.8,308.5c-2.8-22,12.7-42.1,34.7-44.9s42.1,12.7,44.9,34.7
					c2.8,22-12.7,42.1-34.7,44.9S630.6,330.4,627.8,308.5z"/>
				<path class="st62" d="M628.5,312.4c-0.3-1.3-0.5-2.6-0.7-4c-1.3-10.3,1.4-20.2,6.9-28.1l-23-16.7c-9.6,13.5-14.4,30.6-12.1,48.4
					c0.3,2.1,0.6,4.1,1.1,6.1c2.7,12.3,8.6,23.2,16.7,31.9l21-19.1C633.6,325.9,630.1,319.6,628.5,312.4L628.5,312.4z"/>
				<path class="st63" d="M662.4,263.6c13.6-1.7,26.5,3.6,35,13.1l21.2-18.9c-14.5-16.3-36.6-25.4-59.9-22.4
					c-19.7,2.5-36.4,13.2-47.1,28.2l23.1,16.5C641.2,271.3,650.9,265.1,662.4,263.6L662.4,263.6z"/>
				<path class="st58" d="M472.9,399.5h-53.4c-2.1,0-3.8,1.7-3.8,3.8v2.2c0,2.1,1.7,3.8,3.8,3.8h53.4c2.1,0,3.8-1.7,3.8-3.8v-2.2
					C476.8,401.2,475.1,399.5,472.9,399.5z"/>
				<path class="st58" d="M503.9,416.6h-84.4c-2.1,0-3.8,1.7-3.8,3.8v2.2c0,2.1,1.7,3.8,3.8,3.8h84.4c2.1,0,3.8-1.7,3.8-3.8v-2.2
					C507.7,418.3,506,416.6,503.9,416.6z"/>
				<path class="st58" d="M524.3,399.5h-29.2c-2.1,0-3.8,1.7-3.8,3.8v2.2c0,2.1,1.7,3.8,3.8,3.8h29.2c2.1,0,3.8-1.7,3.8-3.8v-2.2
					C528.2,401.2,526.5,399.5,524.3,399.5z"/>
				<path class="st58" d="M571.7,399.5h-29.2c-2.1,0-3.8,1.7-3.8,3.8v2.2c0,2.1,1.7,3.8,3.8,3.8h29.2c2.1,0,3.8-1.7,3.8-3.8v-2.2
					C575.5,401.2,573.8,399.5,571.7,399.5z"/>
				<path class="st58" d="M617.9,399.5h-29.2c-2.1,0-3.8,1.7-3.8,3.8v2.2c0,2.1,1.7,3.8,3.8,3.8h29.2c2.1,0,3.8-1.7,3.8-3.8v-2.2
					C621.7,401.2,620,399.5,617.9,399.5z"/>
				<path class="st42" d="M395.3,346.4c2.9-1.2,9.2-1.4,12.6,1c6.5,4.5,0.2,21.2-6.9,24.5c-3.1,1.5-7.5,0.4-10.4-2.2
					c-3.2-3-3.6-7-3.7-8.2C386.4,355.6,388.3,349.2,395.3,346.4L395.3,346.4z"/>
				<path class="st20" d="M388.2,380.9c10.9-1.6,7.5-7.7,5.4-15.9c-0.6-2.5,12.3,2,13,5.9c0.3,1.7-0.3,4,0.2,5.9
					c0.7,2.6,3.6,3.9,5.2,4.3c3.1,0.8,5.5,0.2,5.8,1.1c1.4,3.3-3.3,10.9-5.9,11.7C399.8,397.7,385,381.3,388.2,380.9L388.2,380.9z"
					/>
				<path class="st20" d="M381.4,555.9c1.5-2.7,7.4-3.2,8.9-1.3c0.7,0.9,0,1.9,1,4c0.7,1.5,1.3,1.5,1.6,2.5c0.7,2.1-1,5.7-4.2,6.7
					c-3,0.9-6.1-1-7-3.1c-0.1-0.2-1.1-0.7-0.3-2.5C382.1,560.2,380.9,556.7,381.4,555.9z"/>
				<path class="st20" d="M411.6,556.4c-0.2-2-0.6-2.3-0.3-3.2c1.1-2.8,7.3-4,8.9-2c1.1,1.3-0.6,3.2,0.9,6.1
					c0.4,0.7,0.8,1.4,0.7,2.3c-0.1,0.8-0.8,1.3-1.6,2.1c-2.7,2.4-2.3,3.1-3.6,3.6c-1.7,0.6-4.3,0.1-5.3-1.4
					C410.2,562.1,411.9,560.7,411.6,556.4z"/>
				<path class="st64" d="M399.8,452.3c5.6-6.6,13.2-16.1,17.4-12.2c2.6,2.5,7.4,23.1,5.8,43.4c-0.4,5.1-1.2,10.1-1.7,12.8
					c-1.2,6.4-2,8.6-2,13.4c0,2.6,0.2,5.9,0.3,7.4c0.2,3.3,0.5,5.1,0.7,7.1c0.9,8.8,0.3,9,0.7,17.1c0.3,5.2,0,12.6,0,12.6l-10.6,1
					c0,0,0-4.8-0.5-7.9c-0.9-5.7-2-5.7-3-10.7c-1.1-5.5-0.8-14.8-0.6-19.5c0.1-1.9-0.1-3.8-0.7-5.6c-2-7-3.8-28.9-1.4-39.5
					C404.9,468.6,392.3,461.2,399.8,452.3L399.8,452.3z"/>
				<path class="st65" d="M408.5,458.8c2.4,1.3-1.8,26.9-1.8,32.1c0,3.4,0.4,6.2,0.8,9.6c0.6,4.7,0.8,4.7,1.2,8.2
					c0.1,0.8,0.3,3.2,0.4,10.4c0.1,7.4-0.1,6.8,0,9.2c0.4,6.4,1.8,8.4,2.9,14.3c0.5,2.9,1,7.1,0.8,12.3l-2.4,0.2c0,0,0-4.8-0.5-7.9
					c-0.9-5.7-2-5.7-3-10.7c-1.1-5.5-0.8-14.8-0.6-19.5c0.1-1.9-0.1-3.8-0.7-5.6c-2-7-3.8-28.9-1.4-39.5c0.2-0.8-0.5-1.9-1.5-3.2
					C405.2,465.1,407.5,458.3,408.5,458.8L408.5,458.8z"/>
				<path class="st21" d="M382,506.1c0.7-3.5,0.6-7.5,0.3-15.4c-0.2-6.5-0.3-9.8-0.7-14.4c-0.8-9.1-1.6-11.6-0.7-16.8
					c0.7-3.6,5-16.9,7.2-19.2c6.6-7.1,20-3.6,21.9,2c0.2,0.6-1.2,11-1.9,15.9c-0.2,1.3-3.9,31.7-10.3,52.3c-1,3.1-3,6-4.1,8.9
					c-0.5,1.4-1.1,3.1-1.7,8.1c-0.9,7.5-0.2,8.1-1,15.8c-0.4,4,1,13.1,0.2,14.4c0,0-10.5,0.5-10.6-0.3c-0.3-8.9-3-18.8-3-26.9
					c0-2.8,0-7.1,1-12.4C379.8,511.6,381,511.5,382,506.1L382,506.1z"/>
				<path class="st13" d="M381.5,560.8c0.4,0,0.2,2.2,1.3,2.7c0.2,0.1,0.7,0.2,2.7-1c1.9-1.1,1.9-1.6,3-2.2c1.2-0.6,3.5-1.5,4.7-0.5
					c0.8,0.6,0.3,1.4,1,3.5c0.7,2,1.8,3.4,2.3,4c1.1,1.3,2.3,2.2,2.5,2.3c1.4,1,2,1,2.9,2c0.5,0.5,1.1,1.3,1.2,2.4
					c0,0.2,0.1,1.4-0.7,2.2c-0.5,0.5-1.1,0.5-2.2,0.7c-1.2,0.1-2.5,0.4-3.7,0.5c-4.2,0.4-4,0.6-5.2,0.5c-0.6-0.1-2.2-0.2-3.9-1.2
					c-1.5-0.8-1.4-1.3-3-2.4c-1.9-1.2-2.7-0.9-3.5-1.8c-0.5-0.6-0.8-1.3-0.8-3.9C380.1,564.7,380.9,560.8,381.5,560.8L381.5,560.8z"
					/>
				<path class="st13" d="M411.4,560.5c0.5,0,0.4,1.8,1.8,2.7c0.7,0.4,1.7,0.7,2.5,0.3c1-0.4,0.9-1.4,1.8-2.7c1.2-1.5,3.4-2.6,4.9-2
					c0.5,0.2,0.5,0.5,1.8,2.3c0.8,1.1,1.5,1.8,2.5,3s1.5,1.8,2,2.2c0.7,0.6,2,1.8,3.9,2.5c2.4,0.9,3.4,0.2,4.5,1.3
					c0.9,0.9,1.1,2.3,1.2,2.5c0.1,0.5,0.2,1.3-0.2,2c-0.5,0.9-1.6,1.3-3.2,1.5c-2.4,0.4-4.2,0.7-7.2,0.2c-2.9-0.5-2.6-1-6.5-1.8
					c-3.2-0.7-5.7-1-5.7-1c-3.6-0.4-4.5-0.1-5.4-1c-0.8-0.9-0.7-2.3-0.5-5.2C409.9,564.3,410.6,560.4,411.4,560.5L411.4,560.5z"/>
				<path class="st14" d="M385.8,572.1c1.8,1,3.4,1.2,4.2,1.3c0.5,0.1,2.3,0.3,4.5,0c1.6-0.2,2.2-0.6,4.4-0.8
					c0.6-0.1,2.3-0.1,3.6-0.1c0.3,0.4,0.6,1,0.6,1.6c0,0.2,0.1,1.4-0.7,2.2c-0.5,0.5-1.1,0.5-2.2,0.7c-1.2,0.1-2.5,0.4-3.7,0.5
					c-4.2,0.4-4,0.6-5.2,0.5c-0.6-0.1-2.2-0.2-3.9-1.2c-1.5-0.8-1.4-1.3-3-2.4c-1.9-1.2-2.7-0.9-3.5-1.8c-0.5-0.6-0.8-1.3-0.8-3.9
					c0-0.2,0-0.3,0-0.5C381.9,569.5,384.6,571.4,385.8,572.1L385.8,572.1z"/>
				<path class="st14" d="M416.4,570.4c7.3,1.9,9.1,1.8,9.9,2c4.6,0.9,9.3,0.3,11.9-0.3c0.1,0.3,0.1,0.6,0.1,0.7
					c0.1,0.5,0.2,1.3-0.2,2c-0.5,0.9-1.6,1.3-3.2,1.5c-2.4,0.4-4.2,0.7-7.2,0.2c-2.9-0.5-2.6-1-6.5-1.8c-3.2-0.7-5.7-1-5.7-1
					c-3.6-0.4-4.5-0.1-5.4-1c-0.7-0.7-0.7-1.8-0.6-3.7C412.2,569.4,415.5,570.1,416.4,570.4L416.4,570.4z"/>
				<path class="st66" d="M421,383.9c0.5,0.6,3.9,4,4.2,5.4c0.5,2.2,0.9,4.3,4.7,9.2c2.4,3.1,14.5,15,4,22.9
					c-1.5,1.1-13.1-2.6-13.1-17.7c0-12.1-4.9-18.9-4.8-22.2C415.9,381,419.4,381.9,421,383.9L421,383.9z"/>
				<path class="st2" d="M427.1,404.2c1.5,2.4,4.3,7.8,3.5,16.9c-3-1.2-7.1-4.3-8.9-10.3c0.1-1,0.2-2,0.2-3.1
					c-0.1-2.3-0.6-4.4-1.2-6c-0.1-1.7-0.5-3.2-0.9-4.7C421.3,397.4,424.7,400.4,427.1,404.2z"/>
				<path class="st67" d="M426.1,387.8c0.2-0.1,1.2-0.7,1.9-0.2c0.3,0.3,0.7,0.8,0.7,1.5c0,0.5-0.2,0.8,0,1.1
					c0.2,0.4,0.5,0.3,0.7,0.5c0.3,0.4,0.1,1.2-0.1,2c-0.3,1.5,0,0.9-0.4,3.7c-0.4,2.2-0.5,2.3-0.4,2.9c0.1,1.4,1,2.4,1.4,2.9
					c2.9,3.5,4.4,7.6,4.9,9.2c0.5,1.5,1,3.1,0.7,5.2c-0.1,0.6-0.4,3.5-2.3,4.7c-1,0.6-2,0.5-2.4,0.5c-2.7-0.4-4.3-3.4-4.8-4.2
					c-0.4-0.8-1.3-2.5-2-9.4c-0.4-3.6-0.7-6.9-0.4-11.3C423.9,393.6,424.2,389,426.1,387.8L426.1,387.8z"/>
				<path class="st22" d="M399.6,371.2c1.7,1,4,1.8,7.1,1.8c-0.1,1.1-0.1,2.4,0,3.3c-0.5,0-0.9,0-1.4-0.1c-6-0.9-9-6.3-9.4-7.8
					c0-0.1,0.1-0.2,0.1-0.3C396.4,368.5,397.6,370,399.6,371.2z"/>
				<path class="st20" d="M399.2,348c0.9-0.4,4.1-1.9,7.5-0.5c4.6,1.9,4.9,7.3,5.1,8.2c0.2,1.3,0.3,3.4,0,6.2
					c-0.2,2.3,0.3,4.6-0.7,7.3c-0.8,2-1.8,3.3-3.5,4.3c-5.2,2.9-12.4-4.2-13.8-7.9c-0.4-1.2-2-5.6-0.2-10.7
					C394.1,353.5,395.5,349.8,399.2,348L399.2,348z"/>
				<path class="st42" d="M391.5,355.7c0.8-2.5,1.4-4.2,3-5.9c1-1.1,1.9-1.7,2.5-2.1c0.5-0.3,2-1.1,3.9-1.5c1.1-0.2,2.4-0.3,3.8,0
					c0.2,0.1,0.5,0.1,0.8,0.2c9.1,2.2,6.9,12.3,6.5,14.1c0.5-5.6-13.1-7.9-13.1-7.2c0.3,7.9-4.2,7.4-7.8,7.3
					c-0.1-0.7-0.1-1.2-0.1-1.7C391,357.7,391.2,356.8,391.5,355.7z"/>
				<path class="st20" d="M393.6,359.7c1-0.3,1.9,1,2,1c1.4,1.9,0.7,5.6-0.5,6c-1,0.3-3-2-2.9-4.3
					C392.2,361.5,392.6,360,393.6,359.7L393.6,359.7z"/>
				<path class="st22" d="M394.7,364.7C394.8,364.8,394.8,364.8,394.7,364.7C394.8,364.8,394.8,364.8,394.7,364.7z"/>
				<path class="st22" d="M394.9,361.8c0.4,0.1,0.7,0.4,0.8,0.8c0.1,0.2,0,0.3-0.2,0.3c-0.1,0-0.2-0.1-0.2-0.2
					c-0.1-0.3-0.3-0.5-0.5-0.5c-0.3-0.1-0.6,0.1-0.7,0.3c-0.1,0.2-0.1,0.7,0.1,1.1c0.1,0.4,0.4,0.6,0.5,0.8c-0.1-0.1-0.2-0.2,0,0
					l0.1,0.1l0.1,0.1c0.4,0.5,0.1,0.5,0,0.5c-0.3,0-0.6-0.4-0.8-0.7c-0.4-0.6-0.8-1.6-0.4-2.3C393.8,362,394.3,361.7,394.9,361.8
					L394.9,361.8z"/>
				<path class="st22" d="M394.6,364.6l0.1,0.1l0,0L394.6,364.6L394.6,364.6z"/>
				<path class="st22" d="M392.4,360.9c-0.2,0.5-0.4,1.3-0.2,2.5c0.3,1.6,1.2,2.9,1.9,3.1l0,0c0.1,0.3,0.4,1.1,1.2,1.1
					c0.6,0,0.7-0.4,0.8-0.8c0-0.1-0.1-0.3-0.2-0.3s-0.2,0.1-0.2,0.2c0,0.3-0.1,0.4-0.3,0.4c-0.4,0-0.6-0.4-0.8-0.8
					c-0.1-0.1-0.1-0.3-0.2-0.3c-0.5-0.1-1.4-1.3-1.7-2.7c-0.2-0.8-0.1-1.5,0.1-2.1c0.1-0.2,0.2-0.6,0.5-0.8c0.3-0.2,0.7-0.1,0.8-0.1
					c0.5,0.1,0.9,0.6,1.1,0.9c0.1,0.1,0.2,0.1,0.3,0.1c0.1-0.1,0.2-0.2,0.1-0.4c-0.2-0.4-0.6-0.9-1.3-1.1c-0.2,0-0.7-0.2-1.2,0.1
					C392.7,360.1,392.5,360.6,392.4,360.9L392.4,360.9z"/>
				<path class="st22" d="M395.6,362.9c0,0.1-0.2,0.2-0.4,0.5c-0.3,0.5-0.1,1.2-0.2,1.2s-0.2-0.4-0.3-0.8c0-0.2,0-0.6,0.2-0.8
					C395.2,362.8,395.6,362.8,395.6,362.9z"/>
				<path class="st29" d="M400,358.9c1-0.2,2.1-0.3,3.1-0.2c0.7,0,1.3,0.1,2,0.2c0.3,0,0.4,0.3,0.4,0.6c-0.1,0.2-0.3,0.4-0.5,0.4
					c-0.6-0.1-1.2-0.2-1.8-0.2c-1,0-2,0-2.9,0.2c-0.2,0-0.5-0.1-0.5-0.4C399.6,359.2,399.8,358.9,400,358.9L400,358.9z"/>
				<path class="st22" d="M405.8,366.4c0-0.1,0.1-0.2,0.3-0.2c1,0.2,1.7,0.1,1.9-0.2c0.2-0.3,0.1-0.7-0.1-1.5
					c-0.1-0.3-0.1-0.6-0.2-1c-0.2-0.8-0.3-1.7-0.3-2.5c0-0.1,0.1-0.2,0.2-0.2s0.2,0.1,0.2,0.2c0.1,0.8,0.2,1.6,0.3,2.4
					c0.1,0.4,0.1,0.7,0.2,1c0.2,0.9,0.3,1.4,0,1.8s-0.9,0.6-1.8,0.5c-0.2,0-0.4,0-0.5-0.1C405.8,366.7,405.7,366.6,405.8,366.4
					L405.8,366.4z"/>
				<path class="st29" d="M403.3,360.6c0.4,0,0.6,0.5,0.6,1s-0.3,1-0.6,1c-0.4,0-0.6-0.5-0.6-1S402.9,360.6,403.3,360.6z"/>
				<path class="st29" d="M409.5,360.6c0.4,0,0.6,0.5,0.6,1s-0.3,1-0.6,1c-0.4,0-0.6-0.5-0.6-1S409.1,360.6,409.5,360.6z"/>
				<path class="st29" d="M407.6,358.9c0.5-0.1,1-0.2,1.6-0.2c0.7-0.1,1.4-0.1,2.1,0c0.3,0,0.5,0.2,0.4,0.5c0,0.2-0.2,0.4-0.5,0.4
					c-0.7,0-1.4,0-2,0c-0.5,0-1,0.1-1.5,0.2c-0.2,0-0.5-0.1-0.5-0.3C407.2,359.2,407.4,358.9,407.6,358.9L407.6,358.9z"/>
				<path class="st22" d="M403.8,368.1l1.2,0.1c1,0.1,1.9,0.1,2.9,0l0.7-0.1c0.3,0,0.5,0.2,0.4,0.4c-0.4,0.5-1.2,1.2-2.5,1.2
					s-2.7-0.7-3-1.2C403.3,368.3,403.5,368.1,403.8,368.1L403.8,368.1z"/>
				<path class="st30" d="M401,363.2c0.9,0.1,1.6,0.7,1.6,1.3c-0.1,0.6-0.9,1-1.8,0.8c-0.9-0.1-1.6-0.7-1.6-1.3
					C399.3,363.4,400.1,363.1,401,363.2z"/>
				<path class="st68" d="M388.2,380.9c0,0,4.8,5.2,17.3,5.4c9.1,0.2,10.4-4.7,10.4-4.7s11.7,21.7,6.6,30.7
					c-1,1.8,2.7,17.2-2.2,33.6c-1.8,6.2-34.9,6.3-36.7-0.6c-1.3-5.1-0.7-20.7-1.5-40.6c-0.2-5.7-7-6.3-4.6-17.4
					C378.7,382.1,388.2,380.9,388.2,380.9L388.2,380.9z"/>
				<path class="st69" d="M417.3,384.2c0.1-0.7,0.7-1.3,1.5-1.4l6.5-0.3c1.8,0,2.4,1.1,2.2,2.1l-2.8,13.8c-0.1,0.7-0.7,1.3-1.5,1.3
					L417,400c-1,0-1.8-0.8-1.6-1.8L417.3,384.2z"/>
				<path class="st70" d="M417.9,384.6c0.1-0.7,0.7-1.3,1.5-1.4l6.5-0.3c1-0.1,1.8,0.8,1.6,1.8l-2.2,14c-0.1,0.7-0.7,1.3-1.5,1.3
					l-6.2,0.3c-1,0-1.8-0.8-1.6-1.8L417.9,384.6L417.9,384.6z"/>
				<path class="st71" d="M393.7,419c2.5-0.1,4.7-1.5,8.5-3.9c7.6-4.9,9.9-10,10.9-9.5c1.4,0.8-2.5,12.4-10.5,21.4
					c-3.3,3.7-5.8,5.7-8.2,5.1c-2.6-0.6-8.9-11.3-11.9-17.6c-0.2-2.1,0.2-5-0.2-7.4C384.8,410.4,390.4,419.1,393.7,419L393.7,419z"
					/>
				<path class="st72" d="M381.3,383.7c1.4-0.3,2.6,0.7,4.1,1.8c2.4,1.8,3.8,3.8,4.1,4.3c0.7,1,1.7,2.6,3.8,8.1
					c1.5,3.9,1.4,4.2,2.9,8.2c1.6,4.1,1.8,4.2,2.7,6.9c1.8,5.2,2.7,7.9,1.6,9.8c-1.2,2.1-4,3.2-6.3,2.8c-1.9-0.4-2.3,0.2-4.5-2.9
					c-4.6-6.5-7.4-11.6-8.3-13.4c-1.5-2.9-3.3-6.5-4.2-11.5C377.2,397.7,375,384.8,381.3,383.7L381.3,383.7z"/>
				<path class="st20" d="M405.1,407.1c0.4-0.4,1.5-1.5,2.6-3c0.9-1.1,1.1-1.6,1.3-2.1c0.3-1,0-1.3,0.3-2.4c0.2-1,0.7-1.7,1.3-2.6
					c0.9-1.4,1.1-1.2,1.9-2.4c0.3-0.5,0.6-1.2,1.3-2.6c0.7-1.6,0.9-2,1.3-2.1c0.5-0.1,1.1,0.3,1.3,0.9c0.1,0.2,0.1,0.5,0,1.1
					c-0.3,1.5-0.9,2.7-0.9,2.9c-0.4,0.9-0.7,1.2-0.6,1.3c0.2,0.2,1.2-0.3,1.9-0.9c0.8-0.7,1-1.3,1.7-2.4c0.9-1.4,1-1,2.1-2.6
					c1.1-1.5,1.4-2.4,2.4-2.8c0.2-0.1,0.8-0.3,1.1,0c0.3,0.3,0.1,1,0,1.3c-0.2,0.7-0.6,1.2-0.9,1.7c-1.3,1.8-1.6,2.3-1.8,2.8
					c-0.4,0.9-0.7,1.4-0.5,1.7c0.4,0.5,1.9,0.1,2.8-0.4c1-0.5,1.5-1.3,1.8-1.7c0.6-0.9,0.9-1.7,1-2.1c0.5-1.6,0.3-2.6,0.6-2.7
					c0.2,0,0.7,0.8,0.8,1.7c0.2,1.1-0.2,2.3-0.3,2.7c-0.1,0.4-0.2,0.5-0.2,0.9c-0.1,0.8,0,1,0.1,1.5c0.2,2.1-0.9,1.8-0.9,2.8
					c0,0.9,0.1,1.4,0,1.7c-0.2,0.8-0.9,1.2-2.2,2.1c-2.6,1.7-2,1.6-3.6,2.5c-2.1,1.2-2.5,0.9-3.9,1.9c-0.8,0.5-1.5,1.2-2.8,2.8
					c-3.8,4.7-8.7,12.3-10.6,12.8s-3.5,0.1-4.5-1.7c-0.2-0.4-1.3-4-0.9-5.4C398.1,413.3,403.2,409,405.1,407.1L405.1,407.1z"/>
				<path class="st22" d="M427.1,393.7l0.4,0.3c-1.4,2-3.3,2.9-4.3,3.4c-0.2,0.1-0.4,0.2-0.5,0.3l-0.2-0.4c0.1-0.1,0.3-0.2,0.5-0.3
					C424,396.4,425.7,395.6,427.1,393.7z"/>
				<path class="st22" d="M426.7,397.7c-0.7,0.7-2,1.8-3.4,1.8V399c1.2,0,2.5-1,3.1-1.6L426.7,397.7z"/>
				<path class="st72" d="M392,415.8c0.7-0.6,1.1-0.8,3.4-2c5-2.6,5.8-3.9,5.9-3.4c0.8,3.9,2.1,6,6.6,6.9c0,0-3.3,3.9-3.5,4.1
					c-1.5,1.4-4,3.8-7.7,4.6c-1.2,0.3-1.9,0.4-2.7,0.2c-2.6-0.6-4.8-4-4.2-6.9C390.1,417.6,391.4,416.4,392,415.8L392,415.8z"/>
				<path class="st71" d="M392.1,394.9L392.1,394.9c0.2-0.1,0.5,0,0.6,0.2c1.8,3.5,4.6,12.6,5.6,16c0.1,0.3,0.5,0.4,0.7,0.2
					c0.4-0.3,0.9-0.6,1.6-1.1c0.2-0.1,0.5-0.1,0.6,0.1l0,0c0.1,0.2,0.1,0.5-0.1,0.6c-2,1.3-2.4,1.8-2.4,1.8
					c-0.2,0.3-0.7,0.2-0.8-0.1l0,0c0-0.1-3.9-13-6-17.2C391.8,395.3,391.9,395,392.1,394.9L392.1,394.9z"/>
				<path class="st71" d="M380,384.2c1-0.4,1.9-0.1,2.6,0.1c1.8,0.5,3,1.6,3.8,2.6c0.1,0.2,0.1,0.4-0.1,0.6
					c-0.2,0.1-0.4,0.1-0.5-0.1c-0.7-0.9-1.9-1.8-3.5-2.3c-0.6-0.2-1.4-0.4-2.2-0.1c-1.1,0.4-1.6,1.5-1.9,2.1
					c-0.1,0.2-0.3,0.3-0.5,0.2c-0.2-0.1-0.3-0.3-0.3-0.5C378,386,378.6,384.7,380,384.2L380,384.2z"/>
				<path class="st73" d="M405.1,478.4c1.2-5.9,2.8-16.6,3-20.2h0.6c0,3.3-1.9,14.4-3.1,20.3c-0.9,4.5-1.8,8.8-2,11.3
					c-0.1,1.3,0,2.4,0,2.4c0,0.1,0,0.3,0,0.6c0.2,1.9,0.6,7.7,1.3,11l-0.6,0.1c-0.7-3.3-1.1-9.2-1.3-11.1c0-0.3,0-0.5,0-0.6
					c0,0-0.1-1.2,0-2.5C403.4,487.2,404.2,483,405.1,478.4L405.1,478.4z"/>
				<path class="st74" d="M382.7,453.2c0.1-0.2,0.2-0.2,0.4-0.1c0.1,0.1,0.1,0.2,0.1,0.3c-2.1,7.4-2.1,7.8-2.1,9.6
					c0,1,0.1,1.8,0.2,3.1c0,0.5,0.2,1.4,0.3,2.6c0.4,3.2,1.1,8.4,1.1,12.1c0,0.1-0.1,0.2-0.2,0.2h-0.1c-0.1,0-0.2-0.1-0.2-0.2
					c-0.2-3.6-0.8-8.7-1.1-12.1c-0.1-1.2-0.3-2.1-0.3-2.6c-0.1-1.3-0.2-2.1-0.2-3.2C380.5,461.1,380.9,458.5,382.7,453.2z"/>
				<path class="st73" d="M388.3,507v0.6c-2.7,0-5.9-0.9-6.5-1.3l0.3-0.5C382.5,506.1,385.7,507,388.3,507z"/>
				<path class="st73" d="M382.1,507.6c0.7,0.1,1.9,0.3,2.6,0.6c0.9,0.4,1.8,0.9,2.5,1.5l-0.4,0.5c-0.7-0.6-1.5-1-2.4-1.4
					c-0.6-0.3-1.7-0.4-2.4-0.6c-0.2,0-0.3-0.1-0.5-0.1l0.1-0.6C381.8,507.6,381.9,507.6,382.1,507.6z"/>
				<path class="st73" d="M406,510.9c0.2,0,0.5,0,0.6,0c0.9-0.1,1.9-0.2,2.8-0.4c1-0.2,1.9-0.5,2.8-0.8l0.2,0.6
					c-0.9,0.3-1.9,0.6-2.9,0.8c-0.9,0.2-1.9,0.3-2.9,0.4l0,0c-0.1,0-0.2,0-0.6,0c-0.2,0-0.3,0-0.4,0v-0.2v-0.4
					C405.6,510.8,405.6,510.8,406,510.9z"/>
				<path class="st73" d="M408.9,512.6c0.8-0.1,1.6-0.1,2.4-0.1v0.6c-0.8,0-1.6,0.1-2.3,0.1c-0.3,0-0.7,0-1.1,0.1
					c-0.6,0-1.1,0-1.5,0.1v-0.6c0.3,0,0.9-0.1,1.5-0.1C408.2,512.7,408.6,512.6,408.9,512.6L408.9,512.6z"/>
				<path class="st51" d="M414.6,563.7c0.3,0,1,0.1,1.5-0.3c0.3-0.2,0.4-0.4,0.5-0.8c0.1-0.3,0.2-0.7,0.6-1.2
					c0.8-1.2,1.9-1.8,2.3-2.1c0.6-0.3,1.1-0.6,1.8-0.7l0.2,0.6c-0.6,0.2-1.1,0.4-1.6,0.7s-1.4,0.8-2.1,1.9c-0.3,0.4-0.4,0.8-0.5,1.1
					c-0.1,0.4-0.3,0.8-0.7,1.1c-0.5,0.3-1,0.4-1.5,0.4c-0.2,0-0.3,0-0.4,0c-0.6,0-1.1-0.2-1.7-0.5l0.3-0.5
					C413.7,563.5,414.1,563.7,414.6,563.7L414.6,563.7z"/>
				<path class="st51" d="M382.6,563.4c0.5,0.2,1,0.1,1.8-0.2c0.5-0.2,1-0.5,1.6-0.9c0.5-0.3,0.7-0.5,1-0.7c0.2-0.2,0.4-0.4,0.8-0.6
					c0.6-0.4,1.3-0.8,2-1l0.2,0.6c-0.7,0.3-1.3,0.6-1.9,1c-0.3,0.2-0.5,0.4-0.8,0.6c-0.3,0.2-0.5,0.5-1,0.8c-0.6,0.4-1.2,0.8-1.8,1
					c-0.5,0.2-1,0.4-1.5,0.4c-0.2,0-0.5,0-0.7-0.2c-0.3-0.1-0.5-0.4-0.7-0.6l0.5-0.3C382.2,563.1,382.4,563.3,382.6,563.4
					L382.6,563.4z"/>
				<path class="st69" d="M419.7,384.3c0.2,0,0.3,0.3,0.2,0.5c-0.1,0.3-0.3,0.4-0.5,0.4s-0.3-0.3-0.2-0.5
					C419.4,384.4,419.6,384.2,419.7,384.3z"/>
				<path class="st71" d="M387.6,381c0.2-0.2,0.4-0.2,0.6-0.1c0.9,0.6,1.8,1.2,2.7,1.8c0.9,0.5,3.3,1.7,6.7,2.6
					c4.4,1.1,8.2,1,10,0.8c0.9-0.1,1.8-0.2,2.7-0.4c0.2-0.1,0.5,0.1,0.5,0.3c0.1,0.2-0.1,0.5-0.4,0.6c-0.9,0.2-1.9,0.3-2.8,0.4
					c-0.7,0.1-1.7,0.1-2.8,0.1c-2,0-4.6-0.2-7.5-0.9c-3.5-0.9-6-2.1-6.9-2.7c-1-0.5-1.9-1.2-2.8-1.8
					C387.5,381.5,387.4,381.2,387.6,381L387.6,381z"/>
				<path class="st51" d="M405.3,388.1c0.3,0,0.6,0.3,0.6,0.6c0,0.3-0.3,0.6-0.6,0.6c-0.3,0-0.6-0.3-0.6-0.6
					C404.6,388.3,404.9,388.1,405.3,388.1z"/>
				<path class="st51" d="M405.6,390.6c0.3,0,0.6,0.3,0.6,0.6c0,0.3-0.3,0.6-0.6,0.6c-0.3,0-0.6-0.3-0.6-0.6
					C404.9,390.8,405.2,390.6,405.6,390.6z"/>
				<path class="st51" d="M405.9,394.3c0.3,0,0.6-0.3,0.6-0.6c0-0.3-0.3-0.6-0.6-0.6c-0.3,0-0.6,0.3-0.6,0.6
					S405.5,394.3,405.9,394.3z"/>
				<path class="st42" d="M390.1,341.1c1.9-0.4,4.5,0.1,5.5,1.5c1.1,1.5,1.4,6-1.9,8.2c-0.9,0.6-1.7,0.9-2.3,1.2
					c-1.9,0.8-3.2,1.4-4.4,1c-1.6-0.5-2.3-2.4-2.4-2.7C383.4,346.9,386,341.9,390.1,341.1L390.1,341.1z"/>
				<path class="st21" d="M395.3,355.4L395.3,355.4c0.1-0.4,0.5-0.6,0.9-0.5l3,1c0.3,0.1,0.5,0.5,0.4,0.8v0.1
					c-0.1,0.3-0.5,0.5-0.8,0.4l-3-1C395.4,356.1,395.2,355.7,395.3,355.4z"/>
				<path class="st14" d="M707.6,161.8c5.3,2.3,7.9,1.9,8.9,2.4c0.3,0.2,3.7,0.3,3.7,3.6c0,3.5,3.3,7.5-8.5,7.4
					c-0.6,0-2.6-0.2-6.5-0.8s-6.3-1-9.4-2.1c-3.8-1.4-8.5-5-6.2-10.5C690.3,159.9,695.1,156.3,707.6,161.8L707.6,161.8z"/>
				<path class="st75" d="M701.3,129.5c3.2,1,5.5,2.1,5.6,2.1c8.1,3.7,22.6,8.9,28.7,10.6c18.8,5.4,30.9-0.3,31.6,2.4
					c1,3.6-20.4,17.5-43.3,14.3c-3.5-0.5-15.4-2.3-24.7-11.7c-7-7.1-11.4-17.9-9-20.2C691.5,125.8,695.4,127.6,701.3,129.5
					L701.3,129.5z"/>
				<path class="st13" d="M686.2,127.1c0.5-0.2,2.7-1.1,5.6-0.5c5,0.9,11.9,9.3,28.7,19.9c20.6,13,22.1,14.9,21.8,16.5
					c-0.9,3.9-12.9,4.2-14.1,4.2c-10.9,0.2-39.9-18.2-44.1-23.1C676.6,135.3,683.3,128.3,686.2,127.1z"/>
				<path class="st76" d="M743.7,148.6v1.3l-20.1,9.2l-22.1-9.7l4.2-10.4L743.7,148.6z"/>
				<path class="st14" d="M690.9,160.2c-0.4,1.1-0.8,2.6-0.4,4.3c0.6,2.4,2.4,3.8,3.6,4.6c2.2,1.6,4.5,2.1,5.4,2.3
					c3.5,0.7,10.4,1.6,19.6,2.7c-1.3,0.7-3.5,1.1-7.4,1.1c-0.6,0-2.6-0.2-6.5-0.8s-6.3-1-9.4-2.1c-3.8-1.4-8.5-5-6.2-10.5
					C689.7,161.3,690.1,160.7,690.9,160.2L690.9,160.2z"/>
				<path class="st77" d="M743.6,148.4l-19.3,9.2l-22.9-9.7l4.3-10.4L743.6,148.4z"/>
				<path class="st20" d="M710.6,164.6c0.2,0,0.7,0.1,1.6,0.3c2,0.5,2.5,0.7,3.4,0.7c0.4,0,1-0.1,2-0.4c2.6-0.9,4.7-2.5,6.2-3.6
					c3.1-2.2,4.7-3.3,6.4-3.2c4,0.3,8.2,7.3,6.4,10.9c-0.9,1.8-2.6,1.1-11.9,3.5c-5.2,1.3-8.8,2.2-12.5,1.9
					c-2.8-0.2-4.2-1.3-4.7-1.8c-0.3-0.3-0.6-0.6-0.6-0.6c-1-1.2-2.2-3.6-1.1-5.6C706.8,164.9,709.2,164.5,710.6,164.6L710.6,164.6z"
					/>
				<path class="st76" d="M716.8,134.7l7.5,22.9l-27.5-8.1l-9-21.6l0.8-0.6L716.8,134.7z"/>
				<path class="st78" d="M723.6,159.1l-27.5-8.3l-8.2-22.8l28.2,7.4L723.6,159.1z"/>
				<path class="st79" d="M697,163.6c1.4,0.3,4.5,1.2,6.6,1.8c0.8,0.2,1.6,0.4,1.9,0.5c0.1,0,0.2,0,0.3-0.1s0.2-0.2,0.3-0.3
					c0.9-0.8,2.7-2.4,6.1-1.3c0.2,0.1,0.3,0.2,0.2,0.4s-0.2,0.3-0.4,0.2c-3-1-4.6,0.4-5.5,1.2c-0.3,0.3-0.6,0.5-0.9,0.5h-0.1
					c-0.2,0-0.9-0.2-2.1-0.6c-2.1-0.6-5.2-1.4-6.6-1.7c-0.2,0-0.3-0.2-0.2-0.4C696.7,163.7,696.9,163.5,697,163.6L697,163.6z"/>
				<path class="st79" d="M696.4,165c0-0.2,0.2-0.3,0.4-0.2c5.8,1.4,7.7,2,8.2,2.7c0.1,0.1,0.1,0.3,0.2,0.7c0.2,1.1,0.6,3.3,2.7,4.8
					c2.2,1.5,5.7,1.9,10.4,1c0.2,0,0.3,0.1,0.4,0.3c0,0.2-0.1,0.3-0.3,0.4c-1.7,0.3-3.3,0.5-4.7,0.5c-2.6,0-4.7-0.5-6.2-1.6
					c-2.4-1.6-2.8-4.1-3-5.2c0-0.1,0-0.3-0.1-0.4c0-0.1-0.1-0.1-0.1-0.2c-0.8-0.7-4.2-1.5-7.8-2.4
					C696.4,165.4,696.3,165.2,696.4,165L696.4,165z"/>
				<path class="st80" d="M703.8,140.7c0.7-0.3,1.6,0.2,1.9,1.1c0.4,0.9,0.1,1.9-0.6,2.1c-0.7,0.3-1.6-0.2-1.9-1.1
					C702.8,141.9,703.1,141,703.8,140.7z"/>
				<path class="st44" d="M691.6,134.4c3.9,8,9.5,12.4,11.6,14.1c6.8,5.4,14.2,7.7,19.8,8.7l0.6,1.8l-27.5-8.3l-8.2-22.8l1.3,0.3
					C689.7,130.1,690.5,132.2,691.6,134.4L691.6,134.4z"/>
				<path class="st81" d="M705.1,132.5l10.8,2.8c0.1,0,0.2,0.2,0.2,0.3s-0.2,0.2-0.3,0.2L705,133c-0.1,0-0.2-0.2-0.2-0.3
					C704.8,132.6,704.9,132.5,705.1,132.5z"/>
				<path class="st82" d="M697.9,151.5l19.8,6c0.1,0,0.2,0.2,0.2,0.3s-0.2,0.2-0.3,0.2l-19.8-6c-0.1,0-0.2-0.2-0.2-0.3
					C697.6,151.5,697.7,151.4,697.9,151.5L697.9,151.5z"/>
			</g>
		</g>
	</g>
</g>
<rect class="st83" width="711" height="585"/>
</svg>
