<?xml version="1.0" encoding="utf-8"?>
<!-- Generator: Adobe Illustrator 26.5.1, SVG Export Plug-In . SVG Version: 6.00 Build 0)  -->
<svg version="1.1" id="Capa_1" xmlns="http://www.w3.org/2000/svg" xmlns:xlink="http://www.w3.org/1999/xlink" x="0px" y="0px"
	 viewBox="0 0 200 200" style="enable-background:new 0 0 200 200;" xml:space="preserve">
<style type="text/css">
	.st0{fill:none;stroke:#FFFFFF;stroke-width:8;stroke-miterlimit:10;}
</style>
<g>
	<path class="st0" d="M179,7.7H21c-8.3,0-15,6.7-15,15v122.1c0,8.3,6.7,15,15,15h23.1v28.1c0,4,4.8,6,7.7,3.2L83,159.8h96
		c8.3,0,15-6.7,15-15V22.7C194,14.4,187.3,7.7,179,7.7z"/>
	<g>
		<path class="st0" d="M145.1,115.6l-4.3-7.8c-3.3-5.9-5-12.6-5-19.4V76.3c0-19.8-16-35.8-35.8-35.8h0c-19.8,0-35.8,16-35.8,35.8
			v12.2c0,6.8-1.7,13.5-5,19.4l-4.3,7.8c-1.9,3.3,0.6,7.4,4.4,7.4h81.6C144.6,123,147,118.9,145.1,115.6z"/>
		<path class="st0" d="M85.2,42.6c0-8.2,6.6-14.8,14.8-14.8s14.8,6.6,14.8,14.8"/>
		<path class="st0" d="M115.2,124c0,8.4-6.8,15.2-15.2,15.2s-15.2-6.8-15.2-15.2"/>
	</g>
</g>
</svg>
