<?xml version="1.0" encoding="utf-8"?>
<!-- Generator: Adobe Illustrator 26.5.1, SVG Export Plug-In . SVG Version: 6.00 Build 0)  -->
<svg version="1.1" id="Capa_1" xmlns="http://www.w3.org/2000/svg" xmlns:xlink="http://www.w3.org/1999/xlink" x="0px" y="0px"
	 viewBox="0 0 200 200" style="enable-background:new 0 0 200 200;" xml:space="preserve">
<style type="text/css">
	.st0{fill:none;stroke:#FFFFFF;stroke-width:10;stroke-miterlimit:10;}
	.st1{fill:none;stroke:#FFFFFF;stroke-width:9;stroke-miterlimit:10;}
</style>
<g>
	<g>
		<path class="st0" d="M147.9,134.5l-4.6-8.5c-3.5-6.5-5.3-13.6-5.3-21V91.7c0-21.4-17-38.9-38-38.9l0,0c-21,0-38,17.3-38,38.9v13.2
			c0,7.4-1.8,14.7-5.3,21l-4.6,8.5c-2.1,3.6,0.7,8,4.7,8h86.7C147.4,142.4,149.9,138,147.9,134.5z"/>
		<path class="st1" d="M79.9,55.6V52c0-11.3,8.9-20.5,20.1-20.5s20.1,9.1,20.1,20.5v3.7"/>
		<path class="st1" d="M119.7,140.9v7.6c0,11-8.7,20-19.7,20s-19.7-9-19.7-20v-7.6"/>
	</g>
	<g>
		<g>
			<path class="st0" d="M24.2,140.6C13.6,129.7,7.7,115.1,7.7,99.9c0-15.1,5.9-29.6,16.3-40.5"/>
			<path class="st0" d="M39.7,124.2c-6.3-6.5-9.9-15.2-9.9-24.3c0-9,3.5-17.7,9.8-24.2"/>
		</g>
		<g>
			<path class="st0" d="M175.8,59.4c10.6,10.9,16.5,25.5,16.5,40.7c0,15.1-5.9,29.6-16.3,40.5"/>
			<path class="st0" d="M160.3,75.8c6.3,6.5,9.9,15.2,9.9,24.3c0,9-3.5,17.7-9.8,24.2"/>
		</g>
	</g>
</g>
</svg>
