<?xml version="1.0" encoding="utf-8"?>
<!-- Generator: Adobe Illustrator 26.5.1, SVG Export Plug-In . SVG Version: 6.00 Build 0)  -->
<svg version="1.1" id="Capa_1" xmlns="http://www.w3.org/2000/svg" xmlns:xlink="http://www.w3.org/1999/xlink" x="0px" y="0px"
	 viewBox="0 0 200 200" style="enable-background:new 0 0 200 200;" xml:space="preserve">
<style type="text/css">
	.st0{fill:none;}
	.st1{fill:none;stroke:#FFFFFF;stroke-width:10;stroke-miterlimit:10;}
	.st2{fill:#FFFFFF;}
</style>
<rect x="10.7" y="12.7" class="st0" width="177.9" height="142"/>
<path class="st1" d="M179,7.7H21c-8.3,0-15,6.7-15,15v122.1c0,8.3,6.7,15,15,15h23.1v28.1c0,4,4.8,6,7.7,3.2L83,159.8h96
	c8.3,0,15-6.7,15-15V22.7C194,14.4,187.3,7.7,179,7.7z"/>
<g>
	<g>
		<ellipse class="st2" cx="79.9" cy="64.2" rx="9.2" ry="8.9"/>
		<ellipse class="st2" cx="120.1" cy="64.2" rx="9.2" ry="8.9"/>
	</g>
	<path class="st1" d="M150.1,76c-9.7,19-29.7,31.1-51.5,31.1c-20.4,0-39.3-10.6-49.6-27.7"/>
</g>
</svg>
