<?xml version="1.0" encoding="utf-8"?>
<!-- Generator: Adobe Illustrator 26.5.1, SVG Export Plug-In . SVG Version: 6.00 Build 0)  -->
<svg version="1.1" id="Capa_1" xmlns="http://www.w3.org/2000/svg" xmlns:xlink="http://www.w3.org/1999/xlink" x="0px" y="0px"
	 viewBox="0 0 200 200" style="enable-background:new 0 0 200 200;" xml:space="preserve">
<style type="text/css">
	.st0{fill:none;stroke:#FFFFFF;stroke-width:10;stroke-miterlimit:10;}
	.st1{fill:none;stroke:#FFFFFF;stroke-width:8;stroke-miterlimit:10;}
</style>
<g>
	<path class="st0" d="M179,7.7H21c-8.3,0-15,6.7-15,15v122.1c0,8.3,6.7,15,15,15h23.1v28.1c0,4,4.8,6,7.7,3.2L83,159.8h96
		c8.3,0,15-6.7,15-15V22.7C194,14.4,187.3,7.7,179,7.7z"/>
	<g>
		<path class="st0" d="M141,112.9l-3.9-7.1c-3-5.4-4.5-11.5-4.5-17.8V76.9c0-18.1-14.5-32.8-32.5-32.8l0,0
			c-18,0-32.5,14.6-32.5,32.8v11.2c0,6.2-1.5,12.4-4.5,17.8L59,113c-1.7,3,0.5,6.8,4,6.8h74.1C140.5,119.7,142.7,115.9,141,112.9z"
			/>
		<path class="st1" d="M86.6,44.1c0-7.5,6-13.6,13.4-13.6c7.4,0,13.4,6,13.4,13.6"/>
		<path class="st1" d="M113.8,120.6c0,7.7-6.2,13.9-13.8,13.9c-7.6,0-13.8-6.2-13.8-13.9"/>
	</g>
</g>
</svg>
