<?xml version="1.0" encoding="utf-8"?>
<!-- Generator: Adobe Illustrator 26.5.1, SVG Export Plug-In . SVG Version: 6.00 Build 0)  -->
<svg version="1.1" id="Capa_1" xmlns="http://www.w3.org/2000/svg" xmlns:xlink="http://www.w3.org/1999/xlink" x="0px" y="0px"
	 viewBox="0 0 200 200" style="enable-background:new 0 0 200 200;" xml:space="preserve">
<style type="text/css">
	.st0{fill:none;stroke:#FFFFFF;stroke-width:10;stroke-miterlimit:10;}
	.st1{fill:none;stroke:#FFFFFF;stroke-width:7;stroke-miterlimit:10;}
	.st2{fill:none;stroke:#FFFFFF;stroke-width:8;stroke-miterlimit:10;}
</style>
<path class="st0" d="M179,7.7H21c-8.3,0-15,6.7-15,15v122.1c0,8.3,6.7,15,15,15h23.1v28.1c0,4,4.8,6,7.7,3.2L83,159.8h96
	c8.3,0,15-6.7,15-15V22.7C194,14.4,187.3,7.7,179,7.7z"/>
<g>
	<path class="st0" d="M134.6,109.2l-3.3-6.2c-2.5-4.7-3.8-9.9-3.8-15.3v-9.6c0-15.6-12.3-28.3-27.5-28.3l0,0
		c-15.2,0-27.5,12.6-27.5,28.3v9.6c0,5.4-1.3,10.7-3.8,15.3l-3.3,6.2c-1.5,2.6,0.5,5.8,3.4,5.8h62.7
		C134.3,115,136.1,111.8,134.6,109.2z"/>
	<path class="st1" d="M85.5,51.1c0-8.2,6.4-14.9,14.5-14.9s14.5,6.6,14.5,14.9"/>
	<path class="st2" d="M111.7,117.8c0,6.6-5.2,12-11.7,12s-11.7-5.4-11.7-12"/>
</g>
</svg>
