<?xml version="1.0" encoding="utf-8"?>
<!-- Generator: Adobe Illustrator 26.5.1, SVG Export Plug-In . SVG Version: 6.00 Build 0)  -->
<svg version="1.1" id="Capa_1" xmlns="http://www.w3.org/2000/svg" xmlns:xlink="http://www.w3.org/1999/xlink" x="0px" y="0px"
	 viewBox="0 0 200 200" style="enable-background:new 0 0 200 200;" xml:space="preserve">
<style type="text/css">
	.st0{fill:none;stroke:#FFFFFF;stroke-width:10;stroke-miterlimit:10;}
	.st1{fill:none;stroke:#FFFFFF;stroke-width:9;stroke-miterlimit:10;}
</style>
<path class="st0" d="M154.4,141l-5.2-9.8c-3.9-7.4-6-15.6-6-24.1V92c0-24.6-19.4-44.5-43.3-44.5l0,0c-23.9,0-43.3,19.8-43.3,44.5
	v15.1c0,8.5-2,16.8-6,24.1l-5.2,9.8c-2.4,4.1,0.8,9.1,5.4,9.1h98.7C154,150.1,156.8,145.1,154.4,141z"/>
<path class="st1" d="M77.2,50.7v-4.2c0-12.9,10.1-23.4,22.8-23.4s22.8,10.4,22.8,23.4v4.2"/>
<path class="st1" d="M122.4,148.3v8.7c0,12.6-9.9,22.9-22.4,22.9S77.6,169.6,77.6,157v-8.7"/>
</svg>
