<?xml version="1.0" encoding="utf-8"?>
<!-- Generator: Adobe Illustrator 26.5.1, SVG Export Plug-In . SVG Version: 6.00 Build 0)  -->
<svg version="1.1" id="Capa_1" xmlns="http://www.w3.org/2000/svg" xmlns:xlink="http://www.w3.org/1999/xlink" x="0px" y="0px"
	 viewBox="0 0 200 200" style="enable-background:new 0 0 200 200;" xml:space="preserve">
<style type="text/css">
	.st0{fill:#FFFFFF;}
</style>
<path class="st0" d="M173.3,2.7H26.6c-13.5,0-24.5,11-24.5,24.1v109.7c0,13.5,11,24.1,24.5,24.1h36.7v32.1c0,3.8,4.2,5.9,7.3,3.7
	l47.7-35.8h55c13.5,0,24.5-11,24.5-24.1V26.8C197.8,13.7,187.1,2.7,173.3,2.7z M179.8,137.2c0,3.3-2.8,6.1-6.1,6.1h-61.1L82,166.2
	v-22.9H27c-3.3,0-6.1-2.8-6.1-6.1v-110c0-3.3,2.8-6.1,6.1-6.1h146.7c3.3,0,6.1,2.8,6.1,6.1V137.2z M124.8,69.6
	c6.8,0,12.2-5.4,12.2-11.9s-5.4-12.2-11.9-12.2c-6.4,0-11.9,5.4-11.9,12.2S118,69.6,124.8,69.6z M75.9,69.6
	c6.8,0,12.2-5.4,12.2-11.9s-5.4-12.2-11.9-12.2s-11.9,5.4-11.9,12.2S69.1,69.6,75.9,69.6z M127,94.5c-6.6,7.7-16.3,12.1-26.7,12.1
	c-10.4,0-20.1-4.4-26.6-12.1c-3.3-3.9-9.1-4.3-12.9-1.1c-3.9,3.3-4.2,9.1-1,12.9c10.1,11.8,24.9,18.6,40.6,18.6
	c15.7,0,30.5-6.8,40.6-18.6c3.2-3.8,2.8-9.6-1.1-12.9C136.1,90.2,130.3,90.6,127,94.5z"/>
</svg>
