<?xml version="1.0" encoding="utf-8"?>
<!-- Generator: Adobe Illustrator 26.5.1, SVG Export Plug-In . SVG Version: 6.00 Build 0)  -->
<svg version="1.1" id="Capa_1" xmlns="http://www.w3.org/2000/svg" xmlns:xlink="http://www.w3.org/1999/xlink" x="0px" y="0px"
	 viewBox="0 0 200 200" style="enable-background:new 0 0 200 200;" xml:space="preserve">
<style type="text/css">
	.st0{fill:none;stroke:#FFFFFF;stroke-width:10;stroke-miterlimit:10;}
	.st1{fill:none;stroke:#FFFFFF;stroke-width:8;stroke-miterlimit:10;}
	.st2{fill:none;stroke:#FFFFFF;stroke-width:5;stroke-miterlimit:10;}
</style>
<path class="st0" d="M179,7.7H21c-8.3,0-15,6.7-15,15v122.1c0,8.3,6.7,15,15,15h23.1v28.1c0,4,4.8,6,7.7,3.2L83,159.8h96
	c8.3,0,15-6.7,15-15V22.7C194,14.4,187.3,7.7,179,7.7z"/>
<g>
	<path class="st1" d="M132,107.4l-3-5.8c-2.3-4.4-3.5-9.2-3.5-14.3v-8.9C125.4,63.9,114,52,100,52l0,0c-14,0-25.4,11.7-25.4,26.4
		v8.9c0,5-1.2,10-3.5,14.3l-3,5.8c-1.4,2.4,0.5,5.4,3.1,5.4h57.9C131.7,112.8,133.4,109.8,132,107.4z"/>
	<path class="st2" d="M86.6,53.2c0-0.5,0-2.8,0.1-3.3c0.7-7,6.3-12.5,13.3-12.5c7.1,0,12.7,5.5,13.3,12.6c0,0.4,0.1,2.7,0.1,3.2"/>
	<path class="st2" d="M110.8,116.3c0,6.1-4.8,11.2-10.8,11.2c-6,0-10.8-5-10.8-11.2"/>
</g>
</svg>
