<?xml version="1.0" encoding="utf-8"?>
<!-- Generator: Adobe Illustrator 26.5.1, SVG Export Plug-In . SVG Version: 6.00 Build 0)  -->
<svg version="1.1" id="Capa_1" xmlns="http://www.w3.org/2000/svg" xmlns:xlink="http://www.w3.org/1999/xlink" x="0px" y="0px"
	 viewBox="0 0 200 200" style="enable-background:new 0 0 200 200;" xml:space="preserve">
<style type="text/css">
	.st0{fill:none;stroke:#FFFFFF;stroke-width:6;stroke-miterlimit:10;}
	.st1{fill:none;}
	.st2{fill:none;stroke:#FFFFFF;stroke-width:10;stroke-miterlimit:10;}
</style>
<g>
	<g>
		<path class="st0" d="M136.5,109.8l-3.5-6.4c-2.7-4.9-4.1-10.2-4.1-15.8v-10c0-16.1-13-29.2-29.1-29.2l0,0
			c-16.1,0-29.1,13-29.1,29.2v9.9c0,5.6-1.4,11.1-4.1,15.8l-3.5,6.4c-1.6,2.7,0.5,6,3.6,6h66.5C136.2,115.7,138.1,112.4,136.5,109.8
			z"/>
		<path class="st0" d="M84.4,50.4v-2.7c0-8.5,6.8-15.4,15.4-15.4s15.4,6.8,15.4,15.4v2.8"/>
		<path class="st0" d="M114.9,114.6v5.7c0,8.3-6.7,15-15.1,15s-15.1-6.8-15.1-15v-5.7"/>
	</g>
	<g>
		<g>
			<path class="st0" d="M38.7,114.3c-8.1-8.2-12.6-19.2-12.6-30.6c0-11.4,4.5-22.3,12.5-30.4"/>
			<path class="st0" d="M53.6,102C48.8,97.1,46,90.6,46,83.7c0-6.8,2.7-13.3,7.5-18.2"/>
		</g>
		<g>
			<path class="st0" d="M160.9,53.3c8.1,8.2,12.6,19.2,12.6,30.6c0,11.4-4.5,22.3-12.5,30.4"/>
			<path class="st0" d="M146,65.6c4.8,4.9,7.6,11.4,7.6,18.3c0,6.8-2.7,13.3-7.5,18.2"/>
		</g>
	</g>
</g>
<rect x="10.9" y="12.8" class="st1" width="177.9" height="142"/>
<path class="st2" d="M179,7.6H21c-8.3,0-15,6.7-15,15v122.1c0,8.3,6.7,15,15,15h23.1v28.1c0,4,4.8,6,7.7,3.2L83,159.7h96
	c8.3,0,15-6.7,15-15V22.6C194,14.3,187.3,7.6,179,7.6z"/>
</svg>
