<?xml version="1.0" encoding="utf-8"?>
<!-- Generator: Adobe Illustrator 26.5.1, SVG Export Plug-In . SVG Version: 6.00 Build 0)  -->
<svg version="1.1" id="Capa_1" xmlns="http://www.w3.org/2000/svg" xmlns:xlink="http://www.w3.org/1999/xlink" x="0px" y="0px"
	 viewBox="0 0 200 200" style="enable-background:new 0 0 200 200;" xml:space="preserve">
<style type="text/css">
	.st0{fill:#FFFFFF;}
</style>
<path class="st0" d="M0.6,128.1C0.6,128.1,0.6,128.1,0.6,128.1c0-9.9,0-19.7,0-29.6c0-9.2,0-18.3,0-27.5C0.4,67.3,1,63.5,2.4,59.9
	C2.6,59.4,2.8,59,3,58.6c0.4-0.8,0.8-1.7,1.3-2.5c1.4-2.4,3.3-4.5,5.3-6.2c0.1-0.1,0.3-0.3,0.4-0.4C23.4,36,36.7,22.7,50.1,9.3
	c2.2-2.5,4.9-4.5,7.9-6c0.2-0.1,0.3-0.2,0.5-0.2c0.2-0.1,0.4-0.2,0.6-0.3c1.5-0.7,3-1.2,4.7-1.6c2.5-0.5,5-0.7,7.4-0.5
	c0.2,0,0.5,0,0.7,0c9.8,0,19.7,0,29.5,0c9.2,0,18.3,0,27.5,0c3.8-0.2,7.6,0.4,11.2,1.8c0.4,0.2,0.9,0.4,1.3,0.6
	c0.8,0.4,1.7,0.8,2.5,1.3c2.4,1.4,4.5,3.3,6.2,5.3c0.1,0.1,0.3,0.3,0.4,0.4c13.5,13.4,27,26.9,40.4,40.4c0.3,0.3,0.5,0.5,0.8,0.8
	c0,0,0.1,0.1,0.1,0.1c0.3,0.3,0.6,0.6,0.8,0.9c0.9,1,1.8,2.1,2.5,3.2c1.7,2.5,3,5.3,3.7,8.3c0.5,2.4,0.7,4.9,0.6,7.3
	c0,7.3,0,14.5,0,21.8c0,10.7,0,21.4,0,32.1c0,1.9,0,3.8,0,5.7c-0.1,7.5-3.4,14.6-9,19.4c-12.6,12.7-25.3,25.3-37.9,37.9
	c-1.3,1.3-2.6,2.6-4,4c-5.4,5.3-12.9,8-20.3,7.4c-7,0-14.1,0-21.1,0c-10.7,0-21.4,0-32.1,0c-1.9,0-3.8,0-5.7,0
	c-7.5-0.1-14.6-3.4-19.4-9c-12.7-12.6-25.3-25.3-37.9-37.9c-0.9-0.9-1.7-1.7-2.6-2.6c-3.1-2.8-5.5-6.3-7.1-10.2
	c-0.4-0.9-0.7-1.9-0.9-2.8C0.6,134,0.3,131.1,0.6,128.1z M25.2,147.7c1.1,0,2.3,0,3.4,0c5,0,10,0,15,0c0-6.2,0-12.3,0-18.5
	c0-2,0-4,0-6c-5.8-5.8-11.5-11.5-17.3-17.3c-2.4,2.4-4.7,4.7-7.1,7.1c-3.3,3.3-7.1,6.4-8.9,10.6c-0.6,1.4-1,3-1.2,4.5
	c0,2.5,0,4.7,0.6,7c0.8,2.6,2.2,5.1,4.2,7.2c0.4,0.4,0.9,0.9,1.3,1.3C18.1,146.1,21.6,147.6,25.2,147.7z M52.2,166.7
	c0,2,0,3.9,0,5.9c0,0.4,0,0.8,0,1.1c0,2.2,0.5,4.6,1.2,6.4c0.4,0.9,0.8,1.7,1.3,2.5c0.4,0.7,0.8,1.2,1.1,1.6
	c0.4,0.4,0.9,0.9,1.3,1.3c2,2,4.2,3.4,6.6,4.3c0,0,0.1,0,0.1,0c0.3,0.1,0.6,0.2,1,0.3c1.4,0.4,2.8,0.6,4.3,0.6c0.8,0,1.6,0,2.4,0
	c0,0,0,0,0.1,0c2.9-0.3,6.6-1.9,9.1-4.1c0.4-0.4,0.8-0.8,1.2-1.1c1.2-1.2,2.3-2.3,3.5-3.5c2.8-2.8,5.6-5.6,8.4-8.4
	c-5.8-5.8-11.5-11.5-17.3-17.3c-5.5,0-11,0-16.5,0c-2.6,0-5.3,0-7.9,0C52.2,159.8,52.2,163.3,52.2,166.7z M123.8,189.6
	c1.4,0.6,3,1,4.5,1.2c0.7,0,1.4,0,2.1,0c2,0,3.9-0.3,5.8-0.9c2.3-0.8,4.5-2.1,6.3-4c0.6-0.6,1.1-1.1,1.7-1.7
	c0.1-0.1,0.1-0.1,0.2-0.2c2.3-3,3.4-6.8,3.4-10.8c0-1.6,0-3.2,0-4.8c0-4,0-8,0-12.1c-6.2,0-12.3,0-18.5,0c-2,0-4,0-6,0
	c-5.8,5.8-11.5,11.5-17.3,17.3c2.4,2.4,4.7,4.7,7.1,7.1C116.5,184,119.6,187.8,123.8,189.6z M190,136c0.1-0.3,0.2-0.6,0.3-1
	c0.4-1.4,0.6-2.8,0.6-4.3c0-0.8,0-1.6,0-2.4c0,0,0,0,0-0.1c-0.3-2.9-1.9-6.6-4.1-9.1c-0.4-0.4-0.8-0.8-1.1-1.2
	c-1.2-1.2-2.3-2.3-3.5-3.5c-2.8-2.8-5.6-5.6-8.4-8.4c-5.8,5.8-11.5,11.5-17.3,17.3c0,2.9,0,5.8,0,8.8c0,5.2,0,10.4,0,15.7
	c3.4,0,6.9,0,10.4,0c2,0,3.9,0,5.9,0c0.4,0,0.8,0,1.1,0c2.2,0,4.6-0.5,6.4-1.2c0.9-0.4,1.7-0.8,2.5-1.3c0.7-0.4,1.2-0.8,1.6-1.1
	c0.4-0.4,0.9-0.9,1.3-1.3c2-2,3.4-4.2,4.3-6.6C190,136.1,190,136.1,190,136z M189.9,63.7c0-0.1,0-0.1-0.1-0.2
	c-1.1-2.7-2.7-4.9-5-7.1c-0.2-0.2-0.4-0.4-0.5-0.5c-0.1-0.1-0.1-0.1-0.2-0.2c-3-2.3-6.8-3.4-10.8-3.4c-1.6,0-3.2,0-4.8,0
	c-4,0-8,0-12.1,0c0,3.5,0,7,0,10.5c0,4.6,0,9.2,0,13.9c5.8,5.8,11.5,11.5,17.3,17.3c3.2-3.2,6.4-6.4,9.6-9.6
	c0.9-0.9,1.8-1.8,2.6-2.6c1.5-1.5,2.6-3,3.5-5c0.7-1.5,1.2-3.4,1.4-5.2c0-0.6,0-1.2,0-1.9c0-2-0.3-4-0.9-5.8
	C189.9,63.8,189.9,63.7,189.9,63.7z M138.5,11c-0.2-0.1-0.3-0.2-0.5-0.2c-0.1-0.1-0.2-0.1-0.4-0.2c-2.7-1.2-5.3-1.5-8.6-1.5
	c-0.3,0-0.6,0-0.8,0c-3.4,0.4-6.9,2-9.5,4.5c-0.7,0.7-1.4,1.4-2.2,2.2c-3.5,3.5-7,7-10.6,10.6c5.8,5.8,11.5,11.5,17.3,17.3
	c2.9,0,5.8,0,8.8,0c5.2,0,10.4,0,15.7,0c0-4.6,0-9.2,0-13.8c0-1.2,0-2.4,0-3.6c0-3.9-1.4-7.8-3.8-10.8
	C142.2,13.8,140.6,12.2,138.5,11z M84.3,16.8c-0.9-0.9-1.8-1.8-2.6-2.6c-1.5-1.5-3-2.6-5-3.5c-1.5-0.7-3.4-1.2-5.2-1.4
	c-2.6,0-4.7,0-7.1,0.7c-3.1,1-5.5,2.8-8,5.3c-0.1,0.1-0.1,0.1-0.2,0.2c-2.3,2.8-3.8,6.3-4,9.8c0,1.1,0,2.3,0,3.4c0,5,0,10,0,15
	c3.5,0,7,0,10.5,0c4.6,0,9.2,0,13.9,0c5.8-5.8,11.5-11.5,17.3-17.3C90.7,23.1,87.5,20,84.3,16.8z M11.1,61.5
	c-0.1,0.2-0.2,0.3-0.2,0.5c-0.1,0.1-0.1,0.2-0.2,0.4c-1.2,2.7-1.5,5.3-1.5,8.6c0,0.3,0,0.6,0,0.8c0.4,3.4,2,6.9,4.5,9.5
	c0.7,0.7,1.4,1.4,2.2,2.2c3.5,3.5,7,7,10.6,10.6c5.8-5.8,11.5-11.5,17.3-17.3c0-5.5,0-11,0-16.5c0-2.6,0-5.3,0-7.9
	c-4.6,0-9.2,0-13.8,0c-1.2,0-2.4,0-3.6,0c-3.9,0-7.8,1.4-10.8,3.8C13.8,57.8,12.2,59.4,11.1,61.5z M19.3,100.9c0.3-0.3,0.6-0.6,1-1
	c-2-2-4.1-4.1-6.1-6.1c-1.6-1.6-3.4-3.2-5-4.9c0,7.4,0,14.8,0,22.1C12.6,107.7,16,104.3,19.3,100.9z M80.2,147.7
	c13.2,0,26.4,0,39.6,0c1.1-1.1,2.2-2.2,3.3-3.3c8.2-8.2,16.5-16.5,24.7-24.7c0-1.6,0-3.1,0-4.7c0-11.6,0-23.3,0-34.9
	c-1.1-1.1-2.2-2.2-3.3-3.3c-8.2-8.2-16.5-16.5-24.7-24.7c-1.6,0-3.1,0-4.7,0c-11.6,0-23.3,0-34.9,0c-9.3,9.3-18.7,18.7-28,28
	c0,13.2,0,26.4,0,39.6C61.6,129.1,70.9,138.4,80.2,147.7z M131.9,147.7c3.9,0,7.8,0,11.7,0c1.4,0,2.8,0,4.2,0c0-5.3,0-10.6,0-15.8
	c-2,2-4,4-6,6C138.5,141.2,135.2,144.5,131.9,147.7z M156.4,111.2c3.7-3.7,7.5-7.5,11.2-11.2c-3.7-3.7-7.5-7.5-11.2-11.2
	c0,2.8,0,5.6,0,8.3C156.4,101.8,156.4,106.5,156.4,111.2z M131.9,52.2c2,2,4,4,6,6c3.3,3.3,6.5,6.5,9.8,9.8c0-5.3,0-10.6,0-15.8
	C142.5,52.2,137.2,52.2,131.9,52.2z M52.2,68c4.1-4.1,8.2-8.2,12.3-12.3c1.2-1.2,2.3-2.3,3.5-3.5c-5.3,0-10.6,0-15.8,0
	C52.2,57.5,52.2,62.8,52.2,68z M43.6,94.1c0-1.8,0-3.5,0-5.3c-2.7,2.7-5.4,5.4-8,8c-1,1-2.1,2.1-3.1,3.1c3.7,3.7,7.5,7.5,11.2,11.2
	C43.6,105.5,43.6,99.8,43.6,94.1z M36.6,43.6c2.3,0,4.7,0,7,0c0-2.9,0-5.8,0-8.6c0-2.3-0.1-4.7,0-7c-5.2,5.2-10.4,10.4-15.7,15.7
	C30.8,43.6,33.7,43.6,36.6,43.6z M88.8,43.6c2.8,0,5.6,0,8.3,0c4.7,0,9.4,0,14.1,0c-3.7-3.7-7.5-7.5-11.2-11.2
	C96.3,36.1,92.6,39.9,88.8,43.6z M156.4,36.6c0,2.3,0,4.7,0,7c1.2,0,2.5,0,3.7,0c4,0,8,0,12,0c-5.2-5.2-10.5-10.5-15.7-15.7
	C156.4,30.8,156.4,33.7,156.4,36.6z M184.3,95.3c-1.5,1.5-3.1,3.1-4.6,4.6c0.8,0.8,1.7,1.7,2.6,2.6c2.8,2.8,5.7,5.7,8.6,8.6
	c0-7.4,0-14.8,0-22.2C188.7,91.1,186.5,93.2,184.3,95.3z M158.2,156.3c-0.6,0-1.2,0-1.8,0c0,1.2,0,2.5,0,3.7c0,4,0,8,0,12
	c5.2-5.2,10.5-10.5,15.7-15.7C167.5,156.3,162.8,156.3,158.2,156.3z M111.2,156.3c-5.7,0-11.4,0-17.1,0c-1.8,0-3.5,0-5.3,0
	c2.7,2.7,5.4,5.4,8,8c1,1,2.1,2.1,3.1,3.1C103.7,163.8,107.5,160.1,111.2,156.3z M68.1,147.7c-4.1-4.1-8.2-8.2-12.3-12.3
	c-1.2-1.2-2.3-2.3-3.5-3.5c0,3.9,0,7.8,0,11.7c0,1.4,0,2.8,0,4.2C57.5,147.7,62.8,147.7,68.1,147.7z M88.9,9.2
	c2.2,2.2,4.3,4.3,6.5,6.5c1.5,1.5,3.1,3.1,4.6,4.6c2-2,4.1-4.1,6.1-6.1c1.6-1.6,3.2-3.4,4.9-5C103.7,9.2,96.3,9.2,88.9,9.2z
	 M111.1,190.8c-3.4-3.4-6.8-6.8-10.2-10.2c-0.3-0.3-0.6-0.6-1-1c-0.8,0.8-1.7,1.7-2.6,2.6c-2.8,2.8-5.7,5.7-8.6,8.6
	C96.3,190.8,103.7,190.8,111.1,190.8z M43.6,172.1c0-4.6,0-9.3,0-13.9c0-0.6,0-1.2,0-1.8c-2.9,0-5.8,0-8.6,0c-2.3,0-4.7,0.1-7,0
	C33.2,161.6,38.4,166.8,43.6,172.1z"/>
</svg>
