<?xml version="1.0" encoding="utf-8"?>
<!-- Generator: Adobe Illustrator 26.5.1, SVG Export Plug-In . SVG Version: 6.00 Build 0)  -->
<svg version="1.1" id="Capa_1" xmlns="http://www.w3.org/2000/svg" xmlns:xlink="http://www.w3.org/1999/xlink" x="0px" y="0px"
	 viewBox="0 0 819 570" style="enable-background:new 0 0 819 570;" xml:space="preserve">
<style type="text/css">
	.st0{clip-path:url(#SVGID_00000124140617832351772330000015844611715490624151_);}
	.st1{fill:#EFEEFE;}
	.st2{fill:#BBB4F8;}
	.st3{fill:#4463CD;}
	.st4{fill:#2E3192;}
	.st5{fill:none;stroke:#BBB4F8;stroke-width:4.6987;stroke-linecap:round;stroke-miterlimit:10;}
	.st6{fill:none;stroke:#D3D5FC;stroke-width:7.775;stroke-linecap:round;stroke-linejoin:round;}
	.st7{fill:#F89F4F;}
	.st8{fill:#FDC854;}
	.st9{fill:#FFFFFF;}
	.st10{fill:#D3D5FC;}
	.st11{fill:none;stroke:#9087F4;stroke-width:4.0997;stroke-linecap:round;stroke-linejoin:round;}
	.st12{fill:#9087F4;}
	.st13{fill:none;stroke:#FFFFFF;stroke-width:3.3622;stroke-linecap:round;stroke-linejoin:round;}
	.st14{fill:#F6A19E;}
	.st15{fill:none;stroke:#E1EEF7;stroke-width:0.9241;stroke-miterlimit:10;}
	.st16{fill:none;stroke:#E1EEF7;stroke-width:0.3853;stroke-miterlimit:10;}
	.st17{fill:#F95F6B;}
	.st18{fill:#F26D6D;}
	.st19{fill:none;stroke:#2E3192;stroke-width:0.9271;stroke-miterlimit:10;}
	.st20{fill:none;stroke:#BBB4F8;stroke-width:0.8488;stroke-miterlimit:10;}
	.st21{fill:none;stroke:#F26D6D;stroke-width:0.9271;stroke-miterlimit:10;}
	.st22{fill:none;stroke:#F26D6D;stroke-width:0.8488;stroke-miterlimit:10;}
	.st23{fill:#FB9C98;}
	.st24{fill:none;stroke:#8A8AFF;stroke-width:3.1636;stroke-miterlimit:10;}
	.st25{fill:#47B27C;}
	.st26{fill:#F9E0D2;}
	.st27{fill:#F95F6A;}
	.st28{fill:none;stroke:#FFC5AE;stroke-width:1.3064;stroke-linecap:round;stroke-miterlimit:10;}
	.st29{fill:none;stroke:#2E3192;stroke-width:0.891;stroke-miterlimit:10;}
	.st30{opacity:0.8;fill:#FFFFFF;}
</style>
<g>
	<defs>
		<rect id="SVGID_1_" x="0.3" y="0.2" width="818" height="569.7"/>
	</defs>
	<clipPath id="SVGID_00000145761972853107180540000012646239383345703082_">
		<use xlink:href="#SVGID_1_"  style="overflow:visible;"/>
	</clipPath>
	<g style="clip-path:url(#SVGID_00000145761972853107180540000012646239383345703082_);">
		<path class="st1" d="M85,567.6h639c95.8-110.5,121.2-259.2,64.2-376.4C740.8,94,648.1,52.1,612.3,35.9
			C477.4-24.9,350.4,7.9,311.7,19.7C169.7,63-5.2,197.2,0.5,372.4C3.5,465.7,56.5,535.4,85,567.6z"/>
		<path class="st2" d="M655.1,164.1v285.7c0,14-11.3,25.3-25.3,25.3h-430c-14,0-25.3-11.3-25.3-25.3V164.1H655.1z"/>
		<path class="st3" d="M174.5,425.3V139.6c0-14,11.3-25.3,25.3-25.3h430c14,0,25.3,11.3,25.3,25.3v285.7H174.5z"/>
		<path class="st1" d="M197.1,403V149.3c0-6.7,5.4-12.2,12.2-12.2h411.1c6.7,0,12.2,5.4,12.2,12.2V403H197.1z"/>
		<path class="st1" d="M632.5,459.3c4.4,0,8-3.6,8-8s-3.6-8-8-8c-4.4,0-8,3.6-8,8S628.1,459.3,632.5,459.3z"/>
		<path class="st3" d="M463.2,475.1h-96.9v94.3h96.9V475.1z"/>
		<path class="st4" d="M538.8,550.8H290.8v14.5h247.9V550.8z"/>
		<path class="st4" d="M366.4,475.1l96.9,23.9v-23.9H366.4z"/>
		<path class="st2" d="M620.4,137.1H209.2c-6.7,0-12.2,5.4-12.2,12.2v5h435.5v-5C632.5,142.6,627.1,137.1,620.4,137.1L620.4,137.1z"
			/>
		<path class="st1" d="M585.9,149.7c2.2,0,4-1.8,4-4c0-2.2-1.8-4-4-4s-4,1.8-4,4C581.9,147.9,583.7,149.7,585.9,149.7z"/>
		<path class="st1" d="M602.6,149.7c2.2,0,4-1.8,4-4c0-2.2-1.8-4-4-4s-4,1.8-4,4C598.6,147.9,600.4,149.7,602.6,149.7z"/>
		<path class="st1" d="M619.3,149.7c2.2,0,4-1.8,4-4c0-2.2-1.8-4-4-4c-2.2,0-4,1.8-4,4C615.3,147.9,617.1,149.7,619.3,149.7z"/>
		<path class="st5" d="M25.2,567.6h774.4"/>
		<path class="st6" d="M324,499v-26.5c0-20.7-16.8-37.4-37.4-37.4c-20.7,0-37.4,16.8-37.4,37.4V499"/>
		<path class="st7" d="M340.7,495.6h-93.9v69.7h93.9V495.6z"/>
		<path class="st8" d="M328.1,495.6h-93.9v69.7h93.9V495.6z"/>
		<path class="st7" d="M281.2,534.6c5.1,0,9.2-4.1,9.2-9.2c0-5.1-4.1-9.2-9.2-9.2c-5.1,0-9.2,4.1-9.2,9.2
			C271.9,530.4,276.1,534.6,281.2,534.6z"/>
		<path class="st7" d="M286.6,523.7h-10.9v21.1h10.9V523.7z"/>
		<path class="st7" d="M330.7,484.2h-13.4v11.3h13.4V484.2z"/>
		<path class="st9" d="M527.3,49.5H270V403h297.5V89.8L527.3,49.5z"/>
		<path class="st10" d="M527.3,49.5l0.2,40.1l40.1,0.2L527.3,49.5z"/>
		<path class="st11" d="M340.7,130.5h155.1"/>
		<path class="st11" d="M309,144.7h159.9"/>
		<path class="st11" d="M309,173.1h135"/>
		<path class="st11" d="M309,158.9h109"/>
		<path class="st11" d="M456.7,158.9h71.4"/>
		<path class="st10" d="M511.2,266.6H357.8v5.7h153.5V266.6z"/>
		<path class="st10" d="M403.6,250.3h-45.9v5.7h45.9V250.3z"/>
		<path class="st10" d="M419.4,256h72.7v-5.7h-72.7V256z"/>
		<path class="st12" d="M344.1,249.6h-15.7c-2.2,0-3.9,1.7-3.9,3.9v15.7c0,2.2,1.7,3.9,3.9,3.9h15.7c2.2,0,3.9-1.7,3.9-3.9v-15.7
			C348,251.3,346.2,249.6,344.1,249.6z"/>
		<path class="st13" d="M331,261.1l3.9,3.9l7.4-7.4"/>
		<path class="st10" d="M495.8,217.1h-138v5.7h138V217.1z"/>
		<path class="st10" d="M512.2,200.7H357.8v5.7h154.4V200.7z"/>
		<path class="st12" d="M344.1,200h-15.7c-2.2,0-3.9,1.7-3.9,3.9v15.7c0,2.2,1.7,3.9,3.9,3.9h15.7c2.2,0,3.9-1.7,3.9-3.9v-15.7
			C348,201.8,346.2,200,344.1,200z"/>
		<path class="st13" d="M331,211.5l3.9,3.9l7.4-7.4"/>
		<path class="st10" d="M440.3,316.2h-82.6v5.7h82.6V316.2z"/>
		<path class="st10" d="M481.1,299.8H357.8v5.7h123.3V299.8z"/>
		<path class="st12" d="M344.1,299.1h-15.7c-2.2,0-3.9,1.7-3.9,3.9v15.7c0,2.2,1.7,3.9,3.9,3.9h15.7c2.2,0,3.9-1.7,3.9-3.9V303
			C348,300.9,346.2,299.1,344.1,299.1z"/>
		<path class="st13" d="M331,310.6l3.9,3.9l7.4-7.4"/>
		<path class="st14" d="M114.1,370.7h-5.7v1.4h5.7V370.7z"/>
		<path class="st4" d="M114.1,370.7c0,0,2.5,2.4,0,4.8H99.5l0.2-2l8.9-2.8h0.4C109,370.7,111.6,372.2,114.1,370.7L114.1,370.7z"/>
		<path class="st3" d="M99.1,377.1h15.5v-1.6H99.1V377.1z"/>
		<path class="st15" d="M105.8,370.9c-0.2,0.4-0.5,0.8-0.7,1.1"/>
		<path class="st15" d="M107.2,371c-0.2,0.4-0.4,0.8-0.6,1.2"/>
		<path class="st14" d="M113.9,367.9l-0.2,2.8h-4l-0.1-2.6L113.9,367.9z"/>
		<path class="st14" d="M145.9,368c0,0-0.1,1.8,0.3,3c0.5,1.2-3.3,1.4-3.3,1.4c-0.1,0-1.8-1.4-1.8-1.4s0.5-1.5,0.4-3.2"/>
		<path class="st4" d="M140,373.4c0.1-1.4,0.7-2.4,1-2.9c0.5-0.2,1.2-0.4,2-0.5c1.5-0.1,2.7,0.2,3.4,0.5c0.3,0.4,1.1,1.4,1.1,3
			c0.1,1-0.2,1.7-0.3,2.2h-7.1C140,375.2,139.9,374.4,140,373.4L140,373.4z"/>
		<path class="st4" d="M147.5,375.7H140V375c0-1.6,1.3-2.9,2.9-2.9h1.7c1.6,0,2.9,1.3,2.9,2.9L147.5,375.7L147.5,375.7z"/>
		<path class="st3" d="M140,377.1h7.6v-1.5H140V377.1z"/>
		<path class="st16" d="M144.8,371c0,0-1.1-0.4-2.1,0"/>
		<path class="st16" d="M144.8,371.7c0,0-1.1-0.4-2.1,0"/>
		<path class="st17" d="M80.8,188.9c-0.1-1.6-0.4-11.5,6.1-18.4c1.8-1.9,2.6-2,11-7.1c8.2-5,12.3-7.4,13.6-8.6
			c9.1-8.4,5.5-17.4,12.5-20.8c5.2-2.5,12.3-0.1,16.5,3.7c6.4,5.8,6.9,15.9,3.2,21.9c-4.3,7.1-13.2,3.1-18.3,10.6
			c-4.3,6.3-4.2,14.6-3.9,19.1c0.6,9.8,4.3,11.8,2.7,15.8c-3.1,7.6-21,12.1-32.7,4.3C81.7,202.8,80.9,190.5,80.8,188.9L80.8,188.9z"
			/>
		<path class="st14" d="M101.9,183.6L94,238h3.9l10.4-29.8l7.2-30.6L101.9,183.6z"/>
		<path class="st10" d="M114,187.2c0.1-0.6,0.3-1.1,0.4-1.7c1.9-8.1,0.6-15.4,1-21.7c0,0-9.3,5-14.1,21.3L114,187.2L114,187.2z"/>
		<path class="st3" d="M115.1,205.1c0,0-5.3,9.4-5.6,10.4c-1.4,4.5-3.2,12.5-3.5,14.3c-1.7,9.3-1.5,58.8,2.5,138.5l6.3-0.4
			c5.8-42.8,12.4-84.7,19.4-126.5c-0.5-12.3-1-24.6-1.6-36.9L115.1,205.1L115.1,205.1z"/>
		<path class="st3" d="M147.5,209.6c0,0,16.3,19.5,12.2,58.6c-4.3,39.9-12.9,100.3-12.9,100.3l-6.1-0.2l-8.5-124.9
			c0,0-5.5-10.8-5.8-32.8L147.5,209.6L147.5,209.6z"/>
		<path class="st10" d="M112.2,210.3c0-10.2,0.3-20.2,0.7-32.6c0.2-5,1.4-9.5,2.4-13.9c5.2-1.7,10.5-3.5,15.7-5.2l12.9,3.6
			c0.9,7.7,0.9,15.3,1.8,23.1c0.9,7.9,1,16.5,1.8,24.2c-4.4,1.2-8.2,1.9-14.5,2.4C124.8,212.6,117.7,211.2,112.2,210.3L112.2,210.3z
			"/>
		<path class="st14" d="M135.2,157.2l0.1-7.3l-7.2-0.4l-0.1,8.1c-0.2,1.5-2,2.6-3.4,3.1l-2.5,0.8c0.3,2.2,2.6,7.4,4.8,7.7
			c4.2,0.6,9.3-6.4,11.7-8.6C137,160.3,135.3,158.8,135.2,157.2L135.2,157.2z"/>
		<path class="st18" d="M130,153.4l-2-1.6l7.2,0.4l-0.1,5.1c-0.6,0.4-1.3,0.7-2,0.8C131.2,158.2,128,155.6,130,153.4L130,153.4z"/>
		<path class="st14" d="M137.3,142c2.4,1.8,2.4,5,2.3,5.9c-0.1,3-1.8,7.7-5.4,8.1c-3.4,0.4-6.7-3.4-7-7.1c-0.2-3.1,1.7-6.6,4.7-7.6
			C132.3,141.2,135,140.4,137.3,142z"/>
		<path class="st9" d="M137.1,151.4c-0.2,0.7-0.7,1.3-1.3,1.4c-0.9,0.2-1.8-0.4-2.1-1.4H137.1L137.1,151.4z"/>
		<path class="st17" d="M137,139.1c1.4,1.2-0.1,5.1-3.2,6.8c-3.1,1.6-7.9,1.1-8.7-0.3c-0.7-1.2,1.5-2.9,2.3-3.6
			C130.3,139.4,135.5,137.7,137,139.1L137,139.1z"/>
		<path class="st14" d="M152.8,173.9c1,1.9,2.1,4.2,2.9,7c1.2,4,1.6,7.6,1.6,10.3c4.3-5.8,8.6-11.5,12.9-17.3l3.4,2.1
			c0,0-7.6,21.1-16.4,29.9c-1,1-2.7,0.8-3.5-0.4c-2.6-3.9-7.7-12.8-7.9-23c-0.1-3.5,0.3-8.3,3-9.4
			C150.1,172.7,151.7,173.3,152.8,173.9L152.8,173.9z"/>
		<path class="st14" d="M152.8,173.9c1,1.9,2.1,4.2,2.9,7c1.2,4,1.6,7.6,1.6,10.3c4.3-5.8,8.6-11.5,12.9-17.3l5-0.3
			c0,0-9.2,23.5-18,32.3c-1,1-2.7,0.8-3.5-0.4c-2.6-3.9-7.7-12.8-7.9-23c-0.1-3.5,0.3-8.3,3-9.4
			C150.1,172.7,151.7,173.3,152.8,173.9L152.8,173.9z"/>
		<path class="st10" d="M145.5,185c-0.8-2.1-0.7-4.3-0.9-5.9c-1.3-8.9-0.6-16.9-0.6-16.9s8,4.4,10.3,12.9c0.6,2.4,1.2,4.6,1.7,6.6
			L145.5,185L145.5,185z"/>
		<path class="st18" d="M156.5,190.3c0.2-0.2,0.6-0.2,0.8,0c0,0.3,0,0.6,0,0.9l-1.6,1.7c-0.1,0.1-0.3,0.2-0.4,0.2
			c-0.2,0-0.3-0.1-0.4-0.2c-0.2-0.2-0.2-0.6,0-0.9L156.5,190.3L156.5,190.3z"/>
		<path class="st14" d="M125.5,147.9c-0.1-0.9,0.6-1.7,1.5-1.7c0.9-0.1,1.7,0.6,1.7,1.5c0.1,0.9-0.6,1.7-1.5,1.7
			C126.3,149.4,125.6,148.8,125.5,147.9z"/>
		<path class="st18" d="M126.2,147.8c0-0.5,0.3-0.9,0.8-0.9c0.5,0,0.9,0.3,0.9,0.8c0,0.5-0.3,0.9-0.8,0.9
			C126.7,148.7,126.2,148.3,126.2,147.8z"/>
		<path class="st19" d="M132.6,251.7c0-2.6-0.2-5.7-0.8-9c-0.4-2.7-1-5.1-1.7-7.2"/>
		<path class="st20" d="M140.3,181.3c-0.3,0.3-4.5,3.1-10.2,0.9"/>
		<path class="st21" d="M123.8,162c0.1,0,4,0.8,4,0.8"/>
		<path class="st21" d="M133.1,163.2c0.1,0,3.8-1.5,3.8-1.5"/>
		<path class="st20" d="M114,177.6c0,0-0.6,5.4,6,5.5"/>
		<path class="st14" d="M178.7,170.6c0.4-0.8,0.1-1.7-0.6-2.1l-2.9-1.9l-6.1,8.8l5.7-0.7L178.7,170.6L178.7,170.6z"/>
		<path class="st14" d="M175.2,166.6l3-4.2l0.9,0.5l-2.4,4.8l-1-0.4L175.2,166.6z"/>
		<path class="st14" d="M172.8,171c0,0,0.4-2.9,0.4-2.9l2.8-0.8L172.8,171z"/>
		<path class="st22" d="M174.2,169.6l2.1-0.8l-0.4-0.9l-1.1-0.1"/>
		<path class="st22" d="M176.9,168.3c-0.2,0.4-0.4,0.7-0.6,1.1"/>
		<path class="st22" d="M177.9,169.2c-0.1,0.3-0.3,0.6-0.4,0.9"/>
		<path class="st23" d="M94,238l-0.2,1.4c0,0-3,3.5-0.1,8.4c2.9,5,3.8-0.6,3.8-0.6l0.5-9.3L94,238L94,238z"/>
		<path class="st23" d="M97.7,238.6c1.9,3.7,2,4.8,1.6,5c-0.5,0.4-2.3-0.4-2.7-2C96.4,240.5,96.8,239.3,97.7,238.6L97.7,238.6z"/>
		<path class="st24" d="M98.9,380.7l47.3,184.5"/>
		<path class="st24" d="M146.8,378.6l47.6,186.7"/>
		<path class="st24" d="M152,361.7L99.9,565.2"/>
		<path class="st24" d="M102.9,361.7L50.7,565.2"/>
		<path class="st24" d="M111.3,522.8H61.4"/>
		<path class="st24" d="M120.4,486.8H70.8"/>
		<path class="st24" d="M129.9,450.7h-50"/>
		<path class="st24" d="M139.3,414.6h-50"/>
		<path class="st24" d="M146.8,378.6H98.7"/>
		<path class="st10" d="M683,353.5c-5.8-2.4-12.5-0.9-16.5,3.9c-5,5.9-11.1,13.5-13,17.2c0,0-18.1,8.5-25.5,11.8l2,3.6
			c0,0,22.6-5.5,30-8.8C667.5,377.8,683,353.5,683,353.5L683,353.5z"/>
		<path class="st14" d="M738.6,559.4l0.3,0.9l-1.9,2l-2-0.9l-0.8-1.1l-0.2-0.9L738.6,559.4z"/>
		<path class="st14" d="M670.3,559.3l0.1,0.9l-0.9,1.5l-2.7-0.3l-0.8-0.5l-0.2-0.8l0-1.1L670.3,559.3z"/>
		<path class="st25" d="M696.5,413.5c-0.7-0.1-1.1-1.8-0.8-3.1c0.4-2,2.2-3.1,2.5-3.3c0.3,0.6,0.7,1.6,0.5,3
			C698.5,411.8,697.3,413.6,696.5,413.5z"/>
		<path class="st25" d="M696.4,412.5c0.2,0.7-1.2,1.7-2.5,2.1c-2,0.5-3.8-0.7-4.1-0.9c0.4-0.5,1.2-1.3,2.5-1.7
			C694.1,411.5,696.2,411.8,696.4,412.5L696.4,412.5z"/>
		<path class="st25" d="M695.5,411.7c-0.4,0.6-2.1,0.1-3.2-0.8c-1.6-1.3-1.7-3.5-1.7-3.8c0.6,0,1.8,0.2,2.9,1
			C694.9,409.2,696,411.1,695.5,411.7L695.5,411.7z"/>
		<path class="st3" d="M708.2,404.8c0,0,11.6,14.8,31.2,154.5l-5.9,0l-46.2-128.5v-26H708.2L708.2,404.8z"/>
		<path class="st3" d="M673.3,396.9c0,0-14,11-13.9,40.5c0,13.2,6.3,121.7,6.3,121.7l4.6,0.2c8.1-41.3,14-81.9,20.8-123.9
			c1-0.1,5.9-0.5,6.7-1.5c1.9-2.2,0-6,0.1-7.7c0.2-6.8,0.2-22.2-0.2-27.9C692.2,398.7,678.4,397.3,673.3,396.9L673.3,396.9z"/>
		<path class="st3" d="M665.7,559.1c0,0-6.2-108.5-6.3-121.7c-0.1-29.5,13.9-40.5,13.9-40.5c1.2,0.1,2.4,0.3,3.6,0.4l3.3,2.1
			c0,0-9.9,57.8-9.6,92.4c0.1,19.2,0.1,45.9,0.1,65.8c-0.1,0.6-0.2,1.2-0.4,1.8L665.7,559.1L665.7,559.1z"/>
		<path class="st10" d="M670.9,405.3c-1.9-0.5-3.2-2.2-3.2-4.2c0.4-10,1.7-21.3,4.5-33.5c1.2-5.4,2.7-10.4,4.2-15.1
			c6-1.3,12-2.7,18-4l13.9,5.5c1,8,1.7,17,1.8,26.8c0.1,9-0.4,17.2-1.2,24.6c-0.1,0.7-0.7,1.4-1.4,1.5c-4.8,0.7-10.5,1.2-16.9,1.1
			C683.1,407.8,676.4,406.6,670.9,405.3L670.9,405.3z"/>
		<path class="st10" d="M669.3,404.9c-1-0.3-1.6-1.2-1.6-2.2c0.3-10.3,1.6-22.2,4.6-35.1c1.2-5.4,2.2-10.5,3.7-15.2
			c3.9-0.9,8.2-1.6,12-2.5c1.3,0.2,4.8-2.2,5.8-0.7c1.3,2-1.1,7.4-1.4,8.3c-1.3,4.8-4.8,23.6-9.5,49.8
			C677.8,406.9,673.2,405.9,669.3,404.9L669.3,404.9z"/>
		<path class="st23" d="M630,389.9l-2.6,1.2c-0.4,0.5-1.1,1.3-2.2,1.9c-0.5,0.3-2.8,1.5-4.5,0.4c-1.2-0.7-2-2.4-1.6-3.1
			c0.2-0.2,0.4-0.3,0.7-0.3l8.2-3.7L630,389.9L630,389.9z"/>
		<path class="st10" d="M716.7,369.1c1.8-2,3.6-4.1,5-6.3c3.6,2.9,6.6,6.2,8.2,9.6c1.5,3.3,0.1,7.4-2.7,11.5
			c-3.6,0-7.6-0.9-10.9-2.2c1.2-1.3,2.3-2.4,3.2-3.1c0,0-2.9-2.4-6.4-5.6C714.5,371.5,715.7,370.2,716.7,369.1L716.7,369.1z"/>
		<path class="st4" d="M670.4,560.2c0,0,2.3,2.2,0,4.5h-9.8v-4.5h5.1C665.7,560.2,668,561.6,670.4,560.2L670.4,560.2z"/>
		<path class="st4" d="M664.4,564.7h-7.7V564c0-2.1,1.7-3.8,3.8-3.8c2.1,0,3.8,1.7,3.8,3.8V564.7z"/>
		<path class="st26" d="M656.4,565.4h14.4v-0.7h-14.4V565.4z"/>
		<path class="st4" d="M734.2,560.2c0,0-2.3,2.2,0,4.5h11.6l-0.4-4.5h-6.5C738.9,560.2,736.6,561.6,734.2,560.2z"/>
		<path class="st26" d="M749.7,564.7h-15.8v0.7h15.8V564.7z"/>
		<path class="st4" d="M745.4,560.2c2.1,0,3.8,1.7,3.8,3.8v0.6h-3.8V560.2z"/>
		<path class="st10" d="M713,372.9c-4.5-4.2-10-9.7-11.1-13.2c-2-6.1,2.4-7.3,2.4-7.3s9.3,2.1,17.5,10.3c-1.5,2.2-3.3,4.3-5,6.3
			C715.7,370.2,714.5,371.5,713,372.9z"/>
		<path class="st23" d="M699.5,403.5c-3.7,0.1-4.6,0.5-4.6,0.9c-0.1,0.5,1.3,1.6,2.7,1.3C698.6,405.4,699.4,404.6,699.5,403.5
			L699.5,403.5z"/>
		<path class="st27" d="M694.2,352.6l-1.9,1.7l0.7,2.8l2.3-1.9L694.2,352.6z"/>
		<path class="st27" d="M693.7,355.6c0,0-14.3,18.4-3.2,41l7.3-13.8L693.7,355.6z"/>
		<path class="st4" d="M610.3,407.3c13.7-13.7,13.7-35.9,0-49.5c-13.7-13.7-35.9-13.7-49.5,0c-13.7,13.7-13.7,35.9,0,49.5
			S596.6,421,610.3,407.3z"/>
		<path class="st9" d="M585.5,413.7c17.2,0,31.2-14,31.2-31.2c0-17.2-14-31.2-31.2-31.2c-17.2,0-31.2,14-31.2,31.2
			C554.3,399.8,568.3,413.7,585.5,413.7z"/>
		<path class="st1" d="M615.7,390.4c-4.4,16.7-21.4,26.6-38,22.3c-2.7-0.7-5.3-1.8-7.6-3.1l38.7-47.9
			C615.4,369.3,618.4,379.9,615.7,390.4z"/>
		<path class="st1" d="M554.8,387.7l29.4-36.3c3-0.1,6.2,0.2,9.3,1c2.9,0.8,5.6,1.9,8.1,3.4l-38.8,48
			C558.5,399.3,555.8,393.7,554.8,387.7L554.8,387.7z"/>
		<path class="st4" d="M601.9,410.6c-15.5,9-35.4,3.8-44.4-11.6c-9-15.5-3.8-35.4,11.6-44.4c15.5-9,35.4-3.8,44.4,11.6
			C622.6,381.6,617.3,401.5,601.9,410.6L601.9,410.6z M600.6,408.3c14.2-8.3,19-26.6,10.7-40.9c-8.3-14.2-26.6-19-40.9-10.7
			c-14.2,8.3-19,26.6-10.7,40.9C568,411.8,586.4,416.6,600.6,408.3z"/>
		<path class="st4" d="M614.2,390.8c30.6,7.9,57.4,14.8,88,22.6c0.3-0.1,2.2-0.9,3-3.1c0.7-1.9,0-3.5-0.2-3.8
			c-31.5-6.7-58.4-12.5-89.8-19.2C615.2,388.5,614.3,389.7,614.2,390.8L614.2,390.8z"/>
		<path class="st23" d="M625.8,387.5c0,0-1.9-0.6-2.3-0.5s-1.9,1.4-1.7,2.5c0.2,1.1,2.1-1.2,2.1-1.2L625.8,387.5L625.8,387.5z"/>
		<path class="st28" d="M710.1,389.3l-8.8,12.6"/>
		<path class="st10" d="M707.3,403c-1.1,0.9-2.1,1.6-2.9,2.2c-0.1,0.1-0.3,0.2-0.4,0.3c-1.1,0.8-1.8,1.2-1.8,1.2l-0.3-1.6l-0.5-3.1
			c0,0,5.6-8.6,11-15.5c0.1-0.2,0.2-0.3,0.4-0.5c0.5-0.6,1-1.3,1.5-1.9c0.9-1.2,1.8-2.2,2.7-3.1c2.2,0.4,4.4,1,6.7,1.6
			c1.3,0.4,2.6,0.8,3.7,1.2c-4.2,6.3-11.9,12.9-17.6,17.4C708.8,401.8,708,402.4,707.3,403L707.3,403z"/>
		<path class="st23" d="M704.3,404.8l-2.1,1.8c-0.2,0.6-0.7,1.5-1.6,2.4c-0.4,0.4-2.3,2.2-4.2,1.7c-1.4-0.3-2.6-1.8-2.4-2.5
			c0.1-0.2,0.3-0.4,0.6-0.5l6.8-5.8L704.3,404.8L704.3,404.8z"/>
		<path class="st23" d="M700.2,339.9l-1.3,10.6l-4.8,2.2l-3.8-3.1l1.5-11.3L700.2,339.9z"/>
		<path class="st18" d="M691.8,338.3l8.4,1.6l-0.1,0.8c-0.9,3.6-4.5,7-8,6.3c-0.5-0.1-1-0.3-1.4-0.5L691.8,338.3z"/>
		<path class="st14" d="M694,328.9c-2.9,0.7-4.1,3.3-4.6,4.2c-1.7,3.4-1.6,9.2,1.9,11c3.3,1.7,8.1-0.9,9.9-4.6
			c1.3-2.6,1.4-6.7-1.2-9.1C698.5,329.2,696.3,328.4,694,328.9L694,328.9z"/>
		<path class="st4" d="M699.9,338.3c-0.1,0.4-0.4,2.1-1.7,2.8c-1.3,0.6-3-0.2-4.3-1c-2.3-1.2-2.9-2.4-4.5-2.5
			c-0.9,0-1.7,0.4-2.2,0.7c-0.7,0.9-2.2,3-1.6,4.9c1,2.8,6.5,3.4,10.1,1.9c3.3-1.4,6-5,5.3-6.2C700.8,338.6,700.3,338.4,699.9,338.3
			L699.9,338.3z"/>
		<path class="st4" d="M699.6,338.2c0.2-0.3,2-3.6,0.7-6.2c-0.3-0.5-1.1-2.2-2.6-2.4c-0.5-0.1-0.7,0-4.1,1.3
			c-0.6,0.2-1.2,0.4-1.8,0.3c-2.2-0.2-3.4-2.7-3.4-2.8c-0.9-1.9-0.7-4.6,0.8-6c2.4-2.2,7-0.4,9.3,1.3c0,0,5.1,3.7,4.3,11.1
			c0,0.3-0.1,1-0.6,1.7C701.3,337.7,700.1,338.1,699.6,338.2L699.6,338.2z"/>
		<path class="st14" d="M703.1,339.3c0.4-0.9,0.1-2-0.9-2.5c-0.9-0.4-2-0.1-2.5,0.9c-0.4,0.9-0.1,2,0.9,2.5
			C701.5,340.6,702.7,340.2,703.1,339.3z"/>
		<path class="st29" d="M690.3,439c0,0-0.1-6-5.3-10.5"/>
	</g>
</g>
<polygon class="st30" points="831.3,578.6 -12.3,578.5 -12.3,-8.6 831.3,-8.6 "/>
</svg>
