<svg width="492" height="492" viewBox="0 0 492 492" fill="none" xmlns="http://www.w3.org/2000/svg">
<mask id="mask0_461_1007" style="mask-type:alpha" maskUnits="userSpaceOnUse" x="-1" y="0" width="493" height="493">
<path d="M492 492L-0.000305176 492L-9.37876e-05 3.51083e-05L492 0.00012207L492 492Z" fill="white"/>
</mask>
<g mask="url(#mask0_461_1007)">
<path d="M492 492L6.10352e-05 492L0.000272423 3.51083e-05L492 0.00012207L492 492Z" fill="#31344E"/>
<path d="M708 492L-0.000183105 492L2.82827e-05 8.84826e-05L216 0.000126661C487.724 0.000174689 708 220.276 708 492Z" fill="#E3E3E3"/>
<path d="M600 492L-0.000183105 492L2.82827e-05 0.000107572L108 0.000126661C379.724 0.000174689 600 220.276 600 492Z" fill="#F0F0F0"/>
<path d="M492 492L-0.000183105 492L2.82827e-05 6.56259e-05C271.724 0.000113654 492 220.276 492 492Z" fill="white"/>
</g>
</svg>
